<?xml version="1.0" encoding="utf-8"?>
<!-- Generator: Adobe Illustrator 22.1.0, SVG Export Plug-In . SVG Version: 6.00 Build 0)  -->
<svg version="1.1" id="Layer_1" xmlns="http://www.w3.org/2000/svg" xmlns:xlink="http://www.w3.org/1999/xlink" x="0px" y="0px"
	 viewBox="0 0 500 332.7" style="enable-background:new 0 0 500 332.7;" xml:space="preserve">
<style type="text/css">
	.st0{fill:#FFFFFF;}
</style>
<g>
	<g id="XMLID_1_">
		<g>
			<path class="st0" d="M497.5,270.3h-14.4h-7.4c-0.7-3.6-1.7-6.2-3.2-7.6c-2.3-2.3-6.3-3.5-11.8-3.5c-5.4,0-9.2,0.9-11.3,2.7
				c-1.6,1.4-2.4,3.2-2.4,5.6c0,3.3,4.6,5.9,13.7,8c10.4,2.3,17.8,4.2,22.4,5.8c1.2,0.5,2.3,0.8,3,1.2c9.3,4.4,13.8,11,13.8,19.9
				c0,10.8-4.5,18.7-13.5,23.7c-1.1,0.6-2.2,1.1-3.4,1.7c-5.8,2.5-12.6,3.8-20.2,3.8c-11.4,0-20.5-2-27.5-6
				c-4.4-2.6-7.7-5.8-9.9-9.6c-2.2-3.9-3.3-8.4-3.3-13.6h22.9c0,3.9,1.4,7,4.2,9.1c2.8,2.2,7.5,3.3,14.2,3.3c5,0,8.8-1.1,11.3-3.2
				c2-1.7,2.9-3.5,2.9-5.6c0-3.5-4.5-6.3-13.5-8.3c-13.4-2.9-21.8-5.2-25.3-6.9c-9.2-4.3-13.7-10.9-13.7-20.1
				c0-7.4,2.3-13.6,7.1-18.7c6-6.4,15-9.6,27-9.6c9.9,0,17.8,1.4,23.7,4.2c0.5,0.2,1,0.5,1.4,0.8c4.3,2.3,7.5,5.4,9.7,9.3
				C496.4,260.4,497.5,265,497.5,270.3z"/>
			<path class="st0" d="M485.9,217c0-0.5-0.1-0.8-0.3-1.1c-0.2-0.4-0.5-0.6-1-0.7c-0.3-0.1-0.8-0.2-1.4-0.2h-0.8h-2.6v4.2h2.8
				c0.2,0,0.5,0,0.7,0c1-0.1,1.7-0.2,2-0.6C485.6,218.2,485.9,217.6,485.9,217z M487.7,214.8c0.5,0.6,0.7,1.3,0.7,2
				c0,1.1-0.4,2-1.1,2.7c-0.7,0.8-1.7,1.2-2.9,1.3c0.5,0.2,0.9,0.5,1.2,0.7l2.1,2.8l1.7,2.8h-2.7l-1.3-2.3c-0.8-1.4-1.5-2.5-2.1-3
				c-0.1-0.1-0.2-0.2-0.3-0.2l-1.8-0.5h-1.4v6h-2.3V213h4.9c0.3,0,0.6,0.1,0.8,0.1c1.2,0,2.1,0.2,2.7,0.4
				C486.6,213.7,487.2,214.1,487.7,214.8z"/>
			<path class="st0" d="M494.1,219.9c0-2-0.5-3.8-1.4-5.5c-1-1.7-2.3-3.1-4.1-4.1c-1.7-0.9-3.5-1.4-5.3-1.4c-0.1,0-0.1,0-0.1,0
				c-1.8,0-3.6,0.5-5.3,1.4c-1.7,1-3.1,2.3-4.1,4.1c-1,1.7-1.5,3.5-1.5,5.5c0,1.9,0.5,3.7,1.5,5.4c0.9,1.6,2.3,3,4,4
				c1.7,1,3.5,1.4,5.4,1.4c0,0,0,0,0.1,0c1.9,0,3.7-0.5,5.4-1.4c1.7-1,3.1-2.3,4-4C493.6,223.6,494.1,221.8,494.1,219.9z
				 M496.2,219.9c0,2.2-0.5,4.4-1.7,6.5c-1.1,2.1-2.7,3.7-4.8,4.8c-2.1,1.2-4.2,1.7-6.5,1.7c-0.1,0-0.1,0-0.1,0
				c-2.3,0-4.4-0.5-6.5-1.7c-2.1-1.1-3.7-2.7-4.8-4.8c-1.2-2.1-1.7-4.3-1.7-6.5c0-2.3,0.5-4.5,1.7-6.6c1.2-2.1,2.8-3.7,4.9-4.8
				c2.1-1.1,4.2-1.7,6.4-1.7c0,0,0,0,0.1,0c2.2,0,4.3,0.6,6.4,1.7c2.1,1.1,3.8,2.7,4.9,4.8C495.7,215.4,496.2,217.6,496.2,219.9z"/>
			<polygon class="st0" points="368.3,113.6 430,216.5 368.3,216.5 330.8,216.5 271.8,118.2 227.1,43.8 271.8,16.9 300,0 			"/>
			<path class="st0" d="M413.1,288v42.2h-20.5v-4.7c-6.9,4.5-15.2,7.2-24.1,7.2c-0.1,0-0.2,0-0.2,0c-24.5-0.2-44.5-20.2-44.5-44.7
				c0-24.5,19.9-44.5,44.5-44.7c0.1,0,0.2,0,0.2,0c8.9,0,17.1,2.6,24.1,7.1v-4.9h20.5V288z M392.6,292.7v-9.3
				c-2.2-11.3-12.2-19.9-24.1-19.9c-0.1,0-0.2,0-0.2,0c-13.5,0.1-24.4,11.1-24.4,24.5c0,13.5,10.9,24.5,24.4,24.6c0.1,0,0.2,0,0.2,0
				C380.4,312.6,390.4,303.9,392.6,292.7z"/>
			<path class="st0" d="M316.7,288v42.2h-20.5v-4.7c-7,4.5-15.2,7.2-24.1,7.2c-0.1,0-0.2,0-0.2,0c-24.5-0.2-44.5-20.2-44.5-44.7
				c0-24.5,19.9-44.5,44.5-44.7c0.1,0,0.2,0,0.2,0c8.9,0,17.1,2.6,24.1,7.1v-33.9h20.5V288z M296.1,292.7v-9.3
				c-2.2-11.3-12.2-19.9-24.1-19.9c-0.1,0-0.2,0-0.2,0c-13.5,0.1-24.4,11.1-24.4,24.5c0,13.5,10.9,24.5,24.4,24.6c0.1,0,0.2,0,0.2,0
				C283.9,312.6,293.9,303.9,296.1,292.7z"/>
			<polygon class="st0" points="271.8,176 296,216.5 271.8,216.5 196.9,216.5 141.8,124.9 139.4,120.9 141.8,119.5 212.3,77 			"/>
			<rect x="197" y="243.3" class="st0" width="22.3" height="86.9"/>
			<rect x="197" y="217" class="st0" width="22.3" height="19.6"/>
			<path class="st0" d="M186.7,288v42.2h-20.5v-4.7c-7,4.5-15.3,7.2-24.2,7.2c-0.1,0-0.2,0-0.2,0c-24.5-0.2-44.5-20.2-44.5-44.7
				c0-24.5,19.9-44.5,44.5-44.7c0.1,0,0.2,0,0.2,0c8.9,0,17.2,2.6,24.2,7.1v-33.9h20.5V288z M166.2,292.7v-9.3
				C164,272,154,263.5,142,263.5c-0.1,0-0.2,0-0.2,0c-13.5,0.1-24.4,11.1-24.4,24.5c0,13.5,10.9,24.5,24.4,24.6c0.1,0,0.2,0,0.2,0
				C154,312.6,164,303.9,166.2,292.7z"/>
			<polygon class="st0" points="141.8,182.7 162.1,216.5 141.8,216.5 62.9,216.5 51.8,197.9 124.7,154.2 			"/>
			<path class="st0" d="M89.3,288v42.2H68.8v-4.7c-7,4.5-15.3,7.2-24.2,7.2c-0.1,0-0.2,0-0.2,0C19.9,332.5,0,312.5,0,288
				c0-24.5,19.9-44.5,44.4-44.7c0.1,0,0.2,0,0.2,0c8.9,0,17.1,2.6,24.2,7.1v-4.9h20.5V288z M68.8,292.7v-9.3
				c-2.2-11.3-12.2-19.9-24.2-19.9c-0.1,0-0.2,0-0.2,0C31,263.5,20.1,274.5,20.1,288c0,13.5,10.9,24.5,24.3,24.6c0.1,0,0.2,0,0.2,0
				C56.6,312.6,66.6,303.9,68.8,292.7z"/>
		</g>
	</g>
</g>
</svg>
