<?xml version="1.0" encoding="utf-8"?>
<!-- Generator: Adobe Illustrator 22.1.0, SVG Export Plug-In . SVG Version: 6.00 Build 0)  -->
<svg version="1.1" id="Layer_1" xmlns="http://www.w3.org/2000/svg" xmlns:xlink="http://www.w3.org/1999/xlink" x="0px" y="0px"
	 viewBox="0 0 500 613.3" style="enable-background:new 0 0 500 613.3;" xml:space="preserve">
<style type="text/css">
	.st0{fill-rule:evenodd;clip-rule:evenodd;fill:#FFFFFF;}
</style>
<g>
	<path class="st0" d="M275.9,53.4C316.2,0.3,372.2,0,372.2,0s8.3,49.9-31.7,98c-42.7,51.4-91.3,43-91.3,43S240,100.6,275.9,53.4z"/>
	<path class="st0" d="M254.3,176c20.7,0,59.2-28.5,109.3-28.5c86.2,0,120.1,61.3,120.1,61.3s-66.3,33.9-66.3,116.2
		c0,92.8,82.6,124.8,82.6,124.8s-57.8,162.6-135.8,162.6c-35.8,0-63.7-24.1-101.4-24.1c-38.5,0-76.7,25.1-101.5,25.1
		C90,613.3,0,459.1,0,335.1c0-122,76.2-185.9,147.6-185.9C194.1,149.2,230.1,176,254.3,176z"/>
</g>
</svg>
