<?xml version="1.0" encoding="utf-8"?>
<!-- Generator: Adobe Illustrator 23.0.1, SVG Export Plug-In . SVG Version: 6.00 Build 0)  -->
<svg version="1.1" id="Layer_1" xmlns="http://www.w3.org/2000/svg" xmlns:xlink="http://www.w3.org/1999/xlink" x="0px" y="0px"
	 viewBox="0 0 30 30" style="enable-background:new 0 0 30 30;" xml:space="preserve">
<style type="text/css">
	.st0{fill:#FFFFFF;}
</style>
<path id="Instagram" class="st0" d="M26.43,0H3.57C1.6,0,0,1.59,0,3.56v22.88C0,28.41,1.6,30,3.57,30h22.87
	C28.4,30,30,28.41,30,26.44V3.56C30,1.59,28.4,0,26.43,0z M21.56,4.69c0-0.52,0.42-0.94,0.94-0.94h2.81c0.52,0,0.94,0.42,0.94,0.94
	V7.5c0,0.52-0.42,0.94-0.94,0.94H22.5c-0.52,0-0.94-0.42-0.94-0.94V4.69z M15.03,9.28c3.19,0,5.77,2.58,5.77,5.76
	c0,3.18-2.58,5.76-5.77,5.76c-3.19,0-5.77-2.58-5.77-5.76C9.27,11.86,11.85,9.28,15.03,9.28z M27.19,26.25
	c0,0.52-0.42,0.94-0.94,0.94H3.75c-0.52,0-0.94-0.42-0.94-0.94V12.19h3.75c-0.49,0.7-0.65,2.01-0.65,2.85
	c0,5.02,4.09,9.11,9.13,9.11c5.03,0,9.13-4.08,9.13-9.11c0-0.83-0.12-2.12-0.72-2.85h3.75V26.25z"/>
</svg>
