<?xml version="1.0" encoding="utf-8"?>
<!-- Generator: Adobe Illustrator 23.0.1, SVG Export Plug-In . SVG Version: 6.00 Build 0)  -->
<svg version="1.1" id="Layer_1" xmlns="http://www.w3.org/2000/svg" xmlns:xlink="http://www.w3.org/1999/xlink" x="0px" y="0px"
	 viewBox="0 0 30 30" style="enable-background:new 0 0 30 30;" xml:space="preserve">
<style type="text/css">
	.st0{fill:#FFFFFF;}
</style>
<g id="LinkedIn">
	<rect x="0.76" y="10.11" class="st0" width="5.85" height="18.53"/>
	<path class="st0" d="M22.58,9.93c-3.35,0-5.45,1.81-5.84,3.09v-2.91h-6.57c0.08,1.54,0,18.53,0,18.53h6.57V18.61
		c0-0.56-0.03-1.11,0.14-1.51c0.45-1.11,1.42-2.27,3.17-2.27c2.28,0,3.32,1.71,3.32,4.22v9.59H30v-10.3
		C30,12.6,26.74,9.93,22.58,9.93z"/>
	<path class="st0" d="M3.57,1.36C1.41,1.36,0,2.75,0,4.58c0,1.8,1.37,3.21,3.49,3.21h0.04c2.2,0,3.57-1.42,3.57-3.22
		C7.06,2.75,5.73,1.36,3.57,1.36z"/>
</g>
</svg>
