<svg id="Layer_1" data-name="Layer 1" xmlns="http://www.w3.org/2000/svg" viewBox="0 0 500 501.34"><defs><style>.cls-1{fill:#fff;}</style></defs><title>starbucks</title><g id="g3810"><g id="g3025"><path id="inner_artwork" data-name="inner artwork" class="cls-1" d="M248.57,87.87c8.91,5.13,18.35,11.74,25.54,18.74l-2.82,2.84c-14.19-1.51-29.13.37-42.58.58-1.5-1.51-4.52-3.79-1.71-5.69l21.57-16.47ZM499.44,264.11c.19,6.41.79,11.91-1.71,18.46-25.92,7.37-42.94-20.07-68.09-15.93l2.84,14.22c23.27.77,37.8,23.08,61.84,22.12-3.41,6.82,1.52,24.79-13.61,17.61C465,316.81,453.65,303,436.44,303c-2.07,3.81-.76,9.09-1.12,13.6,18.15,2.85,31.21,18.2,49.36,21-1.71,6.24-3.4,13.22-8.51,17-14.76-3.59-26.3-16.85-42-16.47l-2.8,13.06c14.94.38,24.59,13.6,38,17.57.37,5.51-4.56,10.43-7.39,15.35-11.92-3.58-21-13.82-34.63-13.06-.19-5.13,2.86-11,1.71-16.45-15.3,4.55-25.55-9.66-36.89-18.18-.33-27.9-29.69-46.2-31.24-72.34a38.83,38.83,0,0,1,2.86-16.75c9.66-22.31,6.63-51.29-4-72.1-3.21-5.47-8.91-9.8-14.22-13,7.77,16.47,17.23,35.93,12.51,56.17-.55,15.63-9.77,30.64-9.87,45.7a31.36,31.36,0,0,0,4.2,16.17c12.3,22.16,34.44,43.14,26.11,70.93-2.29,8.54-9.1,15.14-10.8,23.83,14.39,11.92,28,25.36,47.11,26.11,6.8-4.34,3-23.62,17-14.73l20.44,10.23c-1.49,5.47-6.07,10.37-10.22,14.14-7.75-3.77-15.32-8.3-25-7.93-2.85,3-5.3,6.42-5.09,10.77a45.5,45.5,0,0,1,18.73,8c-2.63,5.68-7.78,9.24-12.51,13.6l-15.86-5.67c-2.64,3.79-8.14,7.77-6.21,11.93,3.58,1.53,7.54,3.6,10.18,6.25-7,7.57-15.87,12.44-24.41,17.57-7.35-24-31.58-40.88-29.5-68.67l-1.13-1.13c-5.69,6.4-3.79,16.64-3.42,24.95,6.82,17.41,23.07,30.85,25.54,49.95-2.85,4.91-9.27,5.89-14.19,8,.57-34.42-51.64-60.52-18.16-95.34C352.26,366,371,349.69,364.34,326.22c-6.81-22.66-30.88-36.7-30.67-62.11l0-2c5.49-26.49,22.14-54.68,8.52-82.86-3.8-11.34-12.29-24.22-23.83-29,17.21,19.69,24,51.83,14.19,78.32-5,10.54-11.79,23.1-12.48,35.49h0a29.69,29.69,0,0,0,5.13,19c13.06,21.2,35.75,44.48,22.7,72.1-14.76,22.13-40.48,44.63-26.12,73.78,10.41,17.4,26.5,34.76,22.16,56.16l-17,5.67c11.35-39.91-44.28-63.35-21-103.27,14.38-21.38,40.09-41.43,25.53-69.8-8.7-17.58-26.68-28-26.11-49.95l.62-3.69c5.86-31.16,29.54-60.65,13-93.94a59.16,59.16,0,0,0-22.7-25.53l-.58.58c19.3,18.72,25.17,49.54,14.77,74.31-4.86,14.54-15.52,29-17.69,44.58a36.57,36.57,0,0,0,4.09,23c12.29,19.47,33.85,40.12,20.4,65.3-14.17,20.79-37.83,41-28.38,68.06C299.27,444.1,321,466.63,309.27,496l-17.57,4c14-28.58-7-56.95-19.28-81.74-14.95-35.56,32.12-52.59,32.88-85.11-.18-21-22.49-32.91-27.21-52.2-9.65-8.15-19.66,3.24-31.21,1.12-8.52,1.71-21.61-11.73-26.7,2.84-6.06,21.37-33.66,37.08-21.53,62.42,11.54,22.52,39.32,39,30,68.13-8.31,27.23-35.76,53.15-18.73,84.54-7-2.26-20.05,2.07-19.86-9.1-10.78-38,35.18-60.17,21-98.18-6.61-23.27-36.71-36.13-30.09-64.13,4.9-23,30.76-39.15,27.13-64.4a37.29,37.29,0,0,0-1.55-6.53c-9.65-27.24-29.35-54.49-17.61-86.28,3.22-9.08,9.66-16.84,15.32-24.95-18.73,10-28.18,31.22-27.79,52.78-.82,23.44,16.5,43.53,19,65a39.57,39.57,0,0,1-6.5,26.93c-12.28,16.68-28.35,34.25-21,56.21,7,22.14,34.63,35.55,32.92,61.29C200.71,439,165.34,458,175.37,492l-17.61-5.71c-7-30.26,25.16-45.74,25.53-73.73,4.55-32.2-36.51-44.14-34-75.52-.18-23.85,20.81-39,30.08-59a38.51,38.51,0,0,0,1.91-13.92c-1.14-22.17-21.12-39.51-17.81-64.44,1.12-18.35,7.36-34.43,19.28-48.24-16.44,6.61-23.24,25.55-27.78,41.44-7.89,25.49,10.94,48.41,12.82,71.24.84,10.08-1.62,20.11-11.11,30.36C143,310.54,129.19,330.8,139,352.39c10.42,23.81,43.15,42.35,28.95,72.06-7.74,18.73-26.29,32.91-25.53,55-4.91-2.08-10-4.15-14.19-7.93,0-28.18,40.09-45.78,21-75.48-1.69,5.86-2.05,13.82-3.38,20.44-6.63,17.23-20.81,31-26.12,48.82-8.88-3.43-18.15-10.62-25.54-18.19l10.23-6.26c-1.14-3.79-4.16-7-6.8-10.22-6.64-.93-11,3.43-16.48,5.14-4.73-4.18-9.29-8-13.06-13.07,3.4-9.66,29.92-1.67,16.48-17.57-9.07-5.67-18.17,2.44-26.12,6.22l-10.77-13.6c9.27-5.67,18.52-13.64,30.05-11.35,2.84,5.11,3,12.64,8.51,15.31,19.49-.38,33.3-15.12,48.24-26.66-10.42-15.5-18.89-36.89-9.64-55.62,7.41-18.78,26.72-34.59,27.59-55.35a36.78,36.78,0,0,0-2.6-15c-10.21-26.3-13.82-61.84,5.67-85.12C144.92,166.8,138.67,180,135.07,190c-11.72,25.68,3.1,49.47,3.61,74.08a53.17,53.17,0,0,1-1.36,13.33c-10,20.24-26.28,38-28.92,61.29-11.54,7.37-21,20.24-37.47,15.9-.57,4.34.75,11,2.26,15.89-13-.55-21.94,9.07-32.92,13.61-5.85-1.88-7.37-9.44-9.64-14.73,12.85-4.34,22.13-17.23,36.89-17,1.71-4.75-1-9.11-1.71-13.64C47.45,330.58,18.34,379,15.9,337c18.34-1.13,30.07-18.16,48.24-19.86l.54-13.6c-20.62-2.08-33.88,19.11-54.49,17L5.64,302.43c23.84,1.49,38.05-19.87,60.75-21,3-4,3.38-9.83,4-15.32-24.79-3.23-41.8,24.24-68.1,15.9,0,0-.91-11.43-1.4-17.88h0c-.18-2.52-.35-4.27-.35-4.27,23.46,9.1,44.07-7.75,64.13-16.45,5.1-1.52,13.06,1.13,15.35-4.54-.2-4.36,7.74-9.44,1.13-12.48-29.33-4-48.82,31.4-78.9,15.31L0,237.13C6.25,151.63,54.47,69,134.48,28.3,166.89,9.78,207.15.35,247.75,0c49-.41,98.5,12.45,135.34,38.52,35.76,21.94,70,58.09,88.54,94.79C489.39,165.48,497.56,201.57,500,240c-31,23.45-51.85-22.09-83.45-11.9,1.7,4.93,2.64,10,6.26,14.19,28-.2,47.29,29.13,76.6,17.57l0,4.27ZM143,158.82c-19.68-12.87-44.63-.75-63,6.26-1.7-17.23-8.69-32.92-23.28-44.27-1.41-.7-3.37-2.18-5.13-2.29a2.93,2.93,0,0,0-2.84,1.7c6.61,40.67-19.82,69.05-38.55,99.9,6.23,5.09,16.25,4.33,23.82,2.83,19.86-7.94,38.77-21.76,62.42-17,7-11.92,18.74-23.46,28.38-32.92,5.88-5.1,14-8.33,18.15-14.19Zm60.17,25.54c-.38,2.45.18,6.81,4,5.12,5.87-8.13,16.27-1.69,22.7-1.12v-2.29c-3.53-5.54-10.78-8.32-18.15-8a27.57,27.57,0,0,0-5.1.7A4.4,4.4,0,0,0,203.16,184.36ZM295.66,160c-5.28-11.74-17.39-16.48-28.38-19.32a147.46,147.46,0,0,0-16.52-1.16c-1,0-2.07,0-3.11,0-15.51.31-30.32,4.29-39.37,17.05-1.3,3.61-7,8.67-1.71,11.9,11.92-.76,25.52-2.26,33.46,8,0,9.09,5.87,21.18-4,25.53-8.15-7.54-17.8,3.21-26.66-2.84-4.17-2.46-6.81.41-8.51,4-2.47,23.45,9.81,49.33,31.75,62.38,8.89,3.2,20.85,6.25,30.13,1.71,22.32-10.4,31.56-34.22,35.72-56.17-.56-4.17-.36-12.31-6.22-12.51-6.62,4.18-16.27,1.71-23.28,0-4.15,1.34-4.34,7.41-9.06,8.55l-2.87-2.29c-2.47-10.39-4-25.15,5.67-32.34,10.79-4.35,23.47-6.25,34.63-2.83,2.08-3.6-1.13-6.43-1.71-9.64Zm-11.39,18.65-2.22.08c-4,2.64-15.51.74-11.34,9.64,7.19-5.69,17.22-1.7,24.4,1.12,2.66-1.32,2.08-4,2.26-6.25-2.31-4.29-7.82-4.7-13.1-4.59Zm82.36-80c-14-.74-25.73,7.21-38.59,10.81-1.12-10.95,7.2-22.51,9.09-33.5-20.8,1.33-37.28,13.86-54.49,23.86q-6-14.44-11.93-29l22.7-21.57.58-2.84-30.66-1.71c-5.28-9.25-7.36-20.4-13.61-28.91-5.1,9.64-8.54,19.86-13.64,29.49L205.45,47v2.25l23.25,21c-2.85,10.79-5.48,22.51-12.48,30.66-13.62-8.15-27.05-17-42-22.7-3.6-1.16-8.72-3-11.94-.58,4.73,10.41,11.34,21.61,10.23,33-6.25-1.14-11.16-5.15-17-6.83-7-1.92-15.34-5.66-22.15-3.39C144.71,116.29,154,132.91,157.18,152c37.66-18.18,81.58-28.18,127.18-20.41,21.37,3.4,41,12.11,60.13,19.28.75-20,13.42-36.14,22.14-52.24Zm64.68,109c19.28,5.11,38.62,26.11,59,12.48-17.79-29.5-44.25-56.75-36.89-95.33a4.44,4.44,0,0,0-3.38-5.68c-11.54,4.72-20.47,16.08-25,27.25-1.88,6.6-3,13.63-5.64,19.86-13.81-7.2-28.56-14.16-45.4-12.48-6.07.76-14.77,1.15-15.89,7.39,19.11,10.21,34.82,27.25,46.53,45.39,8.15-1.33,18.15-.19,26.66,1.12Zm-202,26.67.55,3.42c7.39,4.92,9.67,13.27,19.9,12.51,9.07.54,15.88-8,20.4-14.77-12.28-1.69-27.22.93-40.85-1.16ZM239.49,219c.37,1.51-.93,3.78,1.13,4.55,6-1.32,17,3.22,20.4-4-2.36-2.64-6.21-3.84-10.26-3.84A20.49,20.49,0,0,0,239.49,219Z"/><g id="text3021"><path id="path3032" class="cls-1" d="M419.27,501.34V467.59H407.21v-6.88h32.28v6.88h-12v33.75Z"/><path id="path3034" class="cls-1" d="M444.7,501.34V460.71H457l7.37,27.71,7.29-27.71h12.3v40.63h-7.62v-32l-8.06,32h-7.9l-8-32v32Z"/></g></g></g></svg>