<?xml version="1.0" encoding="utf-8"?>
<!-- Generator: Adobe Illustrator 22.1.0, SVG Export Plug-In . SVG Version: 6.00 Build 0)  -->
<svg version="1.1" id="Layer_1" xmlns="http://www.w3.org/2000/svg" xmlns:xlink="http://www.w3.org/1999/xlink" x="0px" y="0px"
	 viewBox="0 0 500 339.2" style="enable-background:new 0 0 500 339.2;" xml:space="preserve">
<style type="text/css">
	.st0{fill:#FFFFFF;}
</style>
<g>
	<path class="st0" d="M226.5,185.8c-0.4-0.4-0.9-0.6-1.6-0.6c-0.3,0-0.6,0.1-0.9,0.2c0.2-0.2,0.4-0.5,0.5-0.9c0.5,0.3,1,0.4,1.4,0.4
		c0.5,0,0.9-0.1,1.2-0.4c0.1,0.1,0.1,0.3,0.2,0.5C227,185.3,226.7,185.5,226.5,185.8L226.5,185.8z"/>
	<path class="st0" d="M223.2,186c-0.4,0.4-0.6,0.9-0.6,1.5c0,0.2,0,0.4,0,0.6c-0.2,0-0.4-0.1-0.6-0.1c0,0-0.2,0.1-0.3,0.1
		c-0.3-0.8-1-1.5-1.8-1.5c0.1-0.2,0.1-0.5,0.1-0.7c0-0.5-0.1-1-0.5-1.4c0.1,0,0.1-0.1,0.2-0.1c0.2,1.1,1.2,1.8,2.5,1.8
		C222.6,186.2,222.9,186.1,223.2,186L223.2,186z"/>
	<path class="st0" d="M217,188.1c-0.8,0.2-1.5,0.9-1.7,1.7c-0.2-0.7-0.7-1.3-1.4-1.5c0.1-0.3,0.2-0.7,0.2-1.1c0-1.1-0.9-2.3-2.4-2.3
		c-0.1,0-0.2,0-0.3,0c0.3-0.4,0.3-0.9,0.3-1.4c0,0,0-0.2-0.1-0.2c0.3-0.1,0.7-0.2,0.7-0.2c0.3-0.2,0.5-0.3,0.7-0.5
		c-0.1,0.2-0.2,0.4-0.3,0.6v0.1v0.3c0,1.4,0.9,2.4,2.4,2.4c0.1,0,0.1-0.1,0.2-0.1c0,0.1-0.1,0.1-0.1,0.2
		C215.3,186.8,215.9,187.8,217,188.1L217,188.1z"/>
	<path class="st0" d="M213.5,181.9c0.2-0.3,0.2-0.7,0.2-0.9c0,0-0.1-0.4-0.2-0.8c0,0,0,0,0-0.1c0.4,0.4,1,0.7,1.8,0.7
		c1.2,0,2.3-0.9,2.3-2.4c0-0.3-0.1-0.7-0.3-1c0.5-0.2,1-0.6,1.3-1c0,0.1,0.1,0.3,0.1,0.4c-0.6,0.4-1.2,1.1-1.2,1.8
		c0,0.8,0.3,1.3,0.8,1.8c-0.1,0-0.2,0-0.3,0c-0.9,0-1.5,0.5-1.9,1.1c-0.3-0.2-0.6-0.5-1-0.5C214.6,181.1,213.9,181.4,213.5,181.9
		L213.5,181.9z"/>
	<path class="st0" d="M219.8,181c0.1,0,0.1,0,0.2,0c1.4,0,2.4-0.9,2.4-2.3c0,0-0.2-0.4-0.3-0.9c0.7-0.5,1.1-1.1,1.1-2
		c0-0.2,0-0.4-0.1-0.6c0.3,0.1,0.7,0.3,1,0.3c0.6,0,1.2-0.2,1.6-0.6c0.5,0.6,1.2,1,1.9,1c1.4,0,2.3-1,2.3-2.4c0-0.2,0-0.5-0.1-0.7h0
		c0.1,0,0.2,0,0.3,0c0,0.2,0,0.4,0,0.5c0,0.4,0.3,0.7,0.5,1c-0.5,0.3-1,0.8-1.1,1.4c-0.2-0.1-0.4-0.1-0.6-0.1
		c-0.8,0-1.7,0.4-2.1,1.2c-0.4-0.2-0.9-0.4-1.4-0.4c-1.2,0-2.3,1.1-2.3,2.3c0,0.9,0.4,1.5,1,1.9c-0.3,0.3-0.6,0.6-0.7,1
		c-0.3-0.2-0.8-0.4-1.2-0.4c-0.7,0-1.4,0.3-1.8,0.7C220.3,181.7,220.1,181.3,219.8,181L219.8,181z"/>
	<path class="st0" d="M225.3,168.2c0.2-0.2,0.4-0.4,0.5-0.7c0.1,0,0.1,0,0.2,0c-0.1,0.2-0.3,0.5-0.3,0.7
		C225.5,168.2,225.3,168.2,225.3,168.2C225.3,168.2,225.3,168.2,225.3,168.2L225.3,168.2z"/>
	<path class="st0" d="M234.8,165.9c0-0.5-0.3-1-0.5-1.3c0.9-0.3,1.5-0.9,1.6-2c0.4,0.4,1,0.6,1.6,0.6c0,0,0.2-0.1,0.4-0.2
		c0,0.4,0.2,0.9,0.4,1.2c-0.4,0.2-0.8,0.6-1,1.1c-0.3-0.1-0.6-0.2-0.6-0.2C235.8,165.1,235.2,165.4,234.8,165.9L234.8,165.9z"/>
	<path class="st0" d="M235,160.7c-0.4-0.3-0.9-0.6-1.6-0.6c0,0-0.7,0.4-1.3,0.7c-0.1-0.4-0.3-0.9-0.6-1.1c0.3,0.1,0.6,0.2,0.9,0.2
		c1,0,2-0.6,2.2-1.7c0.2,0.4,0.5,0.8,0.8,1.1C235.2,159.8,235,160.2,235,160.7L235,160.7z"/>
	<path class="st0" d="M236.4,155.3c0,0-0.1-0.1-0.1-0.2c0.1-0.1,0.8-0.3,1.3-0.5c0.4,0.2,1,0.4,1,0.4c0.9,0,1.6-0.3,2-0.8
		c0.1,0.5,0.5,0.9,0.8,1c-1,0.1-1.8,0.8-2.2,1.7c-0.2-0.9-1-1.7-2.3-1.7C236.7,155.2,236.6,155.3,236.4,155.3L236.4,155.3z"/>
	<path class="st0" d="M241.1,152.5c0-0.1-0.1-0.2-0.1-0.3c0.1-0.1,0.2-0.1,0.4-0.2L241.1,152.5z"/>
	<path class="st0" d="M241.7,151.6c0.4-0.4,0.7-0.9,0.7-1.6c0,0-0.1-0.1-0.1-0.2c0.3,0.1,0.7,0.3,1,0.3c0.6,0,1.2-0.3,1.6-0.7
		c0.1,0.3,0.3,0.5,0.5,0.8c0,0,0,0-0.1,0c-0.9,0-1.5,0.5-2,1.1c-0.2-0.1-0.5-0.1-0.5-0.1L241.7,151.6z"/>
	<path class="st0" d="M245.5,147c-0.3-1-1.3-1.6-2.2-1.6c0,0-0.7,0.2-1.2,0.3l0,0c0.2-0.1,0.4-0.1,0.4-0.1s-0.1-0.1-0.1-0.1
		c0.3-0.1,0.5-0.3,0.7-0.5c0.2,0,1.5-0.6,1.5-0.6l-0.5,0.2l0.8,0.2c0.2,0,0.3,0,0.5-0.1c0.1,0.8,0.3,1.3,0.8,1.8
		C246,146.6,245.8,146.8,245.5,147L245.5,147z"/>
	<path class="st0" d="M252.8,138.7c-0.3-0.2-0.7-0.3-1-0.3c0,0,0,0,0,0c0.2,0.1,0.5,0.1,0.7,0.1c0,0,0.2-0.1,0.3-0.1
		C252.8,138.5,252.8,138.6,252.8,138.7L252.8,138.7z"/>
	<path class="st0" d="M251.6,134L251.6,134c0.1-0.3-0.1-0.4-0.1-0.6c0.2,0,0.3,0.2,0.5,0.2c0,0,0.3-0.1,0.5-0.1
		c0.1,0.1,0.2,0.3,0.3,0.4c-0.1,0-0.1,0-0.2,0C252.2,133.7,251.8,133.8,251.6,134L251.6,134z"/>
	<path class="st0" d="M254.1,134.5c0.1,0,0.2,0,0.3,0c0.2,0,0.5,0,0.6-0.1c-0.2,0.4-0.3,0.8-0.3,1.2
		C254.6,135.3,254.4,134.9,254.1,134.5L254.1,134.5z"/>
	<path class="st0" d="M208,245.9c0.1,0.2,0.2,0.4,0.3,0.5c-1,0.3-1.7,1.2-1.8,2.4c-0.7,0.3-1.3,0.9-1.4,1.8c-0.1-1-1-2-2-2.1
		c0.1-0.3,0.2-0.6,0.2-0.9c0,0-0.2-0.4-0.3-0.8c0.3-0.3,0.5-0.8,0.6-1.3c0.3,1.1,1.1,2,2.3,2C206.8,247.4,207.6,246.8,208,245.9
		L208,245.9z"/>
	<path class="st0" d="M248.2,157c-0.3-0.9-1.1-1.7-2.3-1.7c-1,0-1.9,0.8-2.2,1.7c-0.1-0.4-0.4-0.8-0.7-1.1c0.8,0,1.4-0.5,1.8-1.2
		c0.2,0.1,0.5,0.1,0.5,0.1c0.6,0,1.1-0.2,1.4-0.5c0.3,0.9,1.1,1.5,2.2,1.5C248.6,156.1,248.4,156.5,248.2,157L248.2,157z"/>
	<path class="st0" d="M240.2,168.6c0.2-0.1,0.5-0.3,0.6-0.5c0.2,0.2,0.4,0.4,0.7,0.6l0.2,0.1h0.3c-0.3,0.3-0.5,0.7-0.7,1.1
		c-0.1,0-0.2,0-0.2,0C240.9,169.4,240.6,168.9,240.2,168.6L240.2,168.6z"/>
	<path class="st0" d="M235.1,174.7c-0.5,0.3-0.8,0.7-1,1.2c-0.1-0.2-0.3-0.5-0.4-0.7c0.4-0.3,0.8-0.7,1-1.2
		C234.8,174.2,234.9,174.5,235.1,174.7L235.1,174.7z"/>
	<path class="st0" d="M231.3,178.4c0,0,0.1,0,0.1,0c0,0.1-0.1,0.3-0.1,0.3c0,0.4,0.1,0.7,0.2,1c-0.1,0-0.4,0-0.4,0s0.3,0.2,0.4,0.2
		c-0.6,0.4-1,0.9-1,1.8c0,0.1,0,0.3,0,0.5c-0.3-0.2-0.7-0.4-1.1-0.4c-0.5,0-0.9,0.1-1.2,0.3c-0.1-0.7-0.5-1.2-1-1.5
		c0.2-0.2,0.4-0.4,0.5-0.6c0.4,0.2,0.8,0.4,1.2,0.4C230.3,180.4,231.2,179.4,231.3,178.4L231.3,178.4z"/>
	<path class="st0" d="M238.9,182.2c0,1.2,1.1,2.3,2.3,2.3c1.5,0,2.4-1.2,2.4-2.3c0-0.7-0.3-1.3-0.7-1.8c0.5-0.4,0.7-1,0.7-1.7
		c0-0.9-0.5-1.7-1.3-2.2l-0.2-0.1h-0.2h-0.7c-1.2,0-2.3,1.1-2.3,2.3c0,0.7,0.3,1.3,0.7,1.7C239.2,180.9,238.9,181.4,238.9,182.2
		L238.9,182.2z"/>
	<path class="st0" d="M241.4,155.2l-0.2-0.2C241.3,155.1,241.3,155.2,241.4,155.2C241.4,155.2,241.4,155.2,241.4,155.2L241.4,155.2z
		"/>
	<path class="st0" d="M239.2,158.3c0.3,1,1.1,1.6,2,1.6l-0.3,0.6c-0.3-0.1-0.5-0.2-0.9-0.2c0,0-0.2,0.1-0.4,0.2
		c-0.1-0.6-0.3-1-0.8-1.5C239,158.9,239.1,158.6,239.2,158.3L239.2,158.3z"/>
	<path class="st0" d="M198,212.9c0,0.1,0.1,0.1,0.1,0.3c-0.3,0.3-0.6,0.7-0.8,1.2c-0.1-0.4-0.3-0.6-0.5-0.9c0.2-0.4,0.3-0.6,0.4-0.9
		c0.2,0.1,0.4,0.2,0.4,0.2c0.1,0,0.2,0,0.3-0.1C198,212.8,198,212.9,198,212.9L198,212.9z"/>
	<path class="st0" d="M196,216.8c-0.2,0.4-0.3,0.8-0.3,1.2l0,0c-0.5,0.2-1,0.5-1.3,1c0,0,0,0,0-0.1c0.5-0.5,0.9-1.1,0.9-1.7v-0.1
		C195.5,217.1,195.8,217,196,216.8L196,216.8z"/>
	<path class="st0" d="M194.4,221.2c0.4,0.7,1.2,1.2,2,1.2c-0.5,0.3-0.9,0.8-1,1.4c-0.3-0.9-1-1.5-1.9-1.7
		C193.8,221.8,194.2,221.5,194.4,221.2L194.4,221.2z"/>
	<path class="st0" d="M191.8,222.4c-0.5,0.3-1,0.8-1.1,1.4c-0.2-0.7-0.9-1.4-1.6-1.6c0.6-0.3,0.9-0.9,1.1-1.5
		C190.4,221.4,190.9,222.2,191.8,222.4L191.8,222.4z"/>
	<path class="st0" d="M187.3,222.3c-0.7,0.4-1.2,1.2-1.2,2c0,0,0,0,0,0c-0.1-0.9-0.7-1.6-1.4-2c0.6-0.3,1-0.8,1.3-1.5
		C186.2,221.4,186.7,222,187.3,222.3L187.3,222.3z"/>
	<path class="st0" d="M181.4,223.8c0,0.2-0.1,0.4-0.1,0.6c0,0.1,0,0.2,0,0.2l-0.2-0.6l0.2,0.3c0-0.3-0.2-0.5-0.3-0.8
		C181.2,223.6,181.3,223.8,181.4,223.8L181.4,223.8z"/>
	<path class="st0" d="M181.9,225.8c0.3,0.4,0.8,0.6,1.4,0.7c0,0,0,0.1,0,0.1c0,0.1,0.1,0.1,0.1,0.1c-0.2-0.1-0.4-0.3-0.6-0.3
		c-0.3,0-0.6,0.1-0.9,0.2c0.1-0.2,0.1-0.5,0.1-0.7L181.9,225.8z"/>
	<path class="st0" d="M180.5,229.9c0.3,0.8,1.1,1.3,2.1,1.3c0,0.1,0.1,0.3,0.2,0.6c-0.5,0.2-1,0.5-1.2,1c-0.4-0.9-1.2-1.4-2.1-1.4
		c-1.2,0-2.1,0.6-2.4,1.5c-0.1-0.1-0.1-0.2-0.1-0.3c0.2-0.5,0.8-1.5,0.8-1.5c0-0.1-0.1-0.1-0.1-0.2c0.2,0.1,0.3,0.3,0.6,0.3
		C179.3,231.2,180.1,230.7,180.5,229.9L180.5,229.9z"/>
	<path class="st0" d="M177.2,234.4c0.1,0.2,0.3,0.4,0.5,0.6c-0.1,0.4-0.4,1.2-0.4,1.2c0,0.6,0.3,1.1,0.6,1.5
		c-0.4,0.4-0.7,0.9-0.8,1.4c-0.1-0.6-0.4-1.1-0.9-1.4c0.2-0.5,0.5-0.9,0.5-0.9c0-0.5-0.2-0.9-0.5-1.3
		C176.6,235.3,176.9,234.9,177.2,234.4L177.2,234.4z"/>
	<path class="st0" d="M181.1,238c0.5-0.5,0.8-1.1,0.8-1.8c0,0-0.4-0.9-0.6-1.5c0-0.1,0.1-0.2,0.1-0.3c0.2,0.8,0.9,1.4,1.8,1.6
		c-0.1,0.2-0.1,0.5-0.1,0.7c0,0.2,0,0.3,0,0.5c-0.7,0.2-1.4,0.6-1.7,1.4C181.4,238.5,181.3,238.2,181.1,238L181.1,238z"/>
	<path class="st0" d="M181.6,240.6c0.3,0.8,1.1,1.5,2.2,1.5c0,0,0,0,0,0c-0.1,0.2-0.2,0.4-0.3,0.6c-0.8,0.2-1.5,0.6-1.9,1.2
		c-0.3-0.8-1.1-1.4-2.2-1.4c0-0.2,0.1-0.3,0.1-0.5C180.3,242,181.2,241.4,181.6,240.6L181.6,240.6z"/>
	<path class="st0" d="M177.2,245.8c0.3,0.9,1.1,1.4,1.9,1.6c-0.1,0.2-0.1,0.3-0.1,0.5s0,0.3,0,0.5c-1.1,0.1-2,1-2.2,2.1
		c-0.1-0.3-0.3-0.7-0.5-1c0.4-0.5,0.7-1.1,0.7-1.6c0-0.6-0.2-1.1-0.4-1.4C177,246.3,177.2,246.1,177.2,245.8L177.2,245.8z"/>
	<path class="st0" d="M183.8,248.4c0-0.2,0-0.3,0-0.5s0-0.3-0.1-0.5c0.1,0,0.1,0,0.2,0c1,0,1.7-0.9,2.1-1.8c0,0,0.1-0.1,0.1-0.1
		c0.2,0.6,0.5,1.1,0.9,1.4c-0.7,0.5-1,1.2-1,2c0,0,0.3,0.7,0.5,1.2c-0.1,0.2-0.1,0.2-0.1,0.3l0,0h0c-0.2-1.1-1.2-2-2.4-2
		C183.9,248.4,183.8,248.4,183.8,248.4L183.8,248.4z"/>
	<path class="st0" d="M189.6,247c0.3-0.3,0.6-0.6,0.8-1.1c0.1,0.3,0.3,0.5,0.5,0.7c-0.3,0.2-0.6,0.4-0.9,0.7
		C189.9,247.2,189.7,247.1,189.6,247L189.6,247z"/>
	<path class="st0" d="M193.4,247.3c0.7-0.3,1.2-0.8,1.5-1.4c0.3,0.9,1.2,1.5,2.2,1.5c0.5,0,1.1-0.3,1.5-0.6
		c-0.1,0.2-0.2,0.5-0.2,0.7c0,0.4,0.1,0.7,0.3,1c-0.2-0.1-0.3-0.1-0.6-0.1c-1.5,0-2.3,1.2-2.3,2.4c0,1.4,0.9,2.2,2.3,2.3
		c0,0.2,0.1,0.3,0.1,0.5c-0.1,0-0.3,0-0.3,0c-0.4-0.4-0.9-0.9-1.4-0.9c-0.7,0-1.3,0.3-1.7,0.9c-0.4,0-1.2,0-1.2,0l0.6,0.3
		c-0.5-0.8-1.3-1.2-2.2-1.2c-0.5,0-1,0.4-1.4,0.9c-0.1,0-1.4,0-1.5,0c-0.1-0.1-0.2-0.2-0.3-0.2c0-0.1,0-0.2,0-0.3
		c1.3-0.1,2.1-0.9,2.2-2.1c0.1,0,0.2,0,0.2,0.1c0.3,1.2,1.2,1.8,2.3,1.8c1.4,0,2.3-0.7,2.3-2.1c0-0.9-0.7-1.8-1.7-2.1
		C193.9,248.2,193.7,247.7,193.4,247.3L193.4,247.3z"/>
	<path class="st0" d="M200,249.7c0.2,0.1,0.4,0.1,0.7,0.1c-0.1,0.2-0.1,0.5-0.2,0.7c-0.1,0-0.2-0.1-0.2-0.1l0,0
		C200.2,250.2,200.2,250,200,249.7L200,249.7z"/>
	<path class="st0" d="M202,237.3c-0.3-0.1-0.5-0.2-0.9-0.2l0,0c0.2-0.3,0.3-0.7,0.3-1.1l0,0c0.2,0,0.4-0.1,0.6-0.1
		c-0.1,0.3-0.1,0.5-0.1,0.8C201.8,236.9,201.9,237.1,202,237.3L202,237.3z"/>
	<path class="st0" d="M203.5,232.8c-0.4-0.8-1.3-1.3-2.4-1.3c-0.9,0-1.8,0.7-2.1,1.8c-0.2-1-0.8-1.6-1.8-1.7
		c-0.1-0.3-0.1-0.5-0.3-0.8c0.4-0.2,0.8-0.5,1-1c0.4,0.9,1.3,1.4,2.2,1.4c1.1,0,1.8-0.5,2.2-1.4c0.4,0.8,1.2,1.4,2.3,1.4
		c0.9,0,1.8-0.5,2.2-1.4c0.3,0.7,1,1.2,1.8,1.3c-0.5,0.4-0.7,1-0.7,1.6c-0.4-0.9-1.3-1.3-2.2-1.3
		C204.6,231.5,203.8,231.9,203.5,232.8L203.5,232.8z"/>
	<path class="st0" d="M202.3,228c-0.3-0.8-1.1-1.4-2.2-1.4c-0.9,0-1.8,0.7-2.2,1.5c-0.3-0.5-0.7-0.9-1.2-1.1c0,0,0-0.1,0-0.1
		c0-0.1,0-0.2,0-0.3c0.3,0.1,0.6,0.2,0.9,0.2c1.2,0,2.2-0.7,2.4-1.6c0.3,1,1.3,1.6,2.3,1.6c1.1,0,1.9-0.5,2.2-1.5
		c0.2,1,1.2,1.9,2.3,1.9c0.2,0,0.5,0,0.7-0.1c-0.3,0.3-0.6,0.6-0.8,1c-0.4-0.9-1.2-1.5-2.2-1.5C203.6,226.5,202.7,227.1,202.3,228
		L202.3,228z"/>
	<path class="st0" d="M204.6,224c0-0.1-0.1-0.2-0.1-0.3c0.2-0.5,0.8-1.6,0.8-1.6c0-0.3,0-0.5-0.1-0.7h0c0.5,0,1-0.2,1.4-0.5
		c0.2,1.1,1.3,2,2.5,2c0.7,0,1.5-0.3,1.8-1c0,0,0,0,0,0h0c0,0,0.1-0.1,0.1-0.2c0.4,0.5,1.1,0.8,1.7,0.8c0.3,0,0.5,0,0.7-0.1
		c-0.5,0.4-0.8,1-0.8,1.8c-0.3-0.2-0.7-0.3-1.1-0.3c-1.2,0-2.4,1.1-2.4,2.3c0,0.1,0,0.2,0,0.3c-0.1,0-0.2,0-0.3,0
		c-0.2,0-0.5,0.1-0.7,0.1c0.6-0.5,1-1.1,1-1.9c0-1.5-1.2-2.4-2.4-2.4C205.9,222.4,204.9,223.1,204.6,224L204.6,224z"/>
	<path class="st0" d="M202.7,218.8c-0.3-0.7-1-1.1-2-1.1c-0.1,0-0.2,0-0.3,0c0-0.2-0.1-0.4-0.1-0.5c1-0.3,1.6-1.3,1.6-2.2
		c0,0,0-0.2,0-0.3c0,0,0,0,0.1,0c-0.1,0.1-0.1,0.2-0.1,0.3c0,1,0.8,1.9,1.6,2.2C203,217.6,202.7,218.2,202.7,218.8L202.7,218.8z"/>
	<path class="st0" d="M201,208.6c-0.5,0.5-0.7,1.1-0.7,1.8c0,0,0,0.1,0,0.1c-0.1,0-0.2,0-0.2,0c0,0,0-0.1,0-0.1
		c0-0.6-0.3-1.1-0.7-1.6c0.3-0.6,0.7-1.3,0.7-1.3s-0.1-0.2-0.1-0.3c0.1-0.1,0.3-0.1,0.3-0.2C200.3,207.6,200.5,208.2,201,208.6
		L201,208.6z"/>
	<path class="st0" d="M201.2,242.5c-0.9,0-1.7,0.6-2.1,1.4c-0.4-0.8-1.2-1.4-2.1-1.4c-1.1,0-1.9,0.6-2.2,1.4c-0.2-0.4-0.6-0.8-1.1-1
		c0-0.2,0.1-0.3,0.1-0.3c0-0.5-0.1-0.7-0.3-1c0.5-0.3,0.8-0.6,1.1-1.1c0.3,0.9,1.2,1.5,2.2,1.5c1.1,0,1.8-0.7,2.2-1.4
		c0.4,0.8,1.2,1.4,2.1,1.4c0.1,0,0.2,0,0.2-0.1C201.3,242.2,201.3,242.4,201.2,242.5L201.2,242.5z"/>
	<path class="st0" d="M189,242.6c-0.3-0.1-0.5-0.1-0.7-0.1c0,0-0.3,0.1-0.4,0.2c-0.1-0.3-0.3-0.5-0.5-0.7c0.3,0.1,0.5,0.1,0.7,0.1
		c0.4,0,0.8-0.1,1.1-0.2C189,242,189,242.3,189,242.6C189,242.6,189,242.6,189,242.6L189,242.6z"/>
	<path class="st0" d="M186.2,241.2c-0.2-0.1-0.4-0.1-0.6-0.1c0.1-0.1,0.2-0.3,0.3-0.5C186,240.8,186.1,241,186.2,241.2L186.2,241.2z
		"/>
	<path class="st0" d="M194.7,238.7c-0.3-0.8-1-1.4-1.8-1.5c0-0.1,0-0.2,0-0.3c0-0.3,0-0.5-0.1-0.7c0.9-0.1,1.6-0.9,1.9-1.7
		c0.1,0,0.2,0.1,0.2,0.1c0.3,0.8,0.9,1.4,1.7,1.5v0c0,0.4,0.1,0.8,0.3,1.1c-0.1,0-0.1,0-0.1,0C195.9,237.2,195.1,237.8,194.7,238.7
		L194.7,238.7z"/>
	<path class="st0" d="M188.1,236.9c0,0.1,0,0.2,0,0.3c0,0-0.1,0-0.1,0c0,0-0.1,0-0.1,0c0-0.1,0-0.2,0-0.3c0-0.3,0-0.5-0.1-0.7
		c0.1,0,0.2,0,0.2,0c0.1,0,0.2,0,0.3,0C188.2,236.4,188.1,236.6,188.1,236.9L188.1,236.9z"/>
	<path class="st0" d="M190.7,225c0.2,0.6,0.7,1,1.2,1.3c0,0,0,0.1,0,0.2c-0.1,0-0.3-0.1-0.4-0.1c-1,0-1.6,0.6-2,1.2c0,0-0.1,0-0.1,0
		s-0.3,0.1-0.5,0.1c-0.2-0.5-0.5-0.8-0.9-1c0-0.1,0-0.1,0-0.2c0.1,0,0.2,0,0.3,0C189.4,226.7,190.4,226.1,190.7,225L190.7,225z"/>
	<polygon class="st0" points="193.7,229.8 193.7,229.8 193.7,229.8 193.7,229.8 	"/>
	<path class="st0" d="M193.6,229.9c0.1,0,0.1,0.1,0.1,0.1c0,0,0,0.1,0,0.1c-0.5,0.3-0.9,0.7-1.1,1.4c0-0.1-0.2-0.1-0.2-0.1
		c-1.1,0-2,0.6-2.2,1.6c-0.1-0.3-0.2-0.5-0.3-0.7c0.6-0.2,1.1-0.6,1.4-1.2c0,0,0.1,0,0.1,0C192.3,231.2,193.2,230.7,193.6,229.9
		L193.6,229.9z"/>
	<path class="st0" d="M200.2,224c-0.1-1-1.2-1.9-2.3-2c0.3-0.3,0.6-0.5,0.8-0.9c0.4,0.6,1.1,1.1,1.8,1.2c0.1,0.1,0.2,0.3,0.3,0.6
		C200.6,223.3,200.4,223.7,200.2,224L200.2,224z"/>
	<path class="st0" d="M255.7,126c0-0.1,0.1-0.2,0.1-0.4c0-0.1-0.1-0.1-0.1-0.2c0.1,0,0.1,0.1,0.2,0.1c0.9,0,1.5-0.4,2-1
		c0.2,0.2,0.3,0.3,0.5,0.5c-0.8,0.1-1.3,0.5-1.7,1.1c-0.2,0-0.3-0.1-0.3-0.1C256,126,255.8,126,255.7,126L255.7,126z"/>
	<path class="st0" d="M265.7,120.6c-0.1,0-0.1,0-0.1,0c-0.1-0.3-0.2-0.5-0.4-0.9c0.3-0.4,0.5-0.8,0.5-1.2c0.1-0.1,0.3-0.1,0.3-0.2
		c-0.3,0.4-0.5,0.9-0.5,1.4C265.6,120,265.6,120.3,265.7,120.6L265.7,120.6z"/>
	<path class="st0" d="M277.3,109.6c-0.3-0.3-0.7-0.5-1.1-0.6c-0.1-0.4-0.2-0.8-0.5-1c0.2-0.1,0.3-0.2,0.5-0.3
		c0.2,0.1,0.9,0.3,0.9,0.3c0.1,0,0.3,0,0.4,0c-0.2,0.3-0.3,0.7-0.3,1.2C277.2,109.2,277.2,109.4,277.3,109.6L277.3,109.6z"/>
	<path class="st0" d="M293.2,91c0-0.1,0-0.1,0-0.1L293,91C293.1,91,293.1,91,293.2,91L293.2,91z"/>
	<path class="st0" d="M285.8,149.8c0,1.4,1.1,2.6,2.3,2.6c1.4,0,2.4-1.1,2.4-2.6c0-1.1-0.8-2.3-2.4-2.3
		C287,147.5,285.8,148.6,285.8,149.8L285.8,149.8z"/>
	<path class="st0" d="M288.1,116.9c0,1.2,1.1,2.3,2.4,2.3c1.5,0,2.4-1.2,2.4-2.3c0-1.4-1-2.3-2.4-2.3
		C289.3,114.5,288.1,115.4,288.1,116.9L288.1,116.9z"/>
	<path class="st0" d="M296.1,92.5c0,1.2,1.2,2.3,2.3,2.3c1.4,0,2.6-1.1,2.6-2.3c0-1.4-1-2.4-2.6-2.4C297.3,90.1,296.1,91,296.1,92.5
		L296.1,92.5z"/>
	<path class="st0" d="M266.4,133.7c0,1.3,1.2,2.3,2.6,2.3c0.7,0,1.5-0.5,1.9-1.1c0.4,0.6,1,1,1.7,1.1c-0.7,0.4-1,1.2-1,2.2
		c0,1.1,0.9,2.4,2.3,2.4c1.2,0,2.4-1.2,2.4-2.4s-0.9-2.3-2-2.5c0.3-0.2,0.6-0.4,0.8-0.7c0.4,0.5,1.1,0.9,1.8,0.9
		c1.3,0,2.4-1,2.5-2.3c0.4,0.2,0.7,0.3,1.1,0.3c1.4,0,2.4-0.9,2.4-2.3c0-1.1-0.9-2.3-2.4-2.3c-1.1,0-2.3,1-2.3,2.2
		c-0.4-0.3-0.9-0.4-1.3-0.4c-0.8,0-1.5,0.5-2,1.1c-0.5-0.5-1.2-0.9-1.9-0.9c-0.8,0-1.5,0.5-2,1.2c-0.4-0.7-1.2-1.2-1.9-1.2
		C267.5,131.1,266.4,132.2,266.4,133.7L266.4,133.7z"/>
	<path class="st0" d="M280.3,114c0,1.1,0.9,2.4,2.3,2.4c1.2,0,2.4-1.1,2.4-2.4c0-1.5-1.2-2.3-2.4-2.3
		C281.2,111.6,280.3,112.6,280.3,114L280.3,114z"/>
	<path class="st0" d="M279.7,119.9c0,1.4,1.2,2.6,2.6,2.6c1.1,0,2-0.8,2.3-1.9c0.3,1,1.1,1.5,2.2,1.5c1.2,0,2.4-0.9,2.4-2.3
		c0-1.2-1.1-2.3-2.4-2.3c-1.2,0-2.1,0.9-2.3,1.8c-0.3-0.9-1.3-1.6-2.2-1.6C280.9,117.6,279.7,118.7,279.7,119.9L279.7,119.9z"/>
	<path class="st0" d="M281.7,127.5c0,1.5,1.2,2.4,2.4,2.4c1.4,0,2.3-0.9,2.3-2.4c0-1.1-0.9-2.3-2.3-2.3
		C282.9,125.2,281.7,126.3,281.7,127.5L281.7,127.5z"/>
	<path class="st0" d="M276.2,141.4c0,1.5,1,2.6,2.4,2.6c1.2,0,2.3-1.2,2.3-2.6c0-0.4-0.1-0.8-0.3-1.1c0.1,0,0.2,0,0.3,0
		c1.1,0,1.8-0.6,2.2-1.4c0.1,1.1,1.2,2.2,2.4,2.2c1.4,0,2.5-1.1,2.5-2.4c0-1.4-1.1-2.3-2.5-2.3c-0.9,0-1.8,0.5-2.2,1.4
		c0-1.4-1-2.4-2.3-2.4c-1.3,0-2.4,1.2-2.4,2.6c0,0.4,0.1,0.8,0.3,1.1c-0.1,0-0.2,0-0.2,0C277.1,139.1,276.2,140.3,276.2,141.4
		L276.2,141.4z"/>
	<path class="st0" d="M293,152.7c0,1.4,0.9,2.3,2.3,2.3c1.1,0,2.4-0.9,2.4-2.3c0-1.2-1.1-2.3-2.4-2.3
		C293.9,150.3,293,151.5,293,152.7L293,152.7z"/>
	<path class="st0" d="M273.3,153.1c0,1.5,1.2,2.3,2.4,2.3c1.4,0,2.4-0.9,2.4-2.3c0-1.1-0.9-2.3-2.4-2.3
		C274.5,150.8,273.3,151.9,273.3,153.1L273.3,153.1z"/>
	<path class="st0" d="M286.2,132.6c0,1.5,1.2,2.3,2.4,2.3c1.4,0,2.3-0.9,2.3-2.3c0-1.1-0.9-2.4-2.3-2.4
		C287.4,130.3,286.2,131.4,286.2,132.6L286.2,132.6z"/>
	<path class="st0" d="M289.5,136.7c0,1.1,0.5,1.9,1.4,2.2c-0.3,0.4-0.6,1-0.6,1.5c0,1.5,1.2,2.3,2.3,2.3c1.4,0,2.4-0.9,2.4-2.3
		c0-0.9-0.5-1.8-1.4-2.1c0.3-0.4,0.5-0.9,0.5-1.6c0-1.2-1.1-2.4-2.3-2.4C290.4,134.4,289.5,135.6,289.5,136.7L289.5,136.7z"/>
	<path class="st0" d="M286.9,126c0,1.2,1.1,2.4,2.4,2.4c1.5,0,2.4-1.2,2.4-2.4c0-1.4-0.9-2.3-2.4-2.3
		C288.1,123.7,286.9,124.6,286.9,126L286.9,126z"/>
	<path class="st0" d="M273.5,126.7c0,1.2,1.1,2.4,2.3,2.4c1.5,0,2.4-1.2,2.4-2.4c0-1.4-0.9-2.3-2.4-2.3
		C274.7,124.3,273.5,125.2,273.5,126.7L273.5,126.7z"/>
	<path class="st0" d="M292.6,122.5c0,1.4,1.2,2.5,2.6,2.5c1.2,0,2.3-1.1,2.3-2.3c0-1.5-1.2-2.4-2.3-2.4
		C293.8,120.2,292.9,121,292.6,122.5L292.6,122.5z"/>
	<path class="st0" d="M294.9,135.7c0,1.5,1.2,2.3,2.3,2.3c1.4,0,2.4-0.9,2.4-2.3c0-1.2-0.9-2.3-2.4-2.3
		C296,133.4,294.9,134.5,294.9,135.7L294.9,135.7z"/>
	<path class="st0" d="M265.3,149.4c0,1.5,1.2,2.4,2.4,2.4c1.4,0,2.3-1,2.3-2.4c0-1.1-0.9-2.3-2.3-2.3
		C266.5,147.1,265.3,148.2,265.3,149.4L265.3,149.4z"/>
	<path class="st0" d="M269.4,143.1c0,1.2,1.2,2.3,2.4,2.3c1.4,0,2.3-1.1,2.3-2.3c0-1.4-0.9-2.3-2.3-2.3c-0.3,0-0.5,0.1-0.8,0.1
		c0-0.1,0.1-0.3,0.1-0.4c0-1.2-1.2-2.3-2.6-2.3c-1.2,0-2.4,1.1-2.4,2.3c0,1.5,1.2,2.3,2.4,2.3c0.3,0,0.7-0.1,0.9-0.1
		C269.5,142.7,269.4,142.9,269.4,143.1L269.4,143.1z"/>
	<path class="st0" d="M290.3,146.3c0,1.2,1.1,2.3,2.3,2.3c1.5,0,2.4-1.2,2.4-2.3c0-1.5-1-2.5-2.4-2.5
		C291.4,143.8,290.3,145,290.3,146.3L290.3,146.3z"/>
	<path class="st0" d="M278.5,147c0,1.2,1.1,2.3,2.4,2.3c1.5,0,2.3-1.2,2.3-2.3c0-1.4-0.9-2.3-2.3-2.3
		C279.6,144.6,278.5,145.5,278.5,147L278.5,147z"/>
	<path class="st0" d="M271.5,147.6c0,1.1,0.9,2.3,2.3,2.3c1.2,0,2.4-1.1,2.4-2.3c0-1.5-1.2-2.3-2.4-2.3
		C272.4,145.2,271.5,146.1,271.5,147.6L271.5,147.6z"/>
	<path class="st0" d="M258,150c0,1.4,1.1,2.6,2.5,2.6c1.3,0,2.4-1.2,2.4-2.6c0-1.2-1.2-2.3-2.4-2.3C259.2,147.7,258,148.8,258,150
		L258,150z"/>
	<path class="st0" d="M280.1,154.5c0,0.8,0.3,1.5,0.8,2c-1.1,0.1-2,1.2-2,2.3c0,1.4,1.1,2.6,2.4,2.6c1.4,0,2.6-1.1,2.6-2.6
		c0-0.7-0.4-1.3-0.9-1.8c1.1-0.2,2-1.3,2-2.5c0-1.2-1.2-2.4-2.4-2.4C281,152.2,280.1,153.4,280.1,154.5L280.1,154.5z"/>
	<path class="st0" d="M262.7,144.9c0,1.4,1.1,2.4,2.6,2.4c1.1,0,2.3-0.9,2.3-2.4c0-1.2-1.1-2.4-2.3-2.4
		C263.9,142.5,262.7,143.7,262.7,144.9L262.7,144.9z"/>
	<path class="st0" d="M209.9,185.8c-0.2,0.2-0.3,0.4-0.4,0.7c-0.4-0.5-1-0.9-1.8-0.9c0,0-0.1,0-0.1,0c0.1-0.1,0.2-0.3,0.4-0.3
		c0.5-0.2,0.9,0.6,1.5,0.6C209.6,185.8,209.8,185.8,209.9,185.8L209.9,185.8z"/>
	<path class="st0" d="M207.3,192.5c0.3,0.2,0.7,0.3,1.2,0.3c0,0,0.1,0,0.1,0c0.1,0.2,0.1,0.4,0.2,0.6c-0.6,0.3-1.1,0.7-1.3,1.3
		c-0.1-0.4-0.3-0.7-0.7-0.9C207,193.2,207.3,192.6,207.3,192.5L207.3,192.5z"/>
	<path class="st0" d="M210.8,200.4c0.1,0,0.1,0,0.1,0c0.1,1.3,0.9,2.1,2.3,2.1c1,0,1.9-0.6,2.2-1.6c0.3,1,1.2,1.6,2.4,1.6
		c0,0.2-0.1,0.3-0.1,0.6c0,0,0,0.1,0,0.1c-0.4-0.1-0.8-0.3-1.2-0.3c-1,0-1.9,0.8-2.2,1.8c-0.2-0.9-1.1-1.8-2.3-1.8
		c-1,0-2,0.9-2.2,1.8c-0.2-0.4-0.5-0.7-0.7-0.9c0.1-0.3,0.2-0.6,0.2-0.6s-0.2-0.5-0.4-0.9h1.1c0,0-0.3-0.2-0.4-0.2
		C210.3,201.7,210.8,201.2,210.8,200.4L210.8,200.4z"/>
	<path class="st0" d="M241.8,186.3c0,1.5,0.9,2.4,2.4,2.4c1.1,0,2.3-0.9,2.3-2.4c0-1.2-1.1-2.3-2.3-2.3
		C242.6,183.9,241.8,185.1,241.8,186.3L241.8,186.3z"/>
	<path class="st0" d="M222.6,192.7c0,0.1,0.1,0.4,0.1,0.6c-0.7,0.3-1.3,0.7-1.5,1.4c-0.3-1-1.3-1.6-2.2-1.6c-0.2,0-0.4,0-0.5,0
		c0-0.1-0.1-0.3-0.1-0.5c0.5-0.2,0.9-0.6,1.1-1.1c0.1,0,0.6,0.2,0.6,0.2s0.1,0,0.1-0.1c0.4,0.7,1.1,1.2,1.9,1.2
		C222.2,192.7,222.4,192.7,222.6,192.7L222.6,192.7z"/>
	<path class="st0" d="M218.6,197.6c0.1,0,0.2,0,0.3,0c1,0,1.9-0.8,2.2-1.7c0.3,0.9,1,1.7,2.2,1.7l0,0c0,0.1-0.1,0.2-0.1,0.4
		c-0.3-0.1-0.6-0.2-1-0.2c-1,0-2,0.8-2.2,1.8c-0.3-0.7-0.9-1.3-1.6-1.5C218.6,198,218.6,197.7,218.6,197.6
		C218.6,197.7,218.6,197.7,218.6,197.6L218.6,197.6z"/>
	<path class="st0" d="M213.8,192.6c-0.1,0.1-0.1,0.3-0.1,0.5c0,0,0,0.1,0,0.1c-0.7,0.2-1.4,0.7-1.7,1.2c-0.1-0.2-0.2-0.3-0.3-0.5
		c0.5-0.2,0.8-0.7,1-1.2c0.1,0,0.2,0,0.2,0C213.3,192.7,213.5,192.7,213.8,192.6L213.8,192.6z"/>
	<path class="st0" d="M241.9,194.4h-0.8c0,0,0,0.2,0,0.3c-0.9,0.4-1.6,1.1-1.6,2c0,0.7,0.3,1.2,0.8,1.7c-0.3-0.1-0.5-0.1-0.7-0.1
		c-1.5,0-2.4,1.2-2.4,2.3c0,1.4,1,2.3,2.4,2.3c1.1,0,2.3-0.9,2.3-2.3c0-0.5-0.2-1-0.5-1.3c0.1,0,0.3,0,0.3,0c0.1,0,0.8,0.2,0.8,0.2
		s0-0.3,0-0.5c0.9-0.3,1.6-1.1,1.6-2.3c0-0.9-0.7-1.7-1.6-2c0-0.1,0-0.3,0-0.3H241.9z"/>
	<path class="st0" d="M242.6,205.5c0,0,0.1,0.3,0.1,0.5c-0.7,0.2-1.3,0.6-1.5,1.3l-0.1,0.1v0v0.1l-0.1,0.2l-0.1,0.4l0.2,0.6l0,0
		c0.4,1.2,1.3,1.8,2.4,1.8c1.2,0,2.4-0.9,2.4-2.4c0,0-0.1-0.3-0.2-0.4c0.9-0.4,1.6-1.2,1.6-2.2c0-1.2-1.1-2.4-2.4-2.4
		C243.5,203.2,242.6,204.4,242.6,205.5L242.6,205.5z"/>
	<path class="st0" d="M238.3,222.7c0,1.5,1,2.6,2.4,2.6l1.7-0.8l0.6-1.7l-0.6-1.5l-1.7-0.8C239.2,220.4,238.3,221.6,238.3,222.7
		L238.3,222.7z"/>
	<path class="st0" d="M241.7,229c-1.2,0-2.4,1.1-2.4,2.3c0,1.4,1.1,2.6,2.4,2.6h0.1l0.3-0.1c1.2-0.3,2-1.3,2-2.6c0-1.1-0.8-2-2-2.3
		L242,229H241.7z"/>
	<path class="st0" d="M243.2,215.8c0,1.2,1.1,2.4,2.3,2.4c1.5,0,2.4-1.2,2.4-2.4c0-1.4-0.9-2.4-2.4-2.4
		C244.4,213.4,243.2,214.3,243.2,215.8L243.2,215.8z"/>
	<path class="st0" d="M242.8,238.5c0,1.4,1,2.3,2.4,2.3c0.7,0,1.4-0.3,1.8-0.9c-0.1,0.2-0.1,0.5-0.1,0.8c0,1.2,0.9,2.4,2.3,2.4
		c1.2,0,2.4-1.2,2.4-2.4c0-1.3-1.1-2.5-2.4-2.5c-0.7,0-1.4,0.3-1.8,0.9c0-0.2,0.1-0.3,0.1-0.6c0-1.2-1.1-2.4-2.3-2.4
		C243.7,236.1,242.8,237.4,242.8,238.5L242.8,238.5z"/>
	<path class="st0" d="M243,226.7c0,1.4,1.1,2.6,2.4,2.6c1.4,0,2.4-1.1,2.4-2.6c0-1.2-0.9-2.4-2.4-2.4
		C244.1,224.3,243,225.4,243,226.7L243,226.7z"/>
	<path class="st0" d="M241.6,251.4c0,1.4,0.9,2.4,2.4,2.4c1.1,0,2.3-0.9,2.3-2.4c0-1.2-1.1-2.4-2.3-2.4
		C242.4,249,241.6,250.3,241.6,251.4L241.6,251.4z"/>
	<path class="st0" d="M247.6,197.4c-0.4-0.2-0.9-0.3-1.4-0.3c-1.2,0-2.4,0.9-2.4,2.4c0,1.2,1.1,2.4,2.4,2.4c0.8,0,1.3-0.3,1.8-0.9
		c0.1,0.1,0.3,0.1,0.5,0.2c0,0-0.1,0.1-0.1,0.1c0,0.9,0.4,1.6,1,2c-0.9,0.3-1.6,1.3-1.6,2.3c0,0.6,0.2,1.1,0.5,1.6
		c-1.1,0.3-1.8,1.3-1.8,2.3c0,1.4,0.9,2.4,2.3,2.4c1.2,0,2.4-0.9,2.4-2.4c0-0.5-0.2-1-0.6-1.4c1.1-0.3,1.8-1.2,1.8-2.5
		c0-0.7-0.3-1.4-0.9-1.9c0.9-0.3,1.5-1.2,1.5-2.4c0-0.9-0.6-1.6-1.5-2c0.1-0.1,0.1-0.3,0.1-0.3c0-1.4-1.2-2.3-2.4-2.3
		C248.5,196.6,248,196.9,247.6,197.4L247.6,197.4z"/>
	<path class="st0" d="M211.1,189.3c-0.1,0.1-0.1,0.2-0.1,0.4c0,0-0.2-0.1-0.2-0.1s-0.1,0-0.1,0.1c-0.2-0.5-0.4-0.8-0.8-1.1
		c0.1,0,0.1-0.1,0.1-0.1C210.2,188.9,210.6,189.2,211.1,189.3L211.1,189.3z"/>
	<path class="st0" d="M207.8,238.8c-0.3-0.6-0.8-1-1.3-1.3c0.1-0.3,0.3-0.6,0.3-0.9c0,0-0.2-0.4-0.4-0.9c0.9-0.3,1.6-1,1.6-1.9
		c0.1,0.2,0.3,0.5,0.5,0.7c-0.8,0.4-1.2,1.1-1.2,2c0,0.7,0.4,1.2,0.9,1.6C208,238.4,207.9,238.6,207.8,238.8L207.8,238.8z"/>
	<path class="st0" d="M211.4,234.9c0.5-0.3,0.8-0.8,1-1.3c0.4,0.5,1.1,0.9,1.9,0.9h0c-0.1,0.2-0.1,0.5-0.1,0.7c0,0.9,0.4,1.6,1,2.1
		c-0.2-0.1-0.5-0.1-0.7-0.1c-1.1,0-2,0.7-2.4,1.6c-0.2-0.3-0.4-0.6-0.6-0.9c0.3-0.5,0.6-1.2,0.6-1.2
		C212.1,236,211.8,235.3,211.4,234.9L211.4,234.9z"/>
	<path class="st0" d="M212,231.5c-0.4-0.4-0.9-0.7-1.4-0.8c0.5-0.4,0.7-1,0.7-1.8c0-0.1,0-0.2,0-0.3c0.1,0,0.2,0.1,0.3,0.1
		c1.4,0,2.3-0.9,2.4-2.4c0.3,0.2,0.7,0.3,1.1,0.3c0.4,0,0.8-0.1,1.2-0.4c0,0.1,0.1,0.3,0.1,0.4c0,0-0.1,0-0.1,0
		c-1.2,0-2.4,0.9-2.4,2.4c0,0.3,0,0.5,0.1,0.7C213,229.7,212.2,230.4,212,231.5L212,231.5z"/>
	<path class="st0" d="M219.1,235.2c0,1.4,1.1,2.6,2.3,2.6c1.4,0,2.6-1.2,2.6-2.6c0-0.4-0.1-0.8-0.3-1.2c1-0.2,2-1.2,2-2.3
		c0-1.4-1.1-2.5-2.4-2.5c-1.4,0-2.4,1.1-2.4,2.5c0,0.4,0.1,0.8,0.3,1.2C220,233,219.1,234.1,219.1,235.2L219.1,235.2z"/>
	<path class="st0" d="M226.2,233c0,0.1,0,0.1,0,0.1c-1.2,0.1-2.2,1.2-2.2,2.4c0,1.4,1.1,2.5,2.6,2.5c1.2,0,2.4-1.2,2.4-2.5
		c0-0.1,0-0.1,0-0.2c1.1-0.1,1.7-0.9,2-1.7c0.2,0.2,0.3,0.3,0.5,0.4c-0.7,0.5-1.2,1.3-1.2,2.3c0,1.2,1.1,2.3,2.3,2.3
		c1.2,0,2.4-1.1,2.4-2.3c0-1-0.5-1.8-1.3-2.2c0.7-0.4,1.3-1.2,1.3-2.1c0-1.4-1.1-2.6-2.4-2.6c-1,0-1.9,0.8-2.2,1.8
		c-0.4-0.3-1-0.6-1.6-0.6C227.4,230.6,226.2,231.5,226.2,233L226.2,233z"/>
	<path class="st0" d="M234,229.1c0,1.1,0.9,2.3,2.4,2.3c1.2,0,2.4-1.1,2.4-2.3c0-1-0.6-1.8-1.3-2.1c0.5-0.5,0.9-1.1,0.9-1.8
		c0-1.2-1.2-2.3-2.4-2.3c-1.4,0-2.3,1.2-2.3,2.3c0,0.8,0.4,1.6,1.2,2.1C234.3,227.7,234,228.3,234,229.1L234,229.1z"/>
	<path class="st0" d="M236.7,239.5c0,1.4,1.1,2.6,2.5,2.6c1.3,0,2.4-1.2,2.4-2.6c0-1.2-1.2-2.4-2.4-2.4
		C237.8,237.2,236.7,238.3,236.7,239.5L236.7,239.5z"/>
	<path class="st0" d="M227.9,207.5c-0.1,0-0.2,0-0.4,0c-0.7,0-1.2,0.3-1.7,0.7c0.1-0.2,0.1-0.3,0.1-0.5c0.7,0,1.4-0.4,1.9-1
		c0,0.1,0,0.2,0,0.3C227.9,207.2,227.9,207.3,227.9,207.5L227.9,207.5z"/>
	<path class="st0" d="M229.9,242.6c0,1.4,1,2.4,2.4,2.4c1.2,0,2.4-0.9,2.4-2.4c0-1.2-1.1-2.4-2.4-2.4
		C230.8,240.2,229.9,241.4,229.9,242.6L229.9,242.6z"/>
	<path class="st0" d="M212.3,245.8c0.1,0.2,0.3,0.5,0.5,0.6c-0.3,0.5-0.5,1.1-0.5,1.1c0,0.3,0.1,0.7,0.1,0.9c-0.1,0-0.2,0-0.3,0
		c-0.3,0-0.7,0.1-0.9,0.2c-0.1-0.5-0.3-0.9-0.6-1.3C211.4,247.1,212,246.5,212.3,245.8L212.3,245.8z"/>
	<path class="st0" d="M209.7,251.3c0.2,1.1,1.2,1.9,2.5,1.9c1,0,2-0.6,2.3-1.7c0.3,1.1,1.3,1.7,2.2,1.7c0.2,0,0.3-0.1,0.5-0.1
		c-0.2,0.2-0.4,0.3-0.5,0.5c-0.4,0-1.2,0-1.2,0c-0.5-0.6-0.7-0.9-1.6-0.9c-0.6,0-1,0.4-1.4,0.9c-0.1,0-1.4,0-1.5,0
		c-0.4-0.4-0.9-0.9-1.4-0.9c-0.7,0-1.3,0.3-1.7,0.9c-0.1,0-0.1,0-0.2,0c0.1-0.2,0.1-0.4,0.1-0.6
		C208.7,252.9,209.4,252.3,209.7,251.3L209.7,251.3z"/>
	<path class="st0" d="M223.6,241.6c0,1.2,1.1,2.3,2.3,2.3c1.4,0,2.6-1.1,2.6-2.3c0-1.4-1.1-2.3-2.6-2.3
		C224.8,239.3,223.6,240.1,223.6,241.6L223.6,241.6z"/>
	<path class="st0" d="M220.5,250.4c0,1.2,0.9,2.4,2.4,2.4c1.2,0,2.4-1.2,2.4-2.4c0-1.5-1.2-2.4-2.4-2.4
		C221.4,248,220.5,249,220.5,250.4L220.5,250.4z"/>
	<path class="st0" d="M234.4,246.7c0,1.5,1.1,2.4,2.3,2.4c1.2,0,2.4-0.9,2.4-2.4c0-1.2-1.2-2.3-2.4-2.3
		C235.6,244.4,234.4,245.5,234.4,246.7L234.4,246.7z"/>
	<path class="st0" d="M225.8,247.1c0,1.4,0.9,2.4,2.3,2.4c1.2,0,2.4-0.9,2.4-2.4c0-1.2-1.1-2.4-2.4-2.4
		C226.7,244.8,225.8,246,225.8,247.1L225.8,247.1z"/>
	<path class="st0" d="M220.5,216.4c0,1.2,0.9,2.4,2.4,2.4c1.2,0,2.4-1.2,2.4-2.4c0-1.5-1.2-2.4-2.4-2.4
		C221.4,214,220.5,215,220.5,216.4L220.5,216.4z"/>
	<path class="st0" d="M229.5,222.1c0,1.4,1,2.4,2.4,2.4c1.1,0,2.3-0.9,2.3-2.4c0-1.2-1.1-2.3-2.3-2.3
		C230.4,219.8,229.5,221,229.5,222.1L229.5,222.1z"/>
	<path class="st0" d="M231.6,216.8c0,1.5,1.2,2.4,2.4,2.4c1.5,0,2.5-1,2.5-2.4c0-1.2-1.2-2.4-2.5-2.4
		C232.7,214.4,231.6,215.6,231.6,216.8L231.6,216.8z"/>
	<path class="st0" d="M237.5,214.3c0,1.5,1,2.5,2.4,2.5c1.2,0,2.3-1.2,2.3-2.5c0-1.2-1.1-2.4-2.3-2.4
		C238.4,212,237.5,213.1,237.5,214.3L237.5,214.3z"/>
	<path class="st0" d="M248.3,175.2c0,1.2,1.2,2.3,2.4,2.3c1.2,0,2.3-1.2,2.3-2.3c0-1.5-1.2-2.3-2.3-2.3
		C249.5,172.9,248.3,173.8,248.3,175.2L248.3,175.2z"/>
	<path class="st0" d="M280.3,176.3c0,1.4,0.9,2.3,2.3,2.3c1.2,0,2.4-0.9,2.4-2.3c0-1.2-1.2-2.3-2.4-2.3
		C281.2,173.9,280.3,175.1,280.3,176.3L280.3,176.3z"/>
	<path class="st0" d="M259.8,177.5c0,1.2,1.2,2.3,2.4,2.3c1.4,0,2.4-1.2,2.4-2.3c0-1.5-1-2.6-2.4-2.6
		C260.9,174.9,259.8,176.1,259.8,177.5L259.8,177.5z"/>
	<path class="st0" d="M359.8,177.1c0,1.2,1.1,2.3,2.4,2.3c1.4,0,2.3-1.2,2.3-2.3c0-1.4-0.9-2.3-2.3-2.3
		C361,174.7,359.8,175.6,359.8,177.1L359.8,177.1z"/>
	<path class="st0" d="M345.6,204.5c0,1.2,1.2,2.3,2.4,2.3c1.5,0,2.4-1.2,2.4-2.3c0-1.2-0.9-2.4-2.4-2.4
		C346.8,202.1,345.6,203.3,345.6,204.5L345.6,204.5z"/>
	<path class="st0" d="M314.1,242.8c0,1.2,1.1,2.4,2.4,2.4c1.5,0,2.4-1.2,2.4-2.4c0-1.4-0.9-2.4-2.4-2.4
		C315.3,240.4,314.1,241.4,314.1,242.8L314.1,242.8z"/>
	<path class="st0" d="M287.2,247.3c0,1.2,1.2,2.3,2.4,2.3c1.3,0,2.5-1.1,2.5-2.3c0-1.4-1.1-2.6-2.5-2.6
		C288.3,244.8,287.2,246,287.2,247.3L287.2,247.3z"/>
	<path class="st0" d="M304.9,240.6c0,1.1,0.9,2.3,2.3,2.3c1.2,0,2.4-1.1,2.4-2.3c0-1.5-1.2-2.3-2.4-2.3
		C305.8,238.2,304.9,239.1,304.9,240.6L304.9,240.6z"/>
	<path class="st0" d="M277.6,244.2c0,1.5,1.2,2.4,2.4,2.4c1.4,0,2.3-0.9,2.3-2.4c0-1.2-0.8-2.4-2.3-2.4
		C278.8,241.9,277.6,243.1,277.6,244.2L277.6,244.2z"/>
	<path class="st0" d="M297.1,158.6c0,1.5,1,2.5,2.4,2.5c1.2,0,2.3-1.2,2.3-2.5c0-1.2-1.1-2.3-2.3-2.3
		C298,156.3,297.1,157.5,297.1,158.6L297.1,158.6z"/>
	<path class="st0" d="M285,168.5c0,1.1,0.9,2.3,2.3,2.3c1.2,0,2.4-1.2,2.4-2.3c0-1.5-1.2-2.4-2.4-2.4C285.9,166.1,285,167,285,168.5
		L285,168.5z"/>
	<path class="st0" d="M299.7,181.6c0,1.2,1.2,2.3,2.4,2.3c1.4,0,2.3-1.2,2.3-2.3c0-1.4-0.9-2.4-2.3-2.4
		C301,179.2,299.7,180.1,299.7,181.6L299.7,181.6z"/>
	<path class="st0" d="M326.4,196.1c0,1.4,1.1,2.4,2.6,2.4c1.1,0,2.4-0.9,2.4-2.4c0-1.2-1.2-2.4-2.4-2.4
		C327.6,193.7,326.4,194.9,326.4,196.1L326.4,196.1z"/>
	<path class="st0" d="M322.3,204.8c0.2,1.1,1.2,1.8,2.5,1.8c1.2,0,2.4-0.9,2.4-2.4c0-1.2-1.2-2.4-2.4-2.4c-0.9,0-1.8,0.5-2.2,1.2
		c-0.2-1.2-1.3-1.8-2.3-1.8c-1.5,0-2.6,1-2.6,2.4c0,1.2,1.2,2.4,2.6,2.4C321.1,206.1,321.9,205.5,322.3,204.8L322.3,204.8z"/>
	<path class="st0" d="M280.3,206.1c0,1.2,0.9,2.4,2.3,2.4c1.2,0,2.4-1.1,2.4-2.4c0-1.4-1.1-2.5-2.4-2.5
		C281.3,203.6,280.3,204.6,280.3,206.1L280.3,206.1z"/>
	<path class="st0" d="M257.5,213.3c0,1.4,1.2,2.3,2.4,2.3c1.5,0,2.6-1,2.6-2.3c0-0.7-0.3-1.2-0.8-1.7c0.9-0.3,1.6-1.1,1.6-2.2
		c0-1.2-1.1-2.3-2.3-2.3c-1.4,0-2.6,1.1-2.6,2.3c0,0.7,0.3,1.3,0.7,1.7C258.3,211.5,257.5,212.4,257.5,213.3L257.5,213.3z"/>
	<path class="st0" d="M257.1,184.4C257.1,184.5,257.1,184.5,257.1,184.4c-0.5-0.3-1.1-0.5-1.7-0.5c-1.2,0-2.4,0.9-2.4,2.3
		c0,1.2,1.2,2.4,2.4,2.4c1.3,0,2.5-1.1,2.6-2.3c0.4,0.4,1,0.7,1.5,0.7c1.4,0,2.4-1.1,2.4-2.6c0-1.1-0.9-2.3-2.4-2.3
		C258.3,182.1,257.1,183.2,257.1,184.4L257.1,184.4z"/>
	<path class="st0" d="M262.3,187.9c0,1.3,1.1,2.3,2.6,2.3c1.2,0,2.3-0.9,2.3-2.3c0-1.2-1.1-2.4-2.3-2.4
		C263.4,185.6,262.3,186.7,262.3,187.9L262.3,187.9z"/>
	<path class="st0" d="M285.6,194.9c0,1.2,1.1,2.3,2.3,2.3c1.2,0,2.4-1.1,2.4-2.3c0-1.5-1.2-2.3-2.4-2.3
		C286.8,192.6,285.6,193.4,285.6,194.9L285.6,194.9z"/>
	<path class="st0" d="M296.7,217c0,1.4,1.1,2.3,2.6,2.3c1.2,0,2.4-0.8,2.4-2.3c0-1.2-1.1-2.3-2.4-2.3
		C297.9,214.7,296.7,215.8,296.7,217L296.7,217z"/>
	<path class="st0" d="M310.8,217.4c0,1.4,0.9,2.4,2.4,2.4c1.1,0,2.3-0.9,2.3-2.4c0-1.2-1.1-2.4-2.3-2.4
		C311.7,215,310.8,216.3,310.8,217.4L310.8,217.4z"/>
	<path class="st0" d="M333.1,205.7c0,1.3,1.1,2.5,2.4,2.5c1.4,0,2.4-1.1,2.4-2.5c0-1.2-0.9-2.4-2.4-2.4
		C334.3,203.4,333.1,204.5,333.1,205.7L333.1,205.7z"/>
	<path class="st0" d="M356.3,192.6c0,1.4,1.1,2.6,2.6,2.6c1.2,0,2.4-1.2,2.4-2.6c0-1.2-1.1-2.4-2.4-2.4
		C357.5,190.3,356.3,191.4,356.3,192.6L356.3,192.6z"/>
	<path class="st0" d="M295.4,171.1c0,1.4,1.1,2.6,2.4,2.6c1.4,0,2.3-1.1,2.3-2.6c0-1.1-0.9-2.3-2.3-2.3
		C296.6,168.8,295.4,169.9,295.4,171.1L295.4,171.1z"/>
	<path class="st0" d="M254.1,191c0,1.2,1.2,2.4,2.6,2.4c1.2,0,2.3-1.1,2.3-2.4c0-1.5-1.2-2.3-2.3-2.3
		C255.1,188.6,254.1,189.6,254.1,191L254.1,191z"/>
	<path class="st0" d="M253.5,209.6c0,1.4,1.1,2.6,2.3,2.6c1.4,0,2.6-1.1,2.6-2.6c0-1.2-1.2-2.4-2.6-2.4
		C254.6,207.2,253.5,208.4,253.5,209.6L253.5,209.6z"/>
	<path class="st0" d="M277.6,181.6c0,1.2,1.1,2.3,2.4,2.3c1.5,0,2.3-1.2,2.3-2.3c0-1.4-0.9-2.4-2.3-2.4
		C278.8,179.2,277.6,180.1,277.6,181.6L277.6,181.6z"/>
	<path class="st0" d="M292,161c0-0.1-0.2-0.3-0.2-0.3s0,0.5,0,0.7c0,0-0.1,0.1-0.1,0.1c-0.3-0.1-0.6-0.3-0.9-0.3
		c-0.7,0-1.2,0.2-1.7,0.6c0.2-0.3,0.3-0.8,0.3-1.2c0-1.4-1.2-2.3-2.4-2.3c-1.4,0-2.3,1-2.3,2.3c0,1.2,0.9,2.4,2.3,2.4
		c0.6,0,1.1-0.3,1.5-0.6c-0.3,0.4-0.4,0.8-0.4,1.3c0,1.3,1.2,2.3,2.6,2.3c0.9,0,1.6-0.7,2-1.6c0.3,0.1,0.6,0.2,0.8,0.2
		c1.5,0,2.6-1,2.6-2.4c0-1.2-1.2-2.3-2.6-2.3C293,160,292.4,160.4,292,161L292,161z"/>
	<path class="st0" d="M348.7,177.9c0,1.2,0.9,2.3,2.4,2.3c1.2,0,2.3-1.1,2.3-2.3c0-1.4-1.2-2.3-2.3-2.3
		C349.7,175.5,348.7,176.5,348.7,177.9L348.7,177.9z"/>
	<path class="st0" d="M322.1,179.9c0,1.4,1.2,2.6,2.6,2.6c1.2,0,2.4-1.2,2.4-2.6c0-1.2-1.2-2.4-2.4-2.4
		C323.3,177.6,322.1,178.7,322.1,179.9L322.1,179.9z"/>
	<path class="st0" d="M312.5,190c0,1.2,1.1,2.3,2.3,2.3c1.5,0,2.4-1.2,2.4-2.3c0-1.4-1-2.3-2.4-2.3
		C313.7,187.6,312.5,188.5,312.5,190L312.5,190z"/>
	<path class="st0" d="M310.2,226.7c0,1.4,1,2.6,2.4,2.6c1.1,0,2.1-0.9,2.3-2.1c0.3,0.9,1.1,1.5,2.2,1.5c1.2,0,2.4-0.9,2.4-2.4
		c0-0.5-0.3-1-0.6-1.5c0.7-0.5,1.2-1.3,1.2-2.2c0-1.2-1.1-2.3-2.4-2.3c-1.5,0-2.4,1.2-2.4,2.3c0,0.7,0.2,1.2,0.5,1.7
		c-0.6,0.3-1,0.9-1.1,1.6c-0.3-0.9-1.2-1.6-2.2-1.6C311.1,224.3,310.2,225.5,310.2,226.7L310.2,226.7z"/>
	<path class="st0" d="M324.1,222.3c0,1.2,0.9,2.2,2.2,2.5c1.4,0.1,2.5-1.1,2.5-2.5c0-0.2,0-0.4-0.1-0.6c0.4,0.5,1,0.9,1.8,0.9
		c1.2,0,2.4-1.1,2.4-2.4c0-1.4-1.2-2.3-2.4-2.3c-1.4,0-2.3,0.9-2.3,2.3c0,0.2,0,0.4,0,0.6c-0.4-0.5-1-0.9-1.8-0.9
		C325.3,220,324.1,221.1,324.1,222.3L324.1,222.3z"/>
	<path class="st0" d="M331.5,224.2c0,1.2,0.9,2.4,2.3,2.4c1.2,0,2.4-1.1,2.4-2.4c0-1.4-1.2-2.3-2.4-2.3
		C332.4,221.8,331.5,222.8,331.5,224.2L331.5,224.2z"/>
	<path class="st0" d="M331.7,215c0,1.2,0.9,2.3,2.3,2.3c1.2,0,2.4-1.1,2.4-2.3c0-1.4-1.1-2.6-2.4-2.6
		C332.7,212.4,331.7,213.5,331.7,215L331.7,215z"/>
	<path class="st0" d="M285.8,211.7c0,1.2,1.1,2.3,2.3,2.3c1.5,0,2.4-1.2,2.4-2.3c0-1.4-0.9-2.3-2.4-2.3
		C287,209.3,285.8,210.2,285.8,211.7L285.8,211.7z"/>
	<path class="st0" d="M249.6,253c0,1.2,1.2,2.3,2.6,2.3c1.2,0,2.3-1.1,2.3-2.3c0-1.4-1.1-2.6-2.3-2.6
		C250.7,250.5,249.6,251.6,249.6,253L249.6,253z"/>
	<path class="st0" d="M338.1,231.3c0,1.4,1.1,2.6,2.3,2.6c1.4,0,2.4-1.1,2.4-2.6c0-1.1-0.9-2.3-2.4-2.3
		C339.2,229,338.1,230.1,338.1,231.3L338.1,231.3z"/>
	<path class="st0" d="M337.4,215.4c0,1.2,1.1,2.4,2.3,2.4c1.5,0,2.4-1.2,2.4-2.4c0-1.4-0.9-2.4-2.4-2.4
		C338.6,213,337.4,213.9,337.4,215.4L337.4,215.4z"/>
	<path class="st0" d="M293,221.5c0,1.4,0.9,2.4,2.3,2.4c1.1,0,2.4-0.9,2.4-2.4c0-1.2-1.1-2.3-2.4-2.3
		C293.9,219.2,293,220.3,293,221.5L293,221.5z"/>
	<path class="st0" d="M266.6,209c0,1.4,1.1,2.4,2.6,2.4c1.2,0,2.4-0.9,2.4-2.4c0-1.2-1.1-2.4-2.4-2.4
		C267.8,206.7,266.6,207.8,266.6,209L266.6,209z"/>
	<path class="st0" d="M268.8,184c0,1.4,1.1,2.6,2.4,2.6c1.3,0,2.2-0.9,2.3-2.2c0.3,0.1,0.6,0.2,1,0.2c1.2,0,2.3-1.1,2.3-2.3
		c0-1.5-1.2-2.3-2.3-2.3c-1.3,0-2.2,0.8-2.4,2c-0.3-0.1-0.6-0.2-0.9-0.2C270,181.7,268.8,182.8,268.8,184L268.8,184z"/>
	<path class="st0" d="M276.8,169.9c0,1.4,0.9,2.3,2.3,2.3c1.2,0,2.4-0.9,2.4-2.3c0-1.2-1.1-2.3-2.4-2.3
		C277.7,167.6,276.8,168.7,276.8,169.9L276.8,169.9z"/>
	<path class="st0" d="M287,172.7c0,1.2,1.1,2.4,2.4,2.4c1.5,0,2.4-1.2,2.4-2.4c0-1.4-0.9-2.3-2.4-2.3
		C288.3,170.4,287,171.3,287,172.7L287,172.7z"/>
	<path class="st0" d="M290.7,179.7c0,1.4,1.1,2.5,2.4,2.5c1.3,0,2.4-1.1,2.4-2.5c0-1.1-0.9-2.4-2.4-2.4
		C291.9,177.4,290.7,178.5,290.7,179.7L290.7,179.7z"/>
	<path class="st0" d="M285.6,186.9c0,1.5,1.2,2.3,2.3,2.3c1.2,0,2.4-0.9,2.4-2.3c0-1.2-1.1-2.4-2.4-2.4
		C286.8,184.5,285.6,185.7,285.6,186.9L285.6,186.9z"/>
	<path class="st0" d="M277.9,189.3c0,0.4,0.2,0.9,0.4,1.2c-0.2-0.1-0.5-0.1-0.7-0.1c-1.4,0-2.6,1.1-2.6,2.4c0,1.4,1.2,2.6,2.6,2.6
		c0.9,0,1.8-0.7,2.1-1.6c0,0,0,0.1,0,0.1c0,1.2,1.2,2.3,2.6,2.3c1.2,0,2.4-1.1,2.4-2.3c0-1.4-1.1-2.5-2.4-2.5c-1.1,0-2,0.6-2.4,1.6
		v-0.1c0-0.5-0.2-0.9-0.4-1.3c0.2,0.1,0.5,0.1,0.7,0.1c1.5,0,2.4-1.2,2.4-2.3c0-1.5-1-2.5-2.4-2.5
		C278.9,186.8,277.9,188,277.9,189.3L277.9,189.3z"/>
	<path class="st0" d="M334.8,184.2c0,1.4,1.1,2.6,2.6,2.6c1.3,0,2.4-1.2,2.4-2.6c0-1.2-1.2-2.3-2.4-2.3
		C336,181.9,334.8,183,334.8,184.2L334.8,184.2z"/>
	<path class="st0" d="M347,193.5c0,1.2,1.2,2.3,2.4,2.3c1.4,0,2.6-1.1,2.6-2.3c0-1.4-1.2-2.6-2.6-2.6
		C348.2,190.9,347,192.1,347,193.5L347,193.5z"/>
	<path class="st0" d="M338.9,192.8c0,1.4,1.1,2.6,2.4,2.6c1.4,0,2.6-1.2,2.6-2.6c0-1.2-1.2-2.4-2.6-2.4
		C340,190.5,338.9,191.6,338.9,192.8L338.9,192.8z"/>
	<path class="st0" d="M320.6,192.6c0,1.4,1.1,2.6,2.3,2.6c1.4,0,2.4-1.1,2.4-2.6c0-1.1-0.9-2.4-2.4-2.4
		C321.8,190.3,320.6,191.4,320.6,192.6L320.6,192.6z"/>
	<path class="st0" d="M263.3,215.8c0,1.2,0.9,2.4,2.4,2.4c1.2,0,2.4-1.2,2.4-2.4c0-1.5-1.2-2.4-2.4-2.4
		C264.2,213.4,263.3,214.3,263.3,215.8L263.3,215.8z"/>
	<path class="st0" d="M259.2,221.3c0,1.4,0.9,2.4,2.3,2.4c1.2,0,2.4-0.9,2.4-2.4c0-1.2-1.2-2.3-2.4-2.3
		C260.1,219,259.2,220.1,259.2,221.3L259.2,221.3z"/>
	<path class="st0" d="M254.1,221.5c0,1.4,1,2.4,2.6,2.4c1.2,0,2.3-0.9,2.3-2.4c0-1.2-1.1-2.3-2.3-2.3
		C255.3,219.2,254.1,220.2,254.1,221.5L254.1,221.5z"/>
	<path class="st0" d="M245.3,231.3c0,1.4,1.2,2.6,2.6,2.6c1.2,0,2.4-1.3,2.4-2.6c0-1.2-1.2-2.3-2.4-2.3
		C246.4,229,245.3,230.1,245.3,231.3L245.3,231.3z"/>
	<path class="st0" d="M251.8,230.5c0,0,0.2,0.5,0.3,0.9c-0.7,0.4-1.3,1.1-1.3,1.9c0,1.2,0.9,2.4,2.4,2.4c1.2,0,2.3-1.1,2.3-2.4
		c0,0-0.1-0.4-0.3-0.9c0.5-0.2,0.9-0.6,1.1-1.1c0.2,1.1,1.2,2.1,2.3,2.1c1.4,0,2.4-1.1,2.4-2.6c0-1.1-0.9-2.3-2.4-2.3
		c-0.9,0-1.8,0.7-2.2,1.5c-0.2-1-1-1.9-2.3-1.9C253,228.2,251.8,229.3,251.8,230.5L251.8,230.5z"/>
	<path class="st0" d="M263.3,240.4c0,1.2,0.9,2.4,2.4,2.4c1.2,0,2.4-1.2,2.4-2.4c0-0.6-0.3-1.2-0.6-1.6c0.7-0.3,1.2-0.9,1.3-1.6
		c0.3,0.9,1.2,1.6,2.2,1.6c1.2,0,2.4-1.2,2.4-2.4c0-1.4-1-2.5-2.4-2.5c-1.1,0-2,0.9-2.3,2c-0.3-1-1.3-1.6-2.2-1.6
		c-1.4,0-2.4,1-2.4,2.3c0,0.5,0.2,1,0.5,1.4C263.8,238.5,263.3,239.3,263.3,240.4L263.3,240.4z"/>
	<path class="st0" d="M246.1,221.7c0,1.4,0.9,2.3,2.4,2.3c1.1,0,2.3-0.9,2.3-2.3c0-1.2-1.1-2.4-2.3-2.4
		C247,219.3,246.1,220.6,246.1,221.7L246.1,221.7z"/>
	<path class="st0" d="M268,219.8c0,1.2,0.9,2.4,2.3,2.4c1.2,0,2.4-1.1,2.4-2.4c0-1.4-1.2-2.3-2.4-2.3
		C268.9,217.5,268,218.4,268,219.8L268,219.8z"/>
	<path class="st0" d="M270.3,214.2c0,1.3,1.1,2.5,2.3,2.5c1.4,0,2.6-1.2,2.6-2.5c0-1.3-1.2-2.4-2.6-2.4
		C271.4,211.8,270.3,212.9,270.3,214.2L270.3,214.2z"/>
	<path class="st0" d="M251.2,217.4c0,1.4,0.9,2.4,2.4,2.4c1.2,0,2.4-0.9,2.4-2.4c0-1.2-1.2-2.4-2.4-2.4
		C252.1,215,251.2,216.3,251.2,217.4L251.2,217.4z"/>
	<path class="st0" d="M258.2,254.1c0,1.3,1.2,2.3,2.6,2.3c1.2,0,2.3-1.1,2.3-2.3c0-1.5-1.2-2.3-2.3-2.3
		C259.2,251.7,258.2,252.7,258.2,254.1L258.2,254.1z"/>
	<path class="st0" d="M265.3,253.9c0,1.2,1.2,2.4,2.4,2.4c1.4,0,2.3-1.2,2.3-2.4c0-1.4-0.9-2.4-2.3-2.4
		C266.5,251.5,265.3,252.4,265.3,253.9L265.3,253.9z"/>
	<path class="st0" d="M293.4,239.1c0,1.4,0.9,2.3,2.3,2.3c1.2,0,2.4-0.9,2.4-2.3c0-1.2-1.2-2.4-2.4-2.4
		C294.3,236.8,293.4,238,293.4,239.1L293.4,239.1z"/>
	<path class="st0" d="M273.7,235.5c0,1.3,1.1,2.5,2.4,2.5c1.3,0,2.3-1.1,2.3-2.5c0-0.3,0-0.5-0.1-0.7c0.4,0.3,0.9,0.6,1.4,0.6
		c1.4,0,2.3-1.2,2.3-2.4c0-1.4-0.9-2.3-2.3-2.3c-1.2,0-2.4,0.8-2.4,2.3c0,0.2,0,0.4,0.1,0.6c-0.4-0.3-0.9-0.4-1.4-0.4
		C274.9,233.1,273.7,234.3,273.7,235.5L273.7,235.5z"/>
	<path class="st0" d="M285,230.9c0,1.5,1,2.6,2.3,2.6c1.3,0,2.4-1.2,2.4-2.6c0-0.1,0-0.2,0-0.3c0.3,0.2,0.8,0.4,1.4,0.4
		c1.2,0,2.3-1.1,2.3-2.3c0-1.5-1.2-2.4-2.3-2.4c-1.4,0-2.4,0.9-2.4,2.4c0,0.1,0,0.3,0.1,0.4c-0.4-0.3-0.9-0.5-1.4-0.5
		C285.9,228.6,285,229.8,285,230.9L285,230.9z"/>
	<path class="st0" d="M299.1,230.3c0,1.5,1.2,2.4,2.4,2.4c1.4,0,2.4-0.9,2.4-2.4c0-1.2-0.9-2.4-2.4-2.4
		C300.3,228,299.1,229.1,299.1,230.3L299.1,230.3z"/>
	<path class="st0" d="M301.8,225.8c0,1.4,0.9,2.4,2.4,2.4c1.1,0,2.3-0.9,2.3-2.4c0-1.2-1.1-2.4-2.3-2.4
		C302.7,223.5,301.8,224.6,301.8,225.8L301.8,225.8z"/>
	<path class="st0" d="M320.4,232.6c0,1.2,1.1,2.4,2.3,2.4c1.5,0,2.4-1.2,2.4-2.4c0-1.4-0.9-2.4-2.4-2.4
		C321.6,230.2,320.4,231.1,320.4,232.6L320.4,232.6z"/>
	<path class="st0" d="M316.8,210.9c0,1.2,1.1,2.3,2.3,2.3c1.5,0,2.4-1.2,2.4-2.3c0-1.5-1-2.6-2.4-2.6
		C317.9,208.3,316.8,209.5,316.8,210.9L316.8,210.9z"/>
	<path class="st0" d="M297.5,205.7c0,1.4,1,2.5,2.4,2.5c1.2,0,2.3-1.2,2.3-2.5c0-0.6-0.2-1.1-0.6-1.6c0.8-0.4,1.4-1.2,1.4-2.2
		c0-1.4-1.1-2.6-2.3-2.6c-1,0-1.8,0.6-2.2,1.4c-0.4-0.9-1.2-1.6-2.2-1.6c-0.3,0-0.5,0-0.7,0.1l0,0c0-0.9-0.4-1.6-1-2
		c0.8-0.1,1.6-0.7,1.9-1.4c0.4,0.9,1.4,1.6,2.4,1.6c1.2,0,2.3-1.1,2.3-2.4c0-1.2-1.1-2.3-2.3-2.3c-1,0-1.9,0.5-2.3,1.3
		c-0.3-0.9-1.3-1.5-2.2-1.5c-1.5,0-2.6,1-2.6,2.4c0,0.8,0.5,1.5,1.2,2c-1.1,0.1-2.2,0.9-2.2,2.4c0,1.2,1.1,2.4,2.4,2.4
		c0.3,0,0.5-0.1,0.7-0.1c0,0.1,0,0.1,0,0.2c0,1.2,0.9,2.4,2.4,2.4c0.9,0,1.6-0.6,2.1-1.3c0.1,0.3,0.2,0.5,0.4,0.7
		C298,204,297.5,204.9,297.5,205.7L297.5,205.7z"/>
	<path class="st0" d="M278.1,200.8c0,1.4,1.2,2.3,2.3,2.3c1.4,0,2.4-1,2.4-2.3c0-0.1,0-0.1,0-0.2c0.4,0.5,1.1,0.9,1.8,0.9
		c1.4,0,2.4-1.2,2.4-2.3c0-1.4-1-2.3-2.4-2.3c-1.2,0-2.3,0.9-2.3,2.3v0c-0.4-0.4-1-0.7-1.8-0.7C279.2,198.5,278.1,199.6,278.1,200.8
		L278.1,200.8z"/>
	<path class="st0" d="M244.7,190.2c0,0.8,0.5,1.6,1.2,2c-0.7,0.3-1.2,1.1-1.2,2c0,1.2,1.1,2.4,2.3,2.4c1.4,0,2.6-1.1,2.6-2.4
		c0-0.9-0.5-1.7-1.3-2c0.4-0.3,0.7-0.6,1-1c0.3,0.9,1.3,1.7,2.2,1.7c1.4,0,2.6-1.1,2.6-2.3c0-1.4-1-2.3-2.6-2.3
		c-0.8,0-1.6,0.4-2.1,1.2c-0.3-1-1.2-1.6-2.4-1.6C245.9,187.8,244.7,188.7,244.7,190.2L244.7,190.2z"/>
	<path class="st0" d="M250.6,163.1c0,1.5,1,2.6,2.4,2.6c1.2,0,2.3-1.2,2.3-2.6c0-1.2-1.1-2.4-2.3-2.4
		C251.5,160.8,250.6,162,250.6,163.1L250.6,163.1z"/>
	<path class="st0" d="M253.2,195.9c0,1.5,1.2,2.4,2.4,2.4c1.5,0,2.6-1,2.6-2.4c0-1.3-1.2-2.3-2.6-2.3
		C254.4,193.6,253.2,194.7,253.2,195.9L253.2,195.9z"/>
	<path class="st0" d="M271.1,160.1c0,1.3,1.2,2.4,2.5,2.4c0.1,0,0.3,0,0.4-0.1c0,0.2-0.1,0.4-0.1,0.5c0,1.4,1.1,2.6,2.4,2.6
		c1.4,0,2.3-1.1,2.3-2.6c0-1.1-0.8-2.3-2.3-2.3c-0.1,0-0.3,0-0.4,0c0.1-0.2,0.1-0.4,0.1-0.6c0-1.4-1.2-2.3-2.4-2.3
		C272.2,157.7,271.1,158.7,271.1,160.1L271.1,160.1z"/>
	<path class="st0" d="M247.3,183.4c0,1.5,1.2,2.4,2.4,2.4c1.4,0,2.3-1,2.3-2.4c0-1.1-0.9-2.3-2.3-2.3
		C248.5,181.1,247.3,182.2,247.3,183.4L247.3,183.4z"/>
	<path class="st0" d="M263.5,195.5c0,1.4,0.9,2.3,2.4,2.3c1.2,0,2.4-0.9,2.4-2.3c0-1.2-1.2-2.4-2.4-2.4
		C264.4,193.1,263.5,194.3,263.5,195.5L263.5,195.5z"/>
	<path class="st0" d="M268.6,192.6c0,0.9,0.5,1.7,1.2,2.2c-0.3,0.4-0.6,0.9-0.6,1.5c0,1.5,1.2,2.4,2.3,2.4c0.5,0,1-0.1,1.4-0.4
		c0.2,1.1,1.2,2,2.3,2c1.4,0,2.3-1.2,2.3-2.4c0-1.5-1-2.6-2.3-2.6c-0.5,0-1,0.2-1.4,0.5c-0.1-0.7-0.5-1.3-1.1-1.6
		c0.3-0.5,0.6-1,0.6-1.6c0-1.1-0.9-2.4-2.4-2.4C269.8,190.3,268.6,191.4,268.6,192.6L268.6,192.6z"/>
	<path class="st0" d="M307.1,195.3c0,1.2,1.1,2.4,2.3,2.4c1.5,0,2.4-1.2,2.4-2.4c0-1.1-0.9-2.3-2.4-2.3
		C308.3,192.9,307.1,194.1,307.1,195.3L307.1,195.3z"/>
	<path class="st0" d="M302.2,196.7c0,1.5,1,2.6,2.4,2.6c1.2,0,2.4-1.2,2.4-2.6c0-1.2-1.2-2.3-2.4-2.3
		C303.1,194.4,302.2,195.6,302.2,196.7L302.2,196.7z"/>
	<path class="st0" d="M311,198.6c0,1.2,0.9,2.4,2.4,2.4c1.2,0,2.3-1.2,2.3-2.4c0-1.4-1.2-2.3-2.3-2.3C312,196.2,311,197.1,311,198.6
		L311,198.6z"/>
	<path class="st0" d="M306.5,185.6c0,1.2,0.9,2.4,2.4,2.4c1.2,0,2.3-1.2,2.3-2.4c0-1.5-1.2-2.3-2.3-2.3
		C307.4,183.3,306.5,184.2,306.5,185.6L306.5,185.6z"/>
	<path class="st0" d="M288.3,219.6c0,1.3,1.2,2.4,2.6,2.4c1.2,0,2.3-1.2,2.3-2.4c0-1.4-1.2-2.4-2.3-2.4
		C289.3,217.3,288.3,218.3,288.3,219.6L288.3,219.6z"/>
	<path class="st0" d="M270.3,253.7c0,1.2,1.1,2.3,2.3,2.3c1.4,0,2.6-1.1,2.6-2.3c0-1.4-1.2-2.6-2.6-2.6
		C271.4,251.1,270.3,252.3,270.3,253.7L270.3,253.7z"/>
	<path class="st0" d="M258.8,245.2c0,1.2,0.9,2.4,2.4,2.4c1.2,0,2.4-1.2,2.4-2.4c0-1.4-1.2-2.3-2.4-2.3
		C259.7,242.9,258.8,243.8,258.8,245.2L258.8,245.2z"/>
	<path class="st0" d="M253.2,248.3c0.3,1,1.3,1.5,2.2,1.5c1.5,0,2.6-1,2.6-2.4c0-1.2-1.2-2.4-2.6-2.4c-0.7,0-1.4,0.4-1.9,1
		c-0.3-0.9-1.3-1.6-2.4-1.6c-1.2,0-2.4,1.1-2.4,2.4c0,1.4,1.2,2.3,2.4,2.3C252,249.2,252.7,248.9,253.2,248.3L253.2,248.3z"/>
	<path class="st0" d="M260.4,228.7c0,1.2,1.2,2.3,2.3,2.3c1.5,0,2.4-1.2,2.4-2.3c0-1.4-0.9-2.4-2.4-2.4
		C261.6,226.3,260.4,227.2,260.4,228.7L260.4,228.7z"/>
	<path class="st0" d="M265.1,231.1c0,1.4,1.1,2.6,2.4,2.6c1.4,0,2.3-1.1,2.3-2.6c0-1.2-0.9-2.4-2.3-2.4
		C266.3,228.8,265.1,229.9,265.1,231.1L265.1,231.1z"/>
	<path class="st0" d="M276.9,224.7c0.3,0.8,1.1,1.6,2.2,1.6c1.2,0,2.4-1.2,2.4-2.4c0-1.4-1.2-2.4-2.4-2.4c-1,0-1.8,0.5-2.1,1.2
		c-0.3-1-1.2-1.6-2.2-1.6c-1.4,0-2.3,1.1-2.3,2.6c0,1.1,0.9,2.3,2.3,2.3C275.7,226.1,276.5,225.5,276.9,224.7L276.9,224.7z"/>
	<path class="st0" d="M286.2,207c0,1.2,1.2,2.3,2.4,2.3c1.4,0,2.3-1.2,2.3-2.3c0-1.4-0.9-2.4-2.3-2.4
		C287.4,204.6,286.2,205.5,286.2,207L286.2,207z"/>
	<path class="st0" d="M303.2,203.9c0,1.5,1.2,2.3,2.4,2.3c1.5,0,2.4-1.2,2.4-2.3c0-1.1-0.9-2.4-2.4-2.4
		C304.4,201.5,303.2,202.7,303.2,203.9L303.2,203.9z"/>
	<path class="st0" d="M263.9,201.8c0,1.2,0.9,2.4,2.4,2.4c1.2,0,2.3-1.1,2.3-2.4c0-1.3-1.1-2.5-2.3-2.5
		C264.9,199.3,263.9,200.4,263.9,201.8L263.9,201.8z"/>
	<path class="st0" d="M255.5,202.3c0,1.2,0.9,2.3,2.4,2.3c1.2,0,2.4-1.1,2.4-2.3c0-1.4-1.1-2.6-2.4-2.6
		C256.5,199.7,255.5,200.8,255.5,202.3L255.5,202.3z"/>
	<path class="st0" d="M258.8,195.9c0,1.4,0.9,2.4,2.4,2.4c1.2,0,2.4-0.9,2.4-2.4c0-1.2-1.2-2.3-2.4-2.3
		C259.7,193.6,258.8,194.7,258.8,195.9L258.8,195.9z"/>
	<path class="st0" d="M369.4,169.5c0,1.3,1.2,2.4,2.6,2.4c1.2,0,2.4-1.2,2.4-2.4c0-1.5-1.2-2.4-2.4-2.4
		C370.5,167.1,369.4,168.1,369.4,169.5L369.4,169.5z"/>
	<path class="st0" d="M310,147.4c0,1.2,1.2,2.3,2.4,2.3c1.5,0,2.4-1.2,2.4-2.3c0-1.4-1-2.3-2.4-2.3C311.2,145,310,145.9,310,147.4
		L310,147.4z"/>
	<path class="st0" d="M326.8,160.7c0,1.2,0.9,2.4,2.4,2.4c1.2,0,2.4-1.1,2.4-2.4c0-1.4-1.2-2.3-2.4-2.3
		C327.7,158.3,326.8,159.3,326.8,160.7L326.8,160.7z"/>
	<path class="st0" d="M301,151.4c0,1.3,1.2,2.4,2.6,2.4c1.2,0,2.4-1.1,2.4-2.4c0-1.4-1.1-2.5-2.4-2.5C302.1,148.9,301,150,301,151.4
		L301,151.4z"/>
	<path class="st0" d="M322.7,145.7c0,1.5,1,2.5,2.4,2.5c1.2,0,2.4-1.2,2.4-2.5c0-1.2-1.2-2.4-2.4-2.4
		C323.6,143.4,322.7,144.6,322.7,145.7L322.7,145.7z"/>
	<path class="st0" d="M336.6,158.8c0,1.5,1,2.6,2.4,2.6c1.2,0,2.3-1.2,2.3-2.6c0-1.2-1.1-2.3-2.3-2.3
		C337.5,156.5,336.6,157.7,336.6,158.8L336.6,158.8z"/>
	<path class="st0" d="M337.4,136.3c0,1.5,1.2,2.3,2.3,2.3c0.3,0,0.7,0,1-0.1c-0.1,0.3-0.2,0.7-0.2,1c0,1.2,0.9,2.4,2.4,2.4
		c0.8,0,1.6-0.5,2-1.2c0.4,0.7,1.1,1.2,2.1,1.2c1.1,0,2.1-1,2.3-2c0.4,0.4,0.9,0.6,1.6,0.6c1.2,0,2.4-1.2,2.4-2.4
		c0-1.4-1.1-2.5-2.4-2.5c-1.2,0-2.2,0.9-2.3,2.2c-0.5-0.3-1-0.5-1.6-0.5c-0.9,0-1.7,0.4-2,1.1c-0.4-0.7-1.2-1.1-2-1.1
		c-0.4,0-0.6,0-0.9,0.1c0.1-0.3,0.2-0.7,0.2-1.1c0-1.1-0.9-2.3-2.4-2.3c-0.3,0-0.5,0-0.8,0.2c0-0.2,0.1-0.3,0.1-0.5
		c0-1.3-0.9-2.4-2.2-2.5c0.1-0.2,0.1-0.5,0.1-0.8c0-1.5-1.2-2.3-2.3-2.3c-1.4,0-2.4,0.9-2.4,2.3c0,1,0.8,2.2,2,2.3
		c-0.1,0.3-0.2,0.6-0.2,1c0,1.2,1.2,2.3,2.4,2.3c0.3,0,0.7-0.1,1-0.2C337.5,136,337.4,136.1,337.4,136.3L337.4,136.3z"/>
	<path class="st0" d="M344.4,112.1c0,1.1,0.9,2.3,2.4,2.3c1.2,0,2.3-1.1,2.3-2.3c0-1.4-1.1-2.6-2.3-2.6
		C345.4,109.6,344.4,110.6,344.4,112.1L344.4,112.1z"/>
	<path class="st0" d="M364.7,106.4c0,1.4,1.1,2.3,2.6,2.3c1.2,0,2.4-0.9,2.4-2.3c0-1.2-1.2-2.3-2.4-2.3
		C365.8,104.1,364.7,105.1,364.7,106.4L364.7,106.4z"/>
	<path class="st0" d="M334.1,107c0,1.5,1.2,2.3,2.4,2.3c1.4,0,2.5-1,2.5-2.3c0-1.2-1.2-2.3-2.5-2.3
		C335.3,104.7,334.1,105.8,334.1,107L334.1,107z"/>
	<path class="st0" d="M369,110.3c0,1.4,1.1,2.3,2.6,2.3c1.2,0,2.4-0.9,2.4-2.3c0-1.2-1.2-2.4-2.4-2.4
		C370.2,107.9,369,109.1,369,110.3L369,110.3z"/>
	<path class="st0" d="M346.6,119.9c0,1.4,1.1,2.6,2.4,2.6c1.4,0,2.3-1,2.3-2.6c0-1.1-0.9-2.3-2.3-2.3
		C347.8,117.6,346.6,118.7,346.6,119.9L346.6,119.9z"/>
	<path class="st0" d="M330.9,123c0,1.4,1.1,2.3,2.6,2.3c1.2,0,2.3-0.9,2.3-2.3c0-1.2-1.1-2.4-2.3-2.4
		C332.1,120.6,330.9,121.7,330.9,123L330.9,123z"/>
	<path class="st0" d="M331.3,117.9c0,1.1,0.9,2.3,2.3,2.3c1.2,0,2.4-1.1,2.4-2.3c0-1.5-1.2-2.3-2.4-2.3
		C332.2,115.5,331.3,116.4,331.3,117.9L331.3,117.9z"/>
	<path class="st0" d="M323.7,119.9c0,1.5,1,2.6,2.4,2.6c1.3,0,2.4-1.2,2.4-2.6c0-1.2-1.2-2.3-2.4-2.3
		C324.6,117.6,323.7,118.8,323.7,119.9L323.7,119.9z"/>
	<path class="st0" d="M309,116c0,1.3,1.1,2.5,2.4,2.5c1.4,0,2.6-1.1,2.6-2.5c0-1.3-1.2-2.3-2.6-2.3C310.1,113.7,309,114.8,309,116
		L309,116z"/>
	<path class="st0" d="M307.1,108c0,1.2,1.1,2.3,2.3,2.3c1.5,0,2.4-1.2,2.4-2.3c0-1.5-1-2.5-2.4-2.5
		C308.2,105.5,307.1,106.7,307.1,108L307.1,108z"/>
	<path class="st0" d="M302.4,109.1c0,1.2,0.9,2.3,2.3,2.3c1.2,0,2.4-1.1,2.4-2.3c0-1.5-1.2-2.4-2.4-2.4
		C303.3,106.7,302.4,107.7,302.4,109.1L302.4,109.1z"/>
	<path class="st0" d="M307.7,121.2c0,1.2,1.2,2.3,2.4,2.3c1.4,0,2.3-1.2,2.3-2.3c0-1.5-1-2.6-2.3-2.6
		C308.8,118.6,307.7,119.8,307.7,121.2L307.7,121.2z"/>
	<path class="st0" d="M321.2,108.4c0,1.2,1.2,2.4,2.4,2.4c1.4,0,2.6-1.1,2.6-2.4c0-1.4-1.1-2.6-2.6-2.6
		C322.3,105.9,321.2,107.1,321.2,108.4L321.2,108.4z"/>
	<path class="st0" d="M327.8,108.6c0,1.2,0.9,2.3,2.4,2.3c1.2,0,2.4-1.1,2.4-2.3c0-1.5-1.2-2.3-2.4-2.3
		C328.8,106.3,327.8,107.2,327.8,108.6L327.8,108.6z"/>
	<path class="st0" d="M312.7,109.1c0,1.2,1.1,2.3,2.3,2.3c1.5,0,2.4-1.2,2.4-2.3c0-1.4-0.9-2.4-2.4-2.4
		C313.9,106.7,312.7,107.6,312.7,109.1L312.7,109.1z"/>
	<path class="st0" d="M300.8,118.5c0,1.4,1.1,2.3,2.6,2.3c1.2,0,2.3-0.9,2.3-2.3c0-1.2-1.1-2.3-2.3-2.3
		C302,116.1,300.8,117.2,300.8,118.5L300.8,118.5z"/>
	<path class="st0" d="M317.4,117.3c0,1.2,1.1,2.3,2.4,2.3c1.3,0,2.5-1.1,2.5-2.3c0-1.4-1.1-2.3-2.5-2.3
		C318.5,114.9,317.4,115.8,317.4,117.3L317.4,117.3z"/>
	<path class="st0" d="M300.6,127.3c0,0.5,0.2,1,0.5,1.4c-0.9,0.3-1.7,1.1-1.7,2.3c0,1.2,1.1,2.3,2.4,2.3c1.5,0,2.4-1.2,2.4-2.3
		c0-0.5-0.1-1-0.4-1.4c0.3-0.1,0.5-0.2,0.8-0.3c-0.2,0.3-0.4,0.8-0.4,1.3c0,1.2,1.2,2.3,2.4,2.3c1.5,0,2.4-1.2,2.4-2.3
		c0-1.4-0.9-2.3-2.4-2.3c-0.5,0-0.9,0.1-1.3,0.4c0.2-0.4,0.4-0.8,0.4-1.3c0-1.2-1.1-2.4-2.3-2.4C301.8,124.9,300.6,126,300.6,127.3
		L300.6,127.3z"/>
	<path class="st0" d="M311,157.6c0,1.4,1,2.3,2.4,2.3c1.2,0,2.3-0.9,2.3-2.3c0-1.2-1.1-2.4-2.3-2.4C311.9,155.2,311,156.5,311,157.6
		L311,157.6z"/>
	<path class="st0" d="M330.5,136.7c0,1.3,1.1,2.4,2.5,2.4c1.2,0,2.4-0.9,2.4-2.4c0-1.2-1.1-2.4-2.4-2.4
		C331.7,134.4,330.5,135.5,330.5,136.7L330.5,136.7z"/>
	<path class="st0" d="M365.5,148.4c0,1.4,0.9,2.4,2.4,2.4c1.1,0,2.3-0.9,2.3-2.4c0-1.2-1.1-2.3-2.3-2.3
		C366.4,146,365.5,147.2,365.5,148.4L365.5,148.4z"/>
	<path class="st0" d="M345.6,167.6c0,1.2,1.2,2.4,2.4,2.4c0.9,0,1.6-0.5,2-1.1c0.4,0.5,1,0.7,1.6,0.7c1.2,0,2.4-1.2,2.4-2.6
		c0-1.2-1.1-2.3-2.4-2.3c-0.9,0-1.6,0.5-2,1.1c-0.4-0.4-1-0.7-1.7-0.7C346.7,165.1,345.6,166.3,345.6,167.6L345.6,167.6z"/>
	<path class="st0" d="M340.9,127.5c0,1.5,0.9,2.4,2.4,2.4c1.1,0,2.3-0.9,2.3-2.4c0-1.2-1.1-2.3-2.3-2.3
		C341.8,125.2,340.9,126.3,340.9,127.5L340.9,127.5z"/>
	<path class="st0" d="M355.3,124.2c0,1.4,1.1,2.6,2.3,2.6c1.4,0,2.4-1.1,2.4-2.6c0-1.1-0.9-2.3-2.4-2.3
		C356.4,121.9,355.3,123,355.3,124.2L355.3,124.2z"/>
	<path class="st0" d="M360.2,118.9c0,1.4,1.2,2.3,2.4,2.3c1.5,0,2.6-1,2.6-2.3c0-1.3-1.2-2.4-2.6-2.4
		C361.3,116.5,360.2,117.7,360.2,118.9L360.2,118.9z"/>
	<path class="st0" d="M370.6,125.8c0,1.1,0.9,2.4,2.4,2.4c1.2,0,2.4-1.2,2.4-2.4c0-1.5-1.2-2.3-2.4-2.3
		C371.5,123.5,370.6,124.5,370.6,125.8L370.6,125.8z"/>
	<path class="st0" d="M351.1,131.2c0,1.2,1.2,2.3,2.4,2.3c1.4,0,2.6-1.1,2.6-2.3c0-1.4-1.1-2.3-2.6-2.3
		C352.3,128.8,351.1,129.7,351.1,131.2L351.1,131.2z"/>
	<path class="st0" d="M343.2,134.1c0,1.2,1.2,2.3,2.4,2.3c1.3,0,2.5-1.1,2.5-2.3c0-1.4-1.1-2.6-2.5-2.6
		C344.2,131.5,343.2,132.7,343.2,134.1L343.2,134.1z"/>
	<path class="st0" d="M325.7,130.4c0,1.2,1.1,2.3,2.4,2.3c1.4,0,2.6-1.1,2.6-2.3c0-1.4-1.1-2.3-2.6-2.3
		C326.9,128,325.7,128.9,325.7,130.4L325.7,130.4z"/>
	<path class="st0" d="M317.4,127.1c0,1.5,1.2,2.4,2.4,2.4c1.4,0,2.5-1,2.5-2.4c0-1.2-1.2-2.3-2.5-2.3
		C318.5,124.7,317.4,125.9,317.4,127.1L317.4,127.1z"/>
	<path class="st0" d="M308.8,130.2c0,1.2,1.2,2.3,2.4,2.3c1.4,0,2.6-1.1,2.6-2.3c0-1.4-1.1-2.3-2.6-2.3
		C309.9,127.8,308.8,128.7,308.8,130.2L308.8,130.2z"/>
	<path class="st0" d="M318,172.3c0,1.3,1.2,2.4,2.5,2.4c1.2,0,2.4-1.2,2.4-2.4c0-1.2-0.8-2.2-1.9-2.5c0.3-0.4,0.5-0.9,0.5-1.3
		c0-1.4-1-2.4-2.4-2.4c-1.2,0-2.3,0.9-2.3,2.4c0,1,0.8,2,1.8,2.2C318.2,171.2,318,171.7,318,172.3L318,172.3z"/>
	<path class="st0" d="M310.2,172.7c0,1.2,0.9,2.4,2.4,2.4c1.2,0,2.4-1.2,2.4-2.4c0-1.5-1.2-2.3-2.4-2.3
		C311.1,170.4,310.2,171.3,310.2,172.7L310.2,172.7z"/>
	<path class="st0" d="M304,173.8c0,1.2,1.2,2.4,2.4,2.4c1.5,0,2.4-1.2,2.4-2.4c0-1.4-0.9-2.3-2.4-2.3
		C305.2,171.4,304,172.3,304,173.8L304,173.8z"/>
	<path class="st0" d="M312.8,123.2c0,1.5,1.2,2.3,2.4,2.3c1.5,0,2.6-1,2.6-2.3c0-1.2-1.2-2.3-2.6-2.3
		C314,120.9,312.8,122,312.8,123.2L312.8,123.2z"/>
	<path class="st0" d="M299.5,140.4c0,1.5,1.2,2.3,2.4,2.3c1.4,0,2.3-0.9,2.3-2.3c0-1.1-0.9-2.3-2.3-2.3
		C300.7,138.1,299.5,139.2,299.5,140.4L299.5,140.4z"/>
	<path class="st0" d="M308.8,140.4c0,1.5,1.2,2.3,2.4,2.3c1.5,0,2.6-1,2.6-2.3c0-1.2-1.2-2.3-2.6-2.3c-0.3,0-0.5,0-0.7,0.1
		c0.1-0.3,0.2-0.7,0.2-1.1c0-1.2-1.2-2.3-2.4-2.3c-1.5,0-2.3,1.2-2.3,2.3c0,1.5,0.9,2.6,2.3,2.6c0.3,0,0.5-0.1,0.7-0.1
		C308.8,139.8,308.8,140.1,308.8,140.4L308.8,140.4z"/>
	<path class="st0" d="M318,140.4c0,1.4,1.1,2.3,2.5,2.3c1.2,0,2.4-0.9,2.4-2.3c0-1.2-1.2-2.3-2.4-2.3
		C319.2,138.1,318,139.2,318,140.4L318,140.4z"/>
	<path class="st0" d="M311.6,136.5c0,1.5,1.2,2.4,2.4,2.4c1.4,0,2.4-1,2.4-2.4c0-1.1-0.9-2.3-2.4-2.3
		C312.8,134.2,311.6,135.3,311.6,136.5L311.6,136.5z"/>
	<path class="st0" d="M323.9,137.1c0,1.5,1,2.6,2.4,2.6c1.3,0,2.4-1.2,2.4-2.6c0-1.2-1.2-2.3-2.4-2.3
		C324.8,134.8,323.9,136,323.9,137.1L323.9,137.1z"/>
	<path class="st0" d="M346.6,144.3c0,1.5,1.2,2.4,2.4,2.4c1.4,0,2.3-0.9,2.3-2.4c0-1.1-0.9-2.3-2.3-2.3
		C347.8,141.9,346.6,143.1,346.6,144.3L346.6,144.3z"/>
	<path class="st0" d="M353,149c0,1.4,0.9,2.4,2.4,2.4c1.1,0,2.3-0.9,2.3-2.4c0-1.2-1.2-2.4-2.3-2.4C353.9,146.6,353,147.8,353,149
		L353,149z"/>
	<path class="st0" d="M359.2,153.7c0,1.5,1.2,2.3,2.3,2.3c1.4,0,2.4-0.9,2.4-2.3c0-1.1-0.9-2.3-2.4-2.3
		C360.3,151.4,359.2,152.5,359.2,153.7L359.2,153.7z"/>
	<path class="st0" d="M367.1,135.5c0,1.2,1.1,2.3,2.3,2.3c1.5,0,2.4-1.2,2.4-2.3c0-1.4-0.9-2.3-2.4-2.3
		C368.3,133.1,367.1,134,367.1,135.5L367.1,135.5z"/>
	<path class="st0" d="M355.3,136.9c0,1.4,1.1,2.6,2.3,2.6c1.4,0,2.4-1.1,2.4-2.6c0-1.1-0.9-2.3-2.4-2.3
		C356.4,134.6,355.3,135.7,355.3,136.9L355.3,136.9z"/>
	<path class="st0" d="M333.1,151c0,1.2,1.2,2.4,2.4,2.4c1.5,0,2.4-1.2,2.4-2.4c0-1.5-1-2.5-2.4-2.5
		C334.2,148.5,333.1,149.7,333.1,151L333.1,151z"/>
	<path class="st0" d="M319.6,156.4c0,1.1,0.9,2.3,2.4,2.3c1.2,0,2.3-1.1,2.3-2.3c0-1.5-1.2-2.4-2.3-2.4
		C320.5,154,319.6,154.9,319.6,156.4L319.6,156.4z"/>
	<path class="st0" d="M306.1,161.7c0,1.4,0.9,2.3,2.2,2.4c-0.3,0.3-0.4,0.8-0.4,1.3c0,1.2,1.1,2.3,2.3,2.3c1.4,0,2.4-1.2,2.4-2.3
		c0-1.1-0.8-2.3-2.2-2.3c0.3-0.4,0.4-0.8,0.4-1.4c0-1.2-1.2-2.3-2.4-2.3C307,159.3,306.1,160.5,306.1,161.7L306.1,161.7z"/>
	<path class="st0" d="M301.4,166.8c0,1.5,1,2.5,2.3,2.5c1.2,0,2.4-1.2,2.4-2.5c0-1.2-1.1-2.4-2.4-2.4
		C302.3,164.5,301.4,165.7,301.4,166.8L301.4,166.8z"/>
	<path class="st0" d="M314.7,164c0,1.1,0.9,2.3,2.3,2.3c1.2,0,2.4-1.2,2.4-2.3c0-1.4-1.1-2.6-2.4-2.6
		C315.7,161.4,314.7,162.5,314.7,164L314.7,164z"/>
	<path class="st0" d="M322.9,170.7c0,1.4,0.9,2.3,2.4,2.3c1.1,0,2.3-0.9,2.3-2.3c0-1.2-1.2-2.3-2.3-2.3
		C323.8,168.4,322.9,169.6,322.9,170.7L322.9,170.7z"/>
	<path class="st0" d="M333.5,172.9c0,1.2,1.2,2.4,2.4,2.4c1.5,0,2.4-1.2,2.4-2.4c0-1.4-0.9-2.3-2.4-2.3
		C334.7,170.6,333.5,171.5,333.5,172.9L333.5,172.9z"/>
	<path class="st0" d="M341.1,165.8c0,1.5,1.2,2.3,2.4,2.3c1.2,0,2.3-0.9,2.3-2.3c0-1.2-1.1-2.3-2.3-2.3
		C342.3,163.5,341.1,164.6,341.1,165.8L341.1,165.8z"/>
	<path class="st0" d="M363.2,162.5c0,1.5,1.2,2.3,2.4,2.3c1.4,0,2.4-1,2.4-2.3c0-1.1-0.9-2.4-2.4-2.4
		C364.4,160.2,363.2,161.3,363.2,162.5L363.2,162.5z"/>
	<g>
		<path class="st0" d="M231.7,215c1.1,0,2.3-0.9,2.3-2.3c0-0.3-0.1-0.6-0.2-0.9c0.4,0.2,0.9,0.4,1.3,0.4c1.2,0,2.4-1.2,2.4-2.6
			c0-0.3-0.1-0.5-0.2-0.8c0.3,0.2,0.7,0.3,1.1,0.3c1.4,0,2.5-1.1,2.5-2.4c0-1.3-1.1-2.3-2.5-2.3c-1.2,0-2.4,0.9-2.4,2.3
			c0,0.3,0.1,0.6,0.2,0.8c-0.3-0.2-0.7-0.3-1.1-0.3c-1.4,0-2.6,1.1-2.6,2.4c0,0.4,0.1,0.8,0.2,1.1c-0.3-0.2-0.7-0.3-1.1-0.3
			c-1.5,0-2.4,1.2-2.4,2.3c0,0.4,0.1,0.8,0.2,1.1C229.8,214.6,230.6,215,231.7,215z"/>
		<path class="st0" d="M377.4,0c-1.1,0-3,2.3-3.5,3.4c-0.9,0.1-1.5,0.7-1.8,1.4c-1.2,0.1-2,0.8-2.1,2c-0.3,0.3-0.4,0.8-0.5,1.2
			c-1.1,0.2-2,1.1-2,2.2c-1.2,0.2-2.2,1.1-2.2,2.2c0,0,0,0.1,0,0.2c-0.7,0.2-1.2,0.7-1.4,1.4c-0.9,0.4-1.5,1.1-1.5,2.1
			c0,0,0.1,0.3,0.1,0.6c-0.7,0.2-1.2,0.6-1.4,1.2c-0.8,0.2-1.3,0.8-1.5,1.6c-0.8,0.2-1.4,0.7-1.6,1.5c-1,0.2-1.6,0.9-1.8,1.8
			c-0.7,0.1-1.3,0.6-1.7,1.3c-0.7,0.2-1.3,0.8-1.5,1.6c-0.8,0.2-1.4,0.8-1.6,1.6c-0.6,0.2-1,0.6-1.3,1.1c-0.4,0-5.4,4.8-5.4,5.2
			c-0.5,0.3-0.9,0.7-1.1,1.3c-0.7,0.3-1.7,1.1-2.2,1.7c-1.6,0.3-4.3,4.2-5.4,5.2c-0.8,0.2-1.4,0.8-1.6,1.6c-0.2,0.1-0.5,0.3-0.6,0.3
			c-0.8,0.1-1.3,0.6-1.6,1.3c-0.1,0.1-0.3,0.3-0.5,0.5c-0.8,0.1-1.5,0.6-1.9,1.3c-0.1,0.1-0.3,0.3-0.5,0.5c-0.8,0.1-1.5,0.7-1.8,1.5
			c0,0-0.3,0.3-0.4,0.4c-1.3,0.4-5.7,6.3-7.3,7.8C308,67.5,295,78.2,284.4,86.8c-8,6.6-14.9,12.2-19.1,16c-0.9,0.9-1.9,1.8-2.9,2.6
			c-6.8,5.9-12,10.8-17.5,16.2c-6.3,6.2-12.9,13-21.3,21.9c-15.6,17.8-24.5,34.1-31,46c-7.9,14.5-11.9,21.8-19.9,18.2
			c-4.7-2.6-8.2-10.4-8.3-18.1l0.3-4.1l1.2-3.6c4.7-10.7,15.1-23.8,26.1-37.7c19.6-24.8,42.9-54.2,42.9-81.8
			c0-8.5-2.2-16.9-7.4-24.8l-1.4-2.3c-17.2-21.3-46.4-6.9-58.4,0.3c-13.5,1-31.2,14.7-37.2,28.9c-1.5,3.5-2.2,6.8-2.2,9.9
			c0,4.3,1.5,8.3,4.3,11.6c1.5,1.5,4.1,1.9,6.3,2c-1.5,0.9-2.8,2.1-3.6,4c-0.9,1.6-3.3,10.2-5.9,19.3l-3.3,11.5
			c-0.3,1-0.5,1.8-0.5,2.6c0,0.9,0.2,1.6,0.6,2.3c1.1,1.6,3.1,1.8,4.2,1.8c11.3-1.1,23.1-33.7,24.3-37c8.4-2.4,17.8-11.3,20.4-14
			c2.5-2.7,3.6-5.9,4.8-9.3c1.9-5.2,3.8-10.6,10.7-15.4c6.8-4.4,12.2-5.1,15.5-2.1c2.5,2.2,3.7,6.3,3.7,11.3
			c0,6.1-1.8,13.5-5.3,20.5c-6.3,12.6-22.2,31.8-36.1,48.7c-11.5,13.8-22.3,26.9-26.9,35.1c-9.2,14.9-21.1,38.3-21.1,59.6
			c0,10.4,2.8,20.3,10.1,28.5c0.2,0.7,0.6,1.2,1.2,1.6c0.4,0.8,1.1,1.3,2,1.3h102.2c1.3,0,2.4-1.1,2.4-2.3c0-0.1,0-0.2,0-0.3
			c0.4,0.4,0.9,0.6,1.6,0.6c1.2,0,2.3-1.1,2.3-2.4c0-1.4-1.2-2.4-2.3-2.4c-1.4,0-2.4,0.9-2.4,2.4c0,0.1,0,0.2,0.1,0.3
			c-0.5-0.4-1-0.6-1.6-0.6h-3c0.5-0.4,0.9-1,0.9-1.8c0-1.2-1.1-2.4-2.4-2.4c-1.5,0-2.4,1.2-2.4,2.4c0,0.8,0.3,1.4,0.8,1.8l-0.9,0.1
			c-0.5-0.7-1.1-0.9-2-0.9c-0.5,0-1,0.4-1.4,0.9c-0.1,0-0.9,0-1.2,0c-0.4-0.5-1-0.9-1.7-0.9c-0.5,0-1,0.4-1.4,0.9
			c-0.1,0-1.4,0-1.5,0c-0.5-0.4-0.9-0.9-1.4-0.9c-0.1,0-0.1,0-0.2,0c0.7-0.4,1.1-1.1,1.1-2c0-1.2-1.1-2.3-2.4-2.4
			c0.1-0.3,0.2-0.6,0.2-0.9c0-0.5-0.2-1-0.5-1.4c0.1-0.2,0.1-0.5,0.2-0.7c0.2,1.2,1.1,2,2.3,2c1.2,0,2.4-1.2,2.4-2.6
			c0-0.8-0.5-1.5-1.2-1.9c1.2-0.2,2-1.3,2-2.3c0-1.5-1-2.6-2.4-2.6c-1.2,0-2.4,1.2-2.4,2.6c0,0.8,0.5,1.5,1.2,2
			c-1,0.1-1.6,0.8-1.9,1.6c-0.3-0.9-1-1.6-2.2-1.6c-0.9,0-1.8,0.6-2.1,1.4c-0.4-0.8-1.2-1.4-2.2-1.4c-1.1,0-1.8,0.6-2.2,1.4
			c-0.4-0.8-1.2-1.4-2-1.4c0-0.2,0-0.3-0.1-0.5c0.8-0.1,1.6-0.7,1.9-1.4c0.4,0.8,1.2,1.5,2.1,1.5c1.1,0,1.8-0.7,2.2-1.5
			c0.4,0.9,1.3,1.5,2.3,1.5c1.2,0,2.4-1.2,2.4-2.3c0-0.9-0.4-1.6-1-2.1c0.2,0.1,0.5,0.1,0.7,0.1c1.4,0,2.3-1.1,2.3-2.6
			c0-1.1-0.9-2.3-2.3-2.3h0c0.1-0.2,0.1-0.5,0.1-0.7c0-0.3-0.1-0.6-0.1-0.9c1.4-0.1,2.2-1.2,2.2-2.4c0-0.1,0-0.2,0-0.2
			c0.3,0.1,0.5,0.1,0.8,0.1c0.9,0,1.8-0.6,2.2-1.6c0.4,0.7,1.1,1.1,2.1,1.1c1,0,1.9-0.6,2.2-1.5c0.4,0.7,1.1,1.1,2.1,1.1
			c1.2,0,2.4-0.9,2.4-2.4c0-1.2-1.1-2.3-2.4-2.3c-1.2,0-2,0.8-2.2,1.7c-0.4-0.7-1.2-1.3-2.1-1.3c-0.1,0-0.2,0-0.3,0.1
			c0.8-0.3,1.5-1.1,1.5-2.2c0-1.2-1.2-2.3-2.4-2.3c-1.4,0-2.5,1.1-2.5,2.3c0,1.4,1.1,2.4,2.5,2.4c0.1,0,0.3,0,0.3-0.1
			c-0.7,0.3-1.2,0.9-1.4,1.5c-0.2-0.3-0.5-0.6-0.9-0.8c-0.4-0.7-1.1-1.2-1.9-1.2c-0.5,0-0.9,0.1-1.2,0.3c-0.3-1.1-1.3-1.8-2.3-1.8
			c-0.3,0-0.5,0-0.7,0.1c0.2-0.2,0.4-0.4,0.7-0.7c0.4,0.5,1,0.8,1.6,0.8c1.5,0,2.4-1.2,2.4-2.4c0-1.4-1-2.4-2.4-2.4
			c-0.8,0-1.6,0.4-2,1.1c-0.5-0.5-1.1-0.7-1.9-0.7c-0.6,0-1.2,0.3-1.6,0.7c-0.4-0.4-1.1-0.7-1.6-0.7c-0.7,0-1.6,0.3-2,0.9
			c-0.2-0.9-0.8-1.7-1.6-2c0.4-0.5,0.6-1.1,0.6-1.6c0,0-0.1-0.3-0.1-0.5c0.1,0,0.2-0.1,0.2-0.1c0,0.2-0.1,0.4-0.1,0.6
			c0,1.2,1.1,2.3,2.3,2.3c1.5,0,2.4-1.2,2.4-2.3c0-1.5-0.9-2.4-2.4-2.4c-0.4,0-0.9,0.1-1.2,0.4c0-0.1,0-0.2,0-0.3
			c1.2-0.1,2.4-1.1,2.4-2.3c0-1.4-1.2-2.6-2.6-2.6c-1.2,0-2.2,1.1-2.3,2.3c-0.1,0.1-0.2,0.1-0.3,0.1c0-0.7-0.3-1.3-0.7-1.8
			c0.3-0.3,0.5-0.8,0.6-1.3c0.1-0.1,0.7-0.2,0.7-0.2s0.3-0.1,0.6-0.2c0.4,0.5,0.9,0.8,1.7,0.8c1.2,0,2-0.7,2.2-1.6
			c0.3,1,1.3,1.6,2.2,1.6c0.4,0,0.8-0.1,1.1-0.3c-0.1,0.2-0.1,0.3-0.2,0.6c-0.2-0.1-0.3-0.1-0.5-0.1c-1.3,0-2.3,1.1-2.3,2.6
			c0,1.2,0.9,2.4,2.3,2.4c-0.8,0.3-1.3,1.1-1.3,2.2c0,1.2,0.9,2.3,2.4,2.3c1.2,0,2.4-1.1,2.4-2.3c0-1.5-1.2-2.4-2.4-2.4
			c-0.1,0-0.1,0-0.2,0c0.8-0.3,1.5-1.2,1.5-2.1c0,0,0,0,0-0.1c0.1,0,0.1,0.1,0.2,0.1v0c0,1.1,1,2.2,2.2,2.4
			c-0.8,0.3-1.4,1.1-1.4,2.2c0,1.2,0.9,2.3,2.4,2.3c1.2,0,2.3-1.1,2.3-2.3c0-1.4-1.1-2.3-2.2-2.4c0.9-0.4,1.3-1.3,1.3-2.1
			c0-1.3-0.8-2.1-1.8-2.4c-0.1-0.1-0.2-0.4-0.4-0.8c0.6-0.3,1.2-0.6,1.4-1.1c0.3,0.9,1.2,1.4,2.1,1.4c0,0.1,0.1,0.5,0.3,0.9
			c-0.7,0.4-1.3,1.1-1.3,2c0,1.2,1.1,2.4,2.3,2.4c1.4,0,2.6-1.1,2.6-2.4c0,0-0.2-0.5-0.3-0.9c0.3-0.1,0.5-0.3,0.7-0.5
			c-0.1,0.2-0.1,0.5-0.1,0.8c0,1.1,0.6,2,1.6,2.4c-1.1,0.3-1.8,1.2-1.8,2.5c0,1,0.7,2.1,1.9,2.3c-0.7,0.4-1.1,1.2-1.1,2.2
			c0,1.2,0.9,2.4,2.3,2.4c1.2,0,2.4-1.1,2.4-2.4c0-1.2-0.9-2.3-2-2.5c0.7-0.4,1.1-1.2,1.1-2c0-0.3-0.1-0.7-0.2-1
			c-0.3-0.7-0.8-1.2-1.4-1.4c1-0.3,1.8-1.3,1.8-2.5c0-0.2,0-0.4-0.1-0.6c0.1,0,0.3,0,0.4,0c1.4,0,2.6-1.1,2.6-2.3
			c0-1.4-1.1-2.4-2.6-2.4c-0.8,0-1.6,0.4-2,1.1c0-0.1,0-0.2,0-0.3c0-1.2-1.2-2.4-2.4-2.4c-1.2,0-2.1,0.9-2.3,1.9
			c-0.1-0.7-0.5-1.2-1.2-1.5c0-0.1,0.1-0.3,0.1-0.3c0-0.2,0-0.4,0-0.6c1.2,0,2.2-0.7,2.4-1.8c0.2,1.1,1.2,1.8,2.2,1.8
			c1.4,0,2.4-0.9,2.4-2.3c0-0.8-0.5-1.5-1.2-1.9c0-0.3-0.1-0.5-0.1-0.7c0.9-0.1,1.6-0.7,2-1.5c0.1,0.8,0.5,1.5,1.1,1.8
			c-1,0.3-1.8,1.2-1.8,2.3c0,1.4,1.2,2.3,2.4,2.3c0.1,0,0.3,0,0.4,0c-0.1,0.3-0.1,0.5-0.1,0.8c0,1.2,1.1,2.3,2.3,2.3
			c1.4,0,2.6-1.1,2.6-2.3c0-1.3-1.1-2.4-2.6-2.4c-0.1,0-0.3,0-0.4,0c0.1-0.2,0.1-0.5,0.1-0.7c0-0.8-0.4-1.6-1.2-2
			c0.5-0.2,0.9-0.5,1.3-1c0.1,0.1,0.2,0.1,0.3,0.1c0.1,0.1,0.2,0.3,0.2,0.3s0-0.2,0-0.3c0.3,0.1,0.6,0.3,0.9,0.3
			c1.2,0,2.4-1.1,2.4-2.4c0-0.9-0.6-1.7-1.4-2.1c0.9-0.3,1.6-1.2,1.6-2.2c0.2,0.1,0.5,0.1,0.7,0.1c0.1,0,0.2,0,0.3,0
			c0.1,1.1,1.2,2.3,2.4,2.3c1.4,0,2.3-1.2,2.3-2.4c0-1.1-0.9-2.3-2.1-2.3h-0.2c-0.1,0-0.3,0-0.3,0c0,0,0-0.1,0-0.1
			c0-1.2-1.2-2.3-2.4-2.3c-1.4,0-2.6,1.1-2.6,2.3c0,0,0,0.1,0,0.2c-0.1,0-0.3-0.1-0.5-0.1c-1.4,0-2.3,1-2.3,2.3
			c0,0.9,0.5,1.7,1.3,2.1c-0.5,0.2-0.8,0.5-1.1,1c-0.4-0.3-0.9-0.5-1.4-0.5c-0.9,0-1.8,0.6-2.2,1.5c-0.1-1.3-1.2-2.1-2.4-2.1
			c-0.3,0-0.5,0-0.7,0.1c0-0.2,0-0.3,0-0.4c0,0,0-0.1,0-0.2c0.7-0.2,1.3-0.7,1.5-1.4c0.3,1,1.3,1.6,2.3,1.6c1.5,0,2.6-1,2.6-2.4
			c0-1.3-1.2-2.3-2.6-2.3c-0.1,0-0.3,0-0.5,0.1c0.2-0.4,0.3-0.8,0.3-1.2c0,0-0.1-0.4-0.2-0.9c0.6-0.4,1-1,1-1.8c0-0.1,0-0.3,0-0.5
			c0.3,0.2,0.8,0.4,1.2,0.4c0.3,0,0.6-0.1,0.9-0.2c0,0,0,0,0,0.1c0,1.2,1.2,2.4,2.4,2.4c1.4,0,2.6-1.1,2.6-2.4
			c0-1.4-1.1-2.5-2.6-2.5c-0.3,0-0.6,0.1-0.9,0.2c0-0.4-0.3-0.6-0.5-0.9c0.5,0,1,0,1,0s-0.4-0.2-0.6-0.3c0.5-0.4,0.9-0.9,0.9-1.6
			c0.2,0,0.3,0,0.5,0c1.2,0,2.4-0.9,2.4-2.3c0-0.5-0.2-1-0.6-1.4c0.6-0.4,0.9-1.1,1-1.7c0.3,0.6,0.9,0.9,1.7,0.9
			c0.5,0,1.1-0.2,1.4-0.6c0,0.2,0,0.3,0,0.5c0,1.4,0.9,2.3,2.3,2.4c-0.5,0.5-0.9,1.1-0.9,1.7c0,1.5,1.2,2.4,2.4,2.4
			c1.4,0,2.3-0.9,2.3-2.4c0-1.1-0.8-2.3-2.2-2.3c0.5-0.4,0.8-1,0.8-1.8c0-1-0.8-2-1.8-2.3c0.2-0.2,0.3-0.4,0.4-0.7
			c0.4,0.9,1.2,1.4,2.3,1.4c1,0,2-0.6,2.3-1.6c0.3,1,1.1,1.6,2.2,1.6c1,0,2-0.6,2.3-1.7c0.2,0.6,0.7,1,1.3,1.3
			c-0.2,0.3-0.3,0.7-0.3,1.1c0,0.9,0.4,1.6,1,2.1c-0.3-0.1-0.6-0.1-1-0.1c-1.1,0-2.3,0.9-2.3,2.3c0,1.2,1.1,2.3,2.3,2.3
			c1.4,0,2.6-1.1,2.6-2.3c0-0.8-0.3-1.4-0.9-1.8c0.2,0.1,0.4,0.1,0.6,0.1c1.4,0,2.4-1.1,2.4-2.6c0-0.8-0.6-1.5-1.4-1.9
			c0.1-0.1,0.1-0.3,0.2-0.5c0.3,1,1.1,1.7,2.3,1.7c1,0,2-0.6,2.2-1.6c0.3,0.9,0.9,1.5,1.9,1.6c-0.6,0.4-1,1.1-1,2
			c0,1.1,0.9,2.4,2.4,2.4c0.2,0,0.4,0,0.6-0.1c-0.3,0.4-0.5,0.9-0.5,1.4c0,1.4,0.9,2.4,2.3,2.4c1.2,0,2.4-0.9,2.4-2.4
			c0-1.2-1.1-2.3-2.4-2.3c-0.2,0-0.4,0-0.6,0.1c0.3-0.4,0.5-0.9,0.5-1.4c0-1.4-1-2.2-2.1-2.3c0.4-0.3,0.8-0.7,0.9-1.3
			c0.3,1,1.1,1.6,2.2,1.6c1.2,0,2.4-0.9,2.4-2.3c0-0.7-0.4-1.3-0.9-1.8c0.1,0,0.1,0,0.1,0c1.4,0,2.4-0.9,2.4-2.3
			c0-1.1-0.9-2.3-2.4-2.3c-1.2,0-2.3,1.1-2.3,2.3c0,0.7,0.3,1.3,0.8,1.8c0,0,0,0-0.1,0c-1.2,0-2,0.8-2.2,1.7c-0.2-0.5-0.5-1-1-1.3
			c0.1,0,0.1,0,0.2,0c1.4,0,2.3-0.9,2.3-2.4c0-1.1-0.9-2.3-2.3-2.3c-1.2,0-2.4,1.2-2.4,2.3c0,0.9,0.5,1.6,1.1,2c0,0-0.1,0-0.1,0
			c-1.2,0-2,0.8-2.3,1.7c-0.3-1-1.2-1.7-2.2-1.7c-1.2,0-2,0.8-2.3,1.7c-0.2-0.5-0.5-1-0.9-1.3c0.8-0.3,1.4-1.1,1.4-2.2
			c0-0.2,0-0.4-0.1-0.6c1.2-0.2,1.9-1.3,1.9-2.3c0-1.5-1-2.6-2.4-2.6c-1.2,0-2.3,1.2-2.3,2.6c0,0.2,0,0.4,0.1,0.5
			c-1.2,0.2-1.9,1.3-1.9,2.3c0,0.9,0.3,1.6,0.9,2c-0.6,0.3-1.1,0.8-1.2,1.5c-0.3-1-1.2-1.7-2.2-1.7c-0.2,0-0.5,0-0.7,0.1
			c0-1.4-1.1-2.6-2.3-2.6c-1.4,0-2.4,1.1-2.4,2.6c0,0,0,0.1,0.1,0.2c-0.6,0.3-1.2,0.7-1.5,1.2c-0.3-0.6-0.9-1.2-1.6-1.4
			c0.6-0.4,0.9-1.1,0.9-1.9c0-1.3-1.2-2.3-2.6-2.3c0,0-0.4,0.1-0.6,0.2c0.2-0.3,0.3-0.6,0.4-0.9c0.3,0.1,0.6,0.3,0.6,0.3
			c0.4,0,0.8-0.1,1.1-0.3c0.3,1.2,1.2,2.1,2.3,2.1c1.4,0,2.4-1.1,2.4-2.6c0-1.1-0.9-2.3-2.4-2.3c-0.3,0-0.7,0.1-1,0.2
			c-0.2-0.9-1.1-1.6-2-1.8c0.2-0.2,0.3-0.4,0.4-0.7c0.3,1,1.3,1.7,2.2,1.7c1.2,0,2-0.6,2.3-1.6c0.3,1,1.3,1.6,2.3,1.6
			c1.1,0,2-0.6,2.3-1.6c0.3,1,1.3,1.6,2.2,1.6c1.1,0,2-0.6,2.2-1.6c0.3,1,1.3,1.6,2.2,1.6c1.2,0,2-0.6,2.3-1.6
			c0.3,1,1.3,1.6,2.2,1.6c-0.1,0.2-0.1,0.5-0.1,0.7c0,1.2,0.9,2.4,2.4,2.4c1.2,0,2.3-1.1,2.3-2.4c0-0.3,0-0.5-0.1-0.7
			c1.5,0,2.6-1,2.6-2.3c0-0.5-0.2-1-0.5-1.3c0,0,0.1,0,0.2,0c1.1,0,2.4-0.9,2.4-2.4c0-1.2-1.1-2.3-2.4-2.3c-1.5,0-2.4,1.2-2.4,2.3
			c0,0.6,0.1,1,0.4,1.4c-0.1,0-0.2,0-0.3,0c-0.9,0-1.8,0.7-2.2,1.5c-0.4-0.9-1.3-1.5-2.3-1.5c-1,0-2,0.8-2.2,1.7
			c-0.3-0.9-1.1-1.7-2.3-1.7c-0.1,0-0.3,0-0.4,0.1c0.1-0.2,0.1-0.5,0.1-0.8c0-1.2-1.1-2.4-2.4-2.4c-1.4,0-2.3,1.2-2.3,2.4
			c0,0.3,0,0.5,0.1,0.8c-0.8,0.2-1.6,0.9-1.8,1.7c-0.3-0.9-1-1.7-2.2-1.7c0.5-0.4,0.8-1,0.8-1.7c0-1.2-1.2-2.3-2.4-2.3
			c-0.6,0-1.1,0.2-1.4,0.5c-0.1-0.3-0.3-0.5-0.4-0.7c0.9,0,1.5-0.5,2-1.1c0,0,0.1,0.2,0.1,0.2s0-0.2,0-0.2c0.3,0.1,0.5,0.2,0.9,0.2
			c0.5,0,0.8-0.1,1.1-0.3c0,0.1,0,0.1,0,0.2c0,1.5,1,2.6,2.4,2.6c1.2,0,2.3-1.2,2.3-2.6c0-0.7-0.5-1.5-1.1-1.9
			c0.7-0.5,1.1-1.3,1.1-2.1c0-1.2-1.2-2.4-2.3-2.4c-1.4,0-2.2,1-2.4,2.1c-0.3-0.2-0.7-0.2-1.1-0.2c0.1-0.2,0.1-0.5,0.1-0.7
			c0-1.1-1-2.2-2.2-2.3c0.5-0.3,0.8-0.7,1-1.1c0.1,0,0.2,0,0.2,0c0.3,1,1.2,1.7,2.1,1.7c1.5,0,2.6-1,2.6-2.3c0-0.1,0-0.2,0-0.4
			c0.3,0.2,0.7,0.3,1,0.3c0,0,0.1,0,0.1,0c-0.3,0.4-0.4,0.9-0.4,1.5c0,1,0.8,2,2,2.2c-0.1,0.2-0.2,0.5-0.2,0.5
			c0,1.2,0.9,2.3,2.4,2.3c1.2,0,2.4-1.1,2.4-2.3c0-0.3-0.1-0.6-0.1-0.8c1-0.3,1.8-1.3,1.8-2.5c0-0.3-0.1-0.6-0.2-1
			c0.1,0,0.2,0,0.3,0c1.4,0,2.3-1.2,2.3-2.4c0-1.1-0.5-2-1.4-2.3c1.4-0.1,2.4-1.2,2.4-2.5c0-1.3-1.2-2.4-2.6-2.4
			c-0.5,0-1,0.2-1.4,0.5c-0.3-1-1.3-1.8-2.5-1.8c-1.2,0-2.4,1.1-2.4,2.3c0,1.5,1.2,2.3,2.4,2.3c0.7,0,1.2-0.2,1.6-0.5
			c0.2,0.8,0.8,1.4,1.4,1.7c-1.2,0-2.3,1.2-2.3,2.5c0,0.3,0.1,0.7,0.3,1c-0.1,0-0.3,0-0.4,0c-0.8,0-1.6,0.4-2,1
			c-0.4-0.3-0.9-0.5-1.4-0.5c0,0-0.1,0-0.1,0c0.3-0.4,0.4-0.9,0.4-1.4c0,0,0-0.1,0-0.2c1-0.1,2-0.9,2-2.2c0-1.2-1.1-2.3-2.4-2.3
			c-0.2,0-0.4,0-0.6,0.1c0.2-0.3,0.3-0.8,0.3-1.2c0-0.6-0.2-1.1-0.6-1.6c0,0,0,0,0.1,0c0.7,0,1.3-0.5,1.8-1.2
			c0.2,0.1,0.5,0.1,0.5,0.1c1.4,0,2.4-1,2.4-2.3c0-0.2,0-0.4-0.1-0.5c0.2,0.1,0.4,0.3,0.6,0.4c0,0.1-0.1,0.5-0.1,0.5
			c0,1.4,1.2,2.3,2.3,2.3c1.4,0,2.4-0.9,2.4-2.3c0-0.9-0.6-1.6-1.4-2c0.1-0.2,0.1-0.5,0.1-0.5c0-0.1,0-0.1,0-0.1c0.2,0,0.3,0,0.5,0
			c1.2,0,2.3-1.1,2.3-2.3c0-0.3,0-0.6-0.1-0.8c0.1,0,0.2,0,0.2,0c-0.1,0.2-0.1,0.5-0.1,0.8c0,0.7,0.3,1.3,0.6,1.7
			c-0.7,0.4-1,1.1-1,2c0,1.1,0.9,2.4,2.3,2.4c1.2,0,2.4-1.2,2.4-2.4c0-0.7-0.3-1.3-0.7-1.7c0.5-0.3,0.8-0.7,1-1.2
			c0.2,0.1,0.4,0.1,0.7,0.1c0.7,0,1.3-0.3,1.8-0.7c0.4,0.8,1.2,1.3,2.1,1.3c1.4,0,2.6-1.1,2.6-2.3c0-1.3-1.1-2.4-2.6-2.4
			c-0.6,0-1.2,0.2-1.6,0.6c-0.4-0.7-1.3-1.2-2.3-1.2c-0.9,0-1.9,0.6-2.2,1.6c-0.1-0.1-0.3-0.1-0.5-0.1c0.1-0.2,0.1-0.5,0.1-0.8
			c0-0.7-0.3-1.4-1-1.9c0.5-0.3,0.9-0.9,1.1-1.5c0.2,1.3,1.2,2.1,2.2,2.1c0.6,0,1.3-0.3,1.7-0.7c0.4,0.8,1.2,1.5,2.2,1.5
			c1.5,0,2.3-1.2,2.3-2.3c0-1.5-0.9-2.5-2.3-2.5c0-0.2,0.1-0.3,0.1-0.6c0,0-0.1-0.4-0.1-0.6c0.9-0.3,1.5-1,1.5-2c0-0.1,0-0.2,0-0.4
			c0.4,0.4,1,0.7,1.6,0.7c1.4,0,2.3-1.2,2.3-2.3c0-1.4-0.9-2.4-2.3-2.4c-0.1,0-0.2,0-0.3,0c0.2-0.3,0.4-0.7,0.4-1.1
			c0-0.2-0.2-0.4-0.2-0.7c0.2,0,0.3,0.1,0.5,0.1c0.4,0,0.8-0.1,1.2-0.3c-0.1,0.3-0.3,0.6-0.3,1c0,1.4,0.9,2.3,2.4,2.3
			c0,0,0.2,0,0.4-0.1c0.5,0.6,1.1,1.1,1.8,1.1c1.4,0,2.6-1.1,2.6-2.3c0-0.2-0.1-0.5-0.1-0.7c0.5-0.1,1-0.3,1.4-0.7
			c0.2,0.7,0.7,1.3,1.4,1.6c-0.1,0-0.2,0-0.3,0c-1.5,0-2.6,1-2.6,2.4c0,0.2,0.1,0.5,0.1,0.7c-0.1,0-0.1,0-0.2,0
			c-1.4,0-2.4,1-2.4,2.5c0,1.2,0.9,2.3,2.4,2.3c1.2,0,2.3-1.1,2.3-2.3c0-0.3-0.1-0.7-0.2-1c0.2,0,0.3,0.1,0.5,0.1
			c0.6,0,1.2-0.3,1.6-0.7c0,0.1,0,0.2,0,0.4c0,1.4,1.2,2.6,2.6,2.6c0.1,0,0.2,0,0.3,0c0,0.1,0,0.2,0,0.3c0,1.2,1.1,2.4,2.3,2.4
			c1.5,0,2.4-1.2,2.4-2.4c0-1.1-0.9-2.3-2.4-2.3c-0.1,0-0.2,0-0.4,0c0-0.2,0.1-0.4,0.1-0.5c0-0.3-0.1-0.5-0.2-0.8c0.2,0,0.3,0,0.5,0
			c1.5,0,2.4-1.2,2.4-2.3c0-1.5-1-2.6-2.4-2.6c-1.2,0-2.3,1.2-2.3,2.6c0,0.2,0,0.5,0.1,0.7c-0.1,0-0.3,0-0.5,0
			c-0.7,0-1.3,0.3-1.8,0.7c0-0.1,0-0.2,0-0.4c0-1.1-0.7-1.9-1.5-2.2c0.1,0,0.3,0,0.4,0c1.2,0,2.4-1.2,2.4-2.4c0-1.5-1.2-2.3-2.4-2.3
			c-0.7,0-1.2,0.2-1.6,0.6c-0.2-0.7-0.7-1.3-1.4-1.6c1.1,0,1.9-0.7,2.2-1.7c0.3,0.2,0.7,0.3,1.1,0.3c0.7,0,1.3-0.3,1.7-0.7
			c0.4,0.5,1,0.7,1.8,0.7c0.2,0,0.5,0,0.7-0.1c-0.1,0.3-0.1,0.5-0.1,0.8c0,1.2,1.1,2.3,2.3,2.3c0.9,0,1.7-0.5,2.2-1.1
			c0.2,1.2,1.3,2,2.3,2c1.5,0,2.6-1,2.6-2.4c0-1.2-1.2-2.3-2.6-2.3c-0.8,0-1.6,0.5-2,1.2c-0.2-1.2-1.2-2-2.6-2c-0.2,0-0.4,0-0.7,0.1
			c0.1-0.3,0.1-0.5,0.1-0.8c0-1.2-1.1-2.4-2.4-2.4c-0.7,0-1.3,0.3-1.6,0.7c-0.1-0.1-0.2-0.2-0.3-0.3c1.3-0.1,2.2-1,2.2-2.3
			c0-1.2-0.9-2.3-2.4-2.3c0,0-0.1,0-0.1,0c0.2-0.2,0.3-0.4,0.5-0.6c0.4,0.3,0.9,0.5,1.5,0.5c1.1,0,2.3-0.9,2.3-2.3
			c0,0-0.2-0.3-0.2-0.4c0.3,0.2,0.6,0.3,0.9,0.3c0,0,0.3-0.1,0.5-0.2c0.2,1.1,1.2,2,2.2,2c0,0,0.5-0.2,1.1-0.4
			c0.2,0.5,0.6,0.9,1.1,1.1c-0.4,0.4-0.6,1-0.6,1.7c0,1.1,0.9,2.3,2.3,2.3c1.2,0,2.4-1.2,2.4-2.3c0-1.1-0.7-1.9-1.5-2.2
			c0.4-0.4,0.7-1,0.7-1.7c0-0.7-0.2-1.2-0.6-1.6c0.1-0.2,0.3-0.3,0.4-0.6c1.1-0.3,1.9-1.1,1.9-2.1c0-0.1,0-0.2-0.1-0.3
			c0.1,0,0.3,0,0.3,0c1.3,0,2.4-1.2,2.4-2.5c0-1-0.7-1.9-1.7-2.2c0.2-0.3,0.3-0.7,0.3-1.1c0,0-0.3-0.5-0.5-1
			c0.1-0.1,0.1-0.1,0.2-0.1c0.3,0.1,0.6,0.2,0.6,0.2c0.2,0,0.4,0,0.6-0.1c-0.3,0.4-0.5,0.9-0.5,1.4c0,0.9,0.7,1.8,1.6,2.2
			c-0.1,0.3-0.2,0.6-0.2,0.9c0,0.4,0.1,0.8,0.3,1.2c-0.8,0.4-1.3,1.2-1.3,2.1c0,1.5,0.9,2.4,2.4,2.4c1.2,0,2.4-0.9,2.4-2.4
			c0-0.3-0.1-0.7-0.3-1c0.5-0.3,0.9-0.8,1.2-1.4c0.3,0.2,0.8,0.3,1.2,0.3c1.2,0,2.4-0.9,2.4-2.3c0-1.2-1.2-2.4-2.4-2.4
			c-1.2,0-2,0.8-2.2,1.7c-0.1-0.1-0.2-0.1-0.3-0.2c0.1-0.3,0.2-0.6,0.2-0.9c0-0.6-0.2-1.1-0.5-1.5c0.4,0.3,0.9,0.5,1.4,0.5
			c1.4,0,2.5-1.1,2.5-2.3c0-1.4-1.1-2.4-2.5-2.4c-1.2,0-2.4,0.9-2.4,2.4c0,0.5,0.2,1,0.5,1.4c-0.4-0.3-0.9-0.5-1.5-0.5
			c-0.3,0-0.5,0-0.8,0.1c0.3-0.4,0.5-0.9,0.5-1.4c0-0.5-0.2-1-0.5-1.3c0.3,0.2,0.6,0.4,1,0.4c1,0,2-0.8,2.2-2
			c0.3,0.1,0.5,0.4,0.9,0.4c0.5,0,0.9-0.1,1.2-0.3c0.5,0.6,1.1,1.1,1.8,1.1c0.3,0,0.5,0,0.7-0.1c-0.3,0.4-0.5,1-0.5,1.6
			c0,1,0.6,1.9,1.6,2.2c-0.6,0.4-0.8,1-0.8,1.8c0,1.1,0.9,2.4,2.3,2.4c1.2,0,2.4-1.1,2.4-2.4c0-1.2-0.8-2-1.7-2.2l0,0
			c0.5-0.5,0.9-1.1,0.9-1.8c0-1.5-1.2-2.4-2.3-2.4c-0.3,0-0.5,0-0.8,0.1c0.5-0.4,0.7-1,0.7-1.6c0-1.4-0.9-2.3-2.4-2.3
			c-0.5,0-0.8,0.1-1.1,0.3c-0.3-0.5-0.9-0.8-1.4-1c0,0,0-0.1,0-0.1c0.5-0.3,0.8-0.8,0.9-1.4c0.3,0,0.5-0.1,0.7-0.3
			c0.1,1.1,1.2,2.1,2.4,2.1c0.8,0,1.6-0.4,2-1c0.1,0.1,0.2,0.1,0.3,0.2c-0.5,0.4-0.8,1-0.8,1.7c0,1.4,1.1,2.6,2.4,2.6
			c1.4,0,2.6-1.1,2.6-2.6c0-0.8-0.5-1.6-1.3-2c0.5-0.4,0.7-1,0.7-1.7v0c0.4,0.9,1.2,1.6,2.2,1.6c1.4,0,2.6-1.1,2.6-2.5
			c0-1.3-1.2-2.4-2.6-2.4c-1.2,0-2.4,1.2-2.4,2.4c0,0,0,0,0,0.1c-0.2-0.4-0.4-0.7-0.7-1c0.3-0.4,0.7-0.8,0.7-1.4
			c0-0.9-0.7-1.6-1.4-2c0.1-0.1,0.1-0.1,0.2-0.2c0.4,0.3,0.9,0.6,1.4,0.6c0.8,0,1.4-0.4,1.9-1c0.4,0.2,0.7,0.6,1.2,0.6
			c0.2,0,0.4,0,0.6-0.1c0.3,1.1,1.3,1.7,2.3,1.7c1.4,0,2.4-0.9,2.4-2.3c0-1.1-0.9-2.3-2.4-2.3c-0.2,0-0.5,0-0.7,0.1
			c-0.1-0.1-0.1-0.3-0.2-0.4c0.2,0.1,0.4,0.3,0.7,0.3c1.1,0,1.9-0.8,2.1-1.8c0.7-0.4,1.2-1.1,1.2-2c0,0,0-0.1-0.1-0.2
			c0.2-0.1,0.4-0.1,0.6-0.3c0.4,0.4,0.9,0.8,1.6,0.8c1.5,0,2.6-1,2.6-2.3c0-0.5-0.2-1-0.5-1.3c0.7-0.3,1.2-0.9,1.4-1.6
			c0.3,0.1,0.5,0.1,0.8,0.1c0.3,0,0.5,0,0.7-0.1c0,1.4,1.2,2.3,2.4,2.3c1.4,0,2.3-0.9,2.3-2.3c0-1.1-0.9-2.3-2.3-2.3
			c-0.2,0-0.4,0-0.5,0.1c-0.1-0.3-0.4-0.5-0.6-0.9c0.8-0.3,1.3-1,1.5-1.8c0.1,1.4,1,2.4,2.3,2.4c1.2,0,2.4-1.2,2.4-2.6
			c0-0.7-0.4-1.2-0.9-1.7c0.3-0.4,0.5-0.9,0.5-1.4c0-0.3,0-0.5-0.1-0.7c0.4,0.4,1,0.6,1.5,0.6c0.8,0,1.4-0.3,1.8-0.9
			c0.4,0.3,0.9,0.5,1.4,0.5c1.5,0,2.6-1,2.6-2.4c0-1.2-1.2-2.3-2.6-2.3c0,0,0,0-0.1,0c0.1-0.2,0.3-0.4,0.3-0.7
			c0.3,0.1,0.6,0.3,0.6,0.3c0.4,0,0.8-0.1,1.1-0.3c0,1.5,1.2,2.3,2.4,2.3c1.5,0,2.5-1,2.5-2.3c0-0.7-0.3-1.3-0.9-1.8
			c1.4,0,2.6-1.1,2.6-2.3c0-0.8-0.4-1.3-1-1.7c0.3-0.4,0.6-0.8,0.6-1.3c0-0.7-0.3-1.3-0.7-1.8c0.2-0.1,0.3-0.1,0.5-0.2
			c0.4,0.1,0.9,0.3,0.9,0.3c1.4,0,2.5-1.1,2.5-2.3c0-0.1-0.1-0.2-0.1-0.4c0.2,0.1,0.4,0.3,0.6,0.3c0.3,0,0.5,0,0.7-0.1
			c-0.5,0.4-0.7,1.1-0.7,1.8c0,1.2,1.2,2.3,2.6,2.3c1.2,0,2.3-1.1,2.3-2.3c0-1.4-1.1-2.6-2.3-2.6c-0.2,0-0.4,0-0.5,0.1
			c0.4-0.4,0.6-1,0.6-1.6c0,0,0-0.1-0.1-0.2c0.9-0.3,1.7-1.1,1.7-2c0-0.4-0.3-0.7-0.5-1.1c0.5-0.4,0.9-1,0.9-1.8
			c0-0.6-0.2-1.1-0.5-1.5c0.1,0,0.1-0.1,0.2-0.1c0.4,0.7,1.1,1.3,1.9,1.3c1.5,0,2.4-1.2,2.4-2.3c0-1.1-0.7-1.8-1.6-2.1
			c0.8-0.3,1.4-1,1.5-2c0.1-0.2,0.2-0.3,0.4-0.5c1,0,1.7-0.8,2.1-1.7c1.1-0.1,2-0.9,2.2-1.9c0.8-0.4,1.4-1.3,1.4-2.2
			C379.8,1.2,378.7,0,377.4,0z M156.3,86.8c-1.4,1.4-4.1,1-6.2,0c-2.6-1.2-0.6-2.9-1.8-3.7c-1.7-0.8-6.2,1-8.4-1
			c-4.5-4.7-1.2-8.8,0.4-9.8c2.9-1.4,5.5,0.8,6.3,0.2c0.7-0.4,0.3-1.4,0.3-2c0.2-1.2-1.3-2.2-0.3-3.9c0.9-1.4,2.9-2.7,4.1-2.2
			c2.2,0.2,4.3,3.1,3.1,5.3c-0.6,1.6-3.9,2.2-4.7,3.3c-1,1.5-0.8,3.9,0.2,5.1c1.2,1.6,5.3,0.8,6.6,2.5
			C157.1,82,157.5,85.1,156.3,86.8z"/>
	</g>
	<path class="st0" d="M241.9,145.8L241.9,145.8C241.8,145.8,241.9,145.8,241.9,145.8L241.9,145.8z"/>
	<path class="st0" d="M235,149.7c0.5,0.5,1.1,0.8,1.7,0.8c0.4,0,0.7-0.2,1-0.4c0,0,0,0.2,0.1,0.5c-0.3,0.1-0.5,0.2-0.7,0.3
		c-0.4-0.1-1-0.3-1-0.3c-0.7,0-1.2,0.3-1.6,0.7c0-0.2-0.1-0.3-0.2-0.6c0.1-0.2,0.1-0.2,0.2-0.5C234.7,150,234.8,149.9,235,149.7
		L235,149.7z"/>
	<path class="st0" d="M236.6,145.6c0.4,0.1,0.8,0.2,0.8,0.2s0.2,0,0.5-0.1c0.1,0.2,0.1,0.4,0.2,0.6c-0.4-0.2-0.8-0.5-1.3-0.5
		c-0.1,0-0.3,0.1-0.4,0.1C236.4,145.8,236.5,145.7,236.6,145.6L236.6,145.6z"/>
	<path class="st0" d="M348.7,52.9c0,1.2,0.9,2.3,2.4,2.3c1.2,0,2.3-1.1,2.3-2.3c0-1.2-1.1-2.4-2.3-2.4
		C349.6,50.6,348.7,51.8,348.7,52.9L348.7,52.9z"/>
	<path class="st0" d="M344.2,102.5c0,1.4,0.9,2.4,2.4,2.4c1.1,0,2.3-0.9,2.3-2.4c0-1.2-1.1-2.3-2.3-2.3
		C345.1,100.2,344.2,101.3,344.2,102.5L344.2,102.5z"/>
	<path class="st0" d="M350.9,99.6c0,1.2,1.2,2.3,2.4,2.3c1.5,0,2.4-1.2,2.4-2.3c0-1.5-1-2.5-2.4-2.5
		C352.1,97.1,350.9,98.3,350.9,99.6L350.9,99.6z"/>
	<path class="st0" d="M360.6,100.1c0,1.2,1.2,2.3,2.6,2.3c1.2,0,2.3-1.1,2.3-2.3c0-1.5-1.2-2.3-2.3-2.3
		C361.6,97.7,360.6,98.7,360.6,100.1L360.6,100.1z"/>
	<path class="st0" d="M356.5,104.4c0,1.2,1.2,2.3,2.6,2.3c1.2,0,2.3-1.2,2.3-2.3c0-1.5-1.1-2.3-2.3-2.3
		C357.6,102,356.5,103,356.5,104.4L356.5,104.4z"/>
	<path class="st0" d="M365.5,95.3c0,1.2,0.9,2.3,2.4,2.3c1.2,0,2.3-1.1,2.3-2.3c0-1.3-1.1-2.5-2.3-2.5
		C366.5,92.8,365.5,93.9,365.5,95.3L365.5,95.3z"/>
	<path class="st0" d="M340.1,56.8c0,1.2,0.9,2.4,2.4,2.4c1.2,0,2.4-1.2,2.4-2.4c0-1.4-1.1-2.6-2.4-2.6
		C341.1,54.3,340.1,55.4,340.1,56.8L340.1,56.8z"/>
	<path class="st0" d="M354.2,49.1c0,1.2,1.2,2.3,2.4,2.3c1.4,0,2.3-1.2,2.3-2.3c0-1.5-0.9-2.4-2.3-2.4
		C355.4,46.7,354.2,47.6,354.2,49.1L354.2,49.1z"/>
	<path class="st0" d="M364.7,38.4c0,1.4,1.1,2.4,2.6,2.4c1.2,0,2.4-0.9,2.4-2.4c0-1.2-1.2-2.4-2.4-2.4
		C365.8,36,364.7,37.2,364.7,38.4L364.7,38.4z"/>
	<path class="st0" d="M358,32c-0.1,0-0.1,0-0.2,0c-0.4,0-0.8,0.1-1.1,0.3c0-0.1,0-0.2,0-0.3c0,0-0.1-0.3-0.2-0.7
		c0.3-0.3,0.5-0.5,0.7-0.9C357.3,31,357.6,31.6,358,32L358,32z"/>
	<path class="st0" d="M357.1,43.1c0,1.5,1,2.6,2.4,2.6c1.2,0,2.4-1.2,2.4-2.6c0-1.2-1.2-2.3-2.4-2.3C358,40.8,357.1,41.9,357.1,43.1
		L357.1,43.1z"/>
	<path class="st0" d="M321.7,64.2c-0.5-0.4-1.1-0.7-1.8-0.7c0,0-0.1,0-0.1,0c0,0,0,0,0,0h0.1c0.4,0,0.8-0.1,1.2-0.3
		C321.2,63.5,321.5,63.8,321.7,64.2C321.7,64.1,321.7,64.1,321.7,64.2L321.7,64.2z"/>
	<path class="st0" d="M363,29.8c0,1.5,1.2,2.3,2.3,2.3c1.4,0,2.4-0.9,2.4-2.3c0-1.2-0.9-2.3-2.4-2.3C364.2,27.5,363,28.6,363,29.8
		L363,29.8z"/>
	<path class="st0" d="M370.2,21c0,1.4,1,2.4,2.4,2.4c1.2,0,2.4-0.9,2.4-2.4c0-1.2-1.1-2.3-2.4-2.3C371.1,18.6,370.2,19.8,370.2,21
		L370.2,21z"/>
	<path class="st0" d="M370.4,41.1c0,1.1,0.9,2.3,2.4,2.3c1.2,0,2.4-1.1,2.4-2.3c0-1.5-1.2-2.4-2.4-2.4
		C371.3,38.7,370.4,39.7,370.4,41.1L370.4,41.1z"/>
	<path class="st0" d="M354.6,63.6c0,1.4,1.2,2.3,2.4,2.3c1.4,0,2.4-0.9,2.4-2.3c0-1.2-0.9-2.4-2.4-2.4
		C355.8,61.2,354.6,62.4,354.6,63.6L354.6,63.6z"/>
	<path class="st0" d="M350.5,61.6c0,1.2,1.1,2.3,2.3,2.3c1.5,0,2.4-1.2,2.4-2.3c0-1.5-1-2.4-2.4-2.4
		C351.7,59.2,350.5,60.1,350.5,61.6L350.5,61.6z"/>
	<path class="st0" d="M341.4,65.4c0,1.2,1.1,2.3,2.3,2.3c1.5,0,2.4-1.2,2.4-2.3c0-1.5-1-2.6-2.4-2.6
		C342.4,62.9,341.4,64.1,341.4,65.4L341.4,65.4z"/>
	<path class="st0" d="M335.8,68.9c0,1.5,1,2.6,2.3,2.6c1.2,0,2.4-1.2,2.4-2.6c0-1.2-1.1-2.3-2.4-2.3
		C336.6,66.6,335.8,67.7,335.8,68.9L335.8,68.9z"/>
	<path class="st0" d="M330.9,68.7c0,1.4,1.2,2.5,2.6,2.5c1.2,0,2.3-1.2,2.3-2.5c0-1.2-1.1-2.4-2.3-2.4
		C332.1,66.3,330.9,67.5,330.9,68.7L330.9,68.7z"/>
	<path class="st0" d="M346.6,83c0,1.2,1.2,2.3,2.4,2.3c1.4,0,2.3-1.2,2.3-2.3c0-1.4-0.9-2.3-2.3-2.3C347.9,80.7,346.6,81.6,346.6,83
		L346.6,83z"/>
	<path class="st0" d="M370.4,95.3c0,1.2,0.9,2.3,2.4,2.3c1.2,0,2.4-1.1,2.4-2.3c0-1.3-1.1-2.5-2.4-2.5
		C371.4,92.8,370.4,93.9,370.4,95.3L370.4,95.3z"/>
	<path class="st0" d="M360.4,70.4c0,1.2,1.2,2.3,2.5,2.3c1.2,0,2.4-1.2,2.4-2.3c0-1.5-1.2-2.3-2.4-2.3C361.4,68,360.4,69,360.4,70.4
		L360.4,70.4z"/>
	<path class="st0" d="M370.4,61.1c0,1.1,0.9,2.3,2.4,2.3c1.2,0,2.4-1.1,2.4-2.3c0-1.4-1.1-2.6-2.4-2.6
		C371.4,58.6,370.4,59.7,370.4,61.1L370.4,61.1z"/>
	<path class="st0" d="M364.7,61.3c0,1.3,1.2,2.4,2.6,2.4c1.2,0,2.4-1.2,2.4-2.4c0-1.3-1.1-2.5-2.4-2.5
		C365.8,58.8,364.7,59.9,364.7,61.3L364.7,61.3z"/>
	<path class="st0" d="M347.5,71.4c0,1.3,1.2,2.3,2.6,2.3c1.2,0,2.3-1.1,2.3-2.3c0-1.4-1.2-2.3-2.3-2.3C348.5,69,347.5,70,347.5,71.4
		L347.5,71.4z"/>
	<path class="st0" d="M356.5,79.1c0,1.3,1.2,2.4,2.6,2.4c1.2,0,2.3-1.2,2.3-2.4c0-1.5-1.1-2.3-2.3-2.3
		C357.6,76.8,356.5,77.8,356.5,79.1L356.5,79.1z"/>
	<path class="st0" d="M365.7,86.9c0,1.2,0.9,2.4,2.4,2.4c1.2,0,2.3-1.2,2.3-2.4c0-1.3-1.1-2.6-2.3-2.6
		C366.7,84.4,365.7,85.5,365.7,86.9L365.7,86.9z"/>
	<path class="st0" d="M351.1,88c0,1.2,1.2,2.3,2.4,2.3c1.4,0,2.6-1.1,2.6-2.3c0-1.4-1.1-2.3-2.6-2.3C352.3,85.6,351.1,86.5,351.1,88
		L351.1,88z"/>
	<path class="st0" d="M353.2,76.1c0,1.4,0.9,2.3,2.4,2.3c1.1,0,2.3-0.9,2.3-2.3c0-1.2-1.1-2.3-2.3-2.3
		C354.1,73.8,353.2,74.9,353.2,76.1L353.2,76.1z"/>
	<path class="st0" d="M345.6,95.5c0,1.2,1.2,2.3,2.4,2.3c1.5,0,2.4-1.2,2.4-2.3c0-1.5-1-2.6-2.4-2.6C346.7,93,345.6,94.2,345.6,95.5
		L345.6,95.5z"/>
	<path class="st0" d="M334.5,56.6c0,1.5,1,2.4,2.4,2.4c1.2,0,2.4-0.9,2.4-2.4c0-1.2-1.2-2.3-2.4-2.3
		C335.4,54.3,334.5,55.5,334.5,56.6L334.5,56.6z"/>
	<path class="st0" d="M316.3,100.5C316.3,100.5,316.3,100.5,316.3,100.5c-0.4-0.1-0.8-0.3-1.3-0.3c-1.2,0-2.3,1.1-2.3,2.3
		c0,1.5,1.2,2.4,2.3,2.4c1.4,0,2.4-1,2.4-2.4c0-0.1,0-0.1,0-0.2c0.4,0.3,0.9,0.5,1.3,0.5c1.5,0,2.4-1.2,2.4-2.3
		c0-1.4-0.9-2.3-2.4-2.3C317.5,98.1,316.3,99,316.3,100.5L316.3,100.5z"/>
	<path class="st0" d="M330.5,97c0,0.1,0,0.2,0,0.3c-0.3-0.1-0.5-0.1-0.8-0.1c-1.3,0-2.3,1-2.3,2.5c0,1.1,0.9,2.3,2.3,2.3
		c1.2,0,2.4-1.1,2.4-2.3c0-0.2,0-0.3-0.1-0.5c0.3,0.1,0.7,0.2,1,0.2c1.2,0,2.4-1.2,2.4-2.4c0-1.5-1.2-2.3-2.4-2.3
		C331.6,94.6,330.5,95.6,330.5,97L330.5,97z"/>
	<path class="st0" d="M334.8,100.3c0,1.3,1.2,2.3,2.6,2.3c1.2,0,2.4-1.1,2.4-2.3c0-1.5-1.2-2.3-2.4-2.3
		C335.8,97.9,334.8,98.9,334.8,100.3L334.8,100.3z"/>
	<path class="st0" d="M323.1,103.3c0,1.5,1,2.6,2.4,2.6c1.2,0,2.3-1.2,2.3-2.6c0-1.2-1.1-2.4-2.3-2.4
		C324,101,323.1,102.2,323.1,103.3L323.1,103.3z"/>
	<path class="st0" d="M320.6,97.8c0,1.5,1.2,2.3,2.3,2.3c1.4,0,2.4-0.9,2.4-2.3c0-1.1-0.9-2.4-2.4-2.4c-0.2,0-0.3,0-0.5,0.1
		c0-1.4-1.1-2.5-2.5-2.5c-1.3,0-2.4,1.2-2.4,2.6c0,1.2,1.1,2.3,2.4,2.3C320.2,97.9,320.4,97.8,320.6,97.8L320.6,97.8z"/>
	<path class="st0" d="M307.1,100.1c0,1.2,1.1,2.3,2.3,2.3c1.5,0,2.4-1.2,2.4-2.3c0-1.4-0.9-2.3-2.4-2.3
		C308.3,97.7,307.1,98.6,307.1,100.1L307.1,100.1z"/>
	<path class="st0" d="M306.5,89c0,1.4,0.9,2.3,2.4,2.3c1.2,0,2.3-0.9,2.3-2.3c0-1.2-1.1-2.3-2.3-2.3C307.4,86.7,306.5,87.8,306.5,89
		L306.5,89z"/>
	<path class="st0" d="M316.5,89c0,1.5,1.2,2.3,2.4,2.3c1.4,0,2.4-0.9,2.4-2.3c0-0.2,0-0.3-0.1-0.5c0.4,0.2,0.8,0.4,1.2,0.4
		c1.4,0,2.3-1.2,2.3-2.3c0-0.6-0.1-1-0.3-1.4c0.3,0.2,0.7,0.2,1.1,0.2c1.2,0,2.3-1.1,2.3-2.3c0-1.5-1.2-2.3-2.3-2.3
		c-1.4,0-2.4,1-2.4,2.3c0,0.4,0.1,0.8,0.3,1.2c-0.3-0.1-0.7-0.2-1-0.2c-1.2,0-2.4,1.2-2.4,2.6c0,0.1,0,0.3,0.1,0.4
		c-0.3-0.2-0.7-0.3-1.2-0.3C317.7,86.7,316.5,87.8,316.5,89L316.5,89z"/>
	<path class="st0" d="M326.6,89c0,1.4,1,2.3,2.6,2.3c1.2,0,2.4-0.9,2.4-2.3c0-0.4-0.1-0.8-0.3-1.1c0.4,0.4,0.9,0.6,1.4,0.6
		c1.4,0,2.6-1.1,2.6-2.5c0-1.3-1.2-2.4-2.6-2.4c-1.2,0-2.3,1.2-2.3,2.4c0,0.5,0.1,0.9,0.3,1.3c-0.4-0.3-1-0.6-1.5-0.6
		C327.8,86.7,326.6,87.7,326.6,89L326.6,89z"/>
	<path class="st0" d="M336.8,89c0,1.4,0.9,2.3,2.4,2.3c1.2,0,2.4-0.9,2.4-2.3c0-1.2-1.1-2.3-2.4-2.3C337.7,86.7,336.8,87.8,336.8,89
		L336.8,89z"/>
	<path class="st0" d="M325.6,73.9c0,1.2,1.1,2.3,2.4,2.3c0.3,0,0.7-0.1,0.9-0.2c0,0,0,0,0,0.1c0,1.5,1.2,2.3,2.3,2.3
		c1.4,0,2.4-1,2.4-2.3c0-1.1-0.9-2.3-2.4-2.3c-0.3,0-0.5,0-0.7,0.1l0,0c0-1.4-1.1-2.6-2.6-2.6C326.7,71.3,325.6,72.5,325.6,73.9
		L325.6,73.9z"/>
	<path class="st0" d="M341.6,75.1c0.3,1,1.3,1.7,2.2,1.7c1.5,0,2.4-1.2,2.4-2.3c0-1.4-0.9-2.4-2.4-2.4c-0.9,0-1.9,0.6-2.3,1.6
		c-0.2-1-1.1-1.6-2.2-1.6c-1.1,0-2.3,0.9-2.3,2.4c0,1.2,1.1,2.3,2.3,2.3C340.6,76.8,341.4,76,341.6,75.1L341.6,75.1z"/>
	<path class="st0" d="M334.1,78.9c0,1.2,1.2,2.4,2.4,2.4c1.4,0,2.5-1.1,2.5-2.4c0-1.4-1.1-2.3-2.5-2.3
		C335.4,76.6,334.1,77.5,334.1,78.9L334.1,78.9z"/>
	<path class="st0" d="M334.8,83.7c0,1.3,1.2,2.3,2.6,2.3c1.2,0,2.4-1.1,2.4-2.3c0-1.4-1.2-2.3-2.4-2.3
		C335.8,81.3,334.8,82.3,334.8,83.7L334.8,83.7z"/>
	<path class="st0" d="M299.1,96.8c0,1.2,1.1,2.3,2.4,2.3c1.5,0,2.4-1.1,2.4-2.3c0-1.5-0.9-2.4-2.4-2.4
		C300.4,94.4,299.1,95.3,299.1,96.8L299.1,96.8z"/>
	<path class="st0" d="M312.2,91.9c0,1.2,1.2,2.3,2.4,2.3c1.4,0,2.4-1.2,2.4-2.3c0-1.4-1-2.4-2.4-2.4
		C313.4,89.5,312.2,90.4,312.2,91.9L312.2,91.9z"/>
	<path class="st0" d="M45.5,288.1c0-3.5,0-6.8,0-10.2c0-1.2-1-2.3-2-2.5c-6-1.8-10.2-2.5-17.8-2.6c-13.1-0.2-25.6,8.6-25.6,18
		c0.2,8.6,5.8,14,13.9,15.8c8.4,1.5,26,4.3,26.6,10.4c0.4,2,0.4,5.3,0,6.8c-0.8,3.7-3.7,7.2-8.6,8.9c-7.2,1.6-14.1,1.2-20.1-2.3
		c-3.7-1.8-5.3-6.2-6.3-10.4c-0.4-1.4-2.7-1.2-2.7,1.2c0.2,4.7,0.2,8.2,0.2,12.9c2.8,2.8,11.7,5.3,18.6,5.3c12.3,0,25-6.1,27.3-12.3
		c1.8-4.9,1.8-11.1-0.8-16.4c-1.7-3.3-7-7.4-19.1-9.6c-7-1.4-19.9-3.3-19.7-10.6c-0.2-10.7,10.2-12.1,16.8-12.1
		c5.5,0,15.2,1.2,16.6,9.6C43.4,290.5,45.7,290.1,45.5,288.1L45.5,288.1z"/>
	<path class="st0" d="M183.5,335.8c-2.3,0-3.3-1.4-3.7-2.4l-23.7-59.8c-4.1,0-8.2,0-12.3,0c-1.7,0-1.5,1.6-0.5,1.8
		c1.3,0.2,4.6,0.8,3.1,3.7c-7,18.1-13.1,35.4-20.1,53.5c-0.8,1.6-2.7,3.2-4.7,3.2c-1.8,0-2,2,0,2c4.7,0,11.3,0,16.2,0c2,0,1.6-2,0-2
		c-2,0-4.9-2-4.3-3.2l6.5-17.9H162c2.2,5.8,4.3,11.5,6.6,17c0.6,1.4,0.8,3.9-3.1,4.1c-1.4,0-1.6,2,0,2c6.4,0,11.7,0,18.1,0
		C185.4,337.8,184.5,335.8,183.5,335.8z M142.5,308.1l8-22.1l8.4,22.1H142.5z"/>
	<path class="st0" d="M273.4,272.3c-20.3,0-33.6,19.9-33.2,32C240,317.8,247,339,273.4,339c26,0,34.4-21.1,34.4-34.8
		C307.8,291.5,294.9,272.3,273.4,272.3z M273.4,332.1c-17.4-0.2-23.2-15.5-22.7-27.2c-0.4-9,3.3-25.6,22.5-25.6
		c14.5-0.2,24.2,15.5,24.2,25.6C297.4,316.3,293.3,332.1,273.4,332.1z"/>
	<path class="st0" d="M481.3,273.4c-1.2,0-1.2,1.6,0,1.6c1.6,0,3.9,0.4,3.9,1.8c0,18.6,0,37.5,0,56.1c0,1.4-1,2.8-3.7,2.8
		c-1.2,0-1.4,2.3,0,2c6.1,0,10.8,0,17,0c1.9,0.2,1.9-2,0-2c-2.7,0-3.3-1.2-3.3-2.8c0-18.9,0-37.3,0-56.1c0-1.2,1.9-1.8,3.7-1.8
		c1.2,0,1.7-1.6,0-1.6C492.8,273.4,487.4,273.4,481.3,273.4L481.3,273.4z"/>
	<path class="st0" d="M412.3,273.4c-1.4,0-1.4,1.8,0,1.8c2,0,5.1,1,5.1,2.4c0,17.8,0,35.6,0,53.7c0,2.4-2,4.5-5.1,4.5c-2,0-2,2,0,2
		c6.6,0,13.1,0,19.7,0c2.2,0,2.2-2,0-2c-3.5,0-4.3-2-4.3-4.5V308c0-1.2,1.5-2.1,3.3-0.3c9.2,9.4,17,18.8,26.2,28.1
		c1.6,1.8,3.3,2,4.3,2h12.1c2,0,1.8-2,0-2c-2.7,0-6-2.4-6.6-3.2l-28.5-28.9c-1-1.1-1-2.1,0-3.1c7-7.4,14.7-14.7,22.3-22.1
		c2.4-2.4,4.5-3.3,6.6-3.3c1.2,0,1.2-1.8,0-1.8c-6.6,0-12.1,0-18.6,0c-1.4,0-1.4,1.8,0,1.8c1.8,0,4.7,0.8,2.7,3.1l-20.9,21.5
		c-2.3,2.4-2.9,0.8-2.9-0.4c0-7.6,0-14.4,0-21.7c0-1.8,3.1-2.4,4.5-2.4c1.4,0,1.6-1.8,0-1.8C425.6,273.4,419.1,273.4,412.3,273.4
		L412.3,273.4z"/>
	<path class="st0" d="M301.1,273.4c-1.4,0.2-1.2,2,0,1.8c1.8,0,3.9,0.4,4.5,2c7.8,19.4,15.8,39.1,23.5,58.8c0.2,0.6,1,1.8,2,1.8
		c1,0,2.1,0,3.1,0c0.8,0,1.4-0.6,2-1.8l20.7-57.4c0.6-1.8,1-3.3,2.9-3.5c2.4,0.2,2.2-1.6,0.4-1.8h-14.2c-2.4,0-2,2,0,1.8
		c3.1,0.2,4.5,1.6,3.7,4.7c-4.5,13.9-9.6,26.2-14.1,40.3c-0.9,2.3-2.5,2.4-3.5,0c-5.3-14.9-10-26.8-15.6-41.8
		c-0.4-2,1.2-3.1,2.9-3.3c1.6,0.2,2.2-1.6,0-1.8H301.1z"/>
	<path class="st0" d="M189.4,273.5c-2.4,0-2,3.3-0.2,3.3c4.7,0,3.9,2.4,4.1,5.7c0,16.8,0,33.6,0,50.4c0,1.4-1.2,2.2-4.1,3.1
		c-1.2,0.2-1.2,1.8,0,1.8c6.2,0,11.9,0,17.9,0c1.2,0,1.4-1.4,0-1.8c-2.7-0.4-3.9-1.8-3.9-3.1c0-17.6,0-35.2,0-52.9c3.1,0,7,0,10.2,0
		c6.8,0,12.5,3.1,12.7,9.6c-0.2,5.7-1.7,8.2-5.8,10.7c-3.5,2.2-5.3,2.8-13.1,2.8c-1.9,0.2-0.8,2.3,0.4,3.5l23.7,31.1h11.7
		c4.9,0.2,1.2-2.4-0.8-3.5c-3.7-1.8-15.8-19.1-24.1-27.6c24.6-4.3,26.4-33.2,0-33.2C208.5,273.5,198.9,273.5,189.4,273.5
		L189.4,273.5z"/>
	<path class="st0" d="M51,273.4c-1.8,0-1.6,2.6,0,2.6c1.8,0,3.3,0.8,4.1,1.8l20.5,60h7.6L94,304.4l11.3,33.4h8
		c6.4-19.6,12.5-40.1,18.6-60c0.6-1.2,1.4-1.6,3.3-1.8c2.1-0.4,3.1-2.6-0.4-2.6c-5.1,0-9.4,0-14.3,0c-1.9,0-1.9,2.4,0,2.6
		c2-0.2,5.7,0,4.7,1.8l-12.3,44c-0.9,2.8-2.5,2.8-3.1,0c-4.7-14.6-9.2-29.5-13.9-44c-0.2-1.2,1.6-1.8,3.5-1.8c1.9,0,2.5-2.6,0-2.6
		H79.1c-2.9,0-2.2,2.6-0.2,2.6c2.2,0,4.9,0.6,5.9,1.8l6.1,17.4c-2.9,8.8-5.5,17.8-8.2,26.6c-1,2.4-2.4,2-3.1,0
		c-4.9-14.8-9.8-29.3-14.6-44c-0.6-1.2,1.7-1.8,3.9-1.8c2-0.2,2-2.6,0-2.6H51z"/>
	<path class="st0" d="M406,288.1c0-3.5,0-6.8,0-10.2c0-1.2-1-2.3-2.3-2.5c-5.7-1.8-10.2-2.5-17.6-2.6c-13.1-0.2-25.6,8.6-25.6,18
		c0,8.6,5.7,14,13.7,15.8c8.6,1.5,26.2,4.3,26.8,10.4c0.4,2,0.4,5.3,0,6.8c-0.8,3.7-3.7,7.2-8.6,8.9c-7.4,1.6-14.1,1.2-20.1-2.3
		c-3.9-1.8-5.5-6.2-6.4-10.4c-0.4-1.4-2.7-1.2-2.7,1.2c0,4.7,0.2,8.2,0.2,12.9c2.6,2.8,11.7,5.3,18.5,5.3c12.5,0,25-6.1,27.2-12.3
		c1.8-4.9,2-11.1-0.6-16.4c-1.6-3.3-7.2-7.4-19.1-9.6c-6.9-1.4-19.9-3.3-19.6-10.6c-0.2-10.7,10.2-12.1,16.8-12.1
		c5.5,0,15.2,1.2,16.6,9.6C403.7,290.5,406,290.1,406,288.1L406,288.1z"/>
</g>
</svg>
