<?xml version="1.0" encoding="utf-8"?>
<!-- Generator: Adobe Illustrator 23.0.1, SVG Export Plug-In . SVG Version: 6.00 Build 0)  -->
<svg version="1.1" id="Layer_1" xmlns="http://www.w3.org/2000/svg" xmlns:xlink="http://www.w3.org/1999/xlink" x="0px" y="0px"
	 viewBox="0 0 30 30" style="enable-background:new 0 0 30 30;" xml:space="preserve">
<style type="text/css">
	.st0{fill:#FFFFFF;}
</style>
<path id="Twitter" class="st0" d="M29.17,2.96c-1.19,0.72-2.51,1.25-3.91,1.53c-1.12-1.23-2.72-1.99-4.49-1.99
	c-3.4,0-6.15,2.83-6.15,6.31c0,0.49,0.05,0.98,0.16,1.44C9.66,9.98,5.13,7.47,2.09,3.65C1.56,4.59,1.26,5.67,1.26,6.83
	c0,2.19,1.09,4.12,2.74,5.25c-1.01-0.03-1.96-0.32-2.79-0.79v0.08c0,3.06,2.12,5.61,4.94,6.19c-0.52,0.15-1.06,0.22-1.62,0.22
	c-0.4,0-0.78-0.04-1.16-0.11c0.78,2.51,3.06,4.33,5.75,4.38c-2.11,1.69-4.76,2.7-7.64,2.7c-0.5,0-0.99-0.03-1.47-0.09
	c2.72,1.79,5.96,2.83,9.43,2.83c11.32,0,17.51-9.62,17.51-17.96c0-0.27-0.01-0.55-0.02-0.82c1.2-0.89,2.25-2,3.07-3.27
	c-1.1,0.5-2.29,0.84-3.53,0.99C27.74,5.67,28.71,4.44,29.17,2.96z"/>
</svg>
